SplineFontDB: 3.2
FontName: RusimezSerifRegular
FullName: Rusimez serif regular
FamilyName: Rusimez serif
Weight: Book
Copyright: Copyright (c) 2022, Daco77
UComments: "2022-11-25: Created with FontForge (http://fontforge.org)"
Version: 001.000
ItalicAngle: 0
UnderlinePosition: -100
UnderlineWidth: 50
Ascent: 800
Descent: 200
InvalidEm: 0
LayerCount: 2
Layer: 0 0 "+tLe6dAAA" 1
Layer: 1 0 "+xV66dAAA" 0
XUID: [1021 328 918690791 307]
StyleMap: 0x0000
FSType: 0
OS2Version: 0
OS2_WeightWidthSlopeOnly: 0
OS2_UseTypoMetrics: 1
CreationTime: 1669386597
ModificationTime: 1732623525
OS2TypoAscent: 0
OS2TypoAOffset: 1
OS2TypoDescent: 0
OS2TypoDOffset: 1
OS2TypoLinegap: 90
OS2WinAscent: 0
OS2WinAOffset: 1
OS2WinDescent: 0
OS2WinDOffset: 1
HheadAscent: 0
HheadAOffset: 1
HheadDescent: 0
HheadDOffset: 1
MarkAttachClasses: 1
DEI: 91125
Encoding: UnicodeBmp
UnicodeInterp: none
NameList: AGL For New Fonts
DisplaySize: -96
AntiAlias: 1
FitToEm: 0
WinInfo: 57715 17 8
BeginPrivate: 0
EndPrivate
BeginChars: 65536 362

StartChar: uniE100
Encoding: 57600 57600 0
Width: 1000
VStem: 209.1 81.4004<59.4032 215.818>
LayerCount: 2
Fore
SplineSet
241.5 3.5 m 1
 241.700195312 3.5 l 1
 198.099609375 26 197 50.099609375 209.099609375 92.2998046875 c 0
 217.400390625 284.5 312.200195312 456.099609375 354.799804688 640 c 0
 356.200195312 646.599609375 358 663 358.599609375 666.700195312 c 0
 366.700195312 686.599609375 321.799804688 734.5 358.400390625 739.299804688 c 0
 398.400390625 738.900390625 440.200195312 697.299804688 432.099609375 653.900390625 c 0
 424.200195312 618.299804688 395.799804688 602.299804688 386.900390625 568.299804688 c 0
 350.099609375 473.200195312 315.700195312 375.200195312 291.299804688 276 c 1
 427.299804688 463.900390625 838.200195312 412.599609375 745.599609375 130.400390625 c 0
 768.400390625 103.200195312 796.099609375 75.2998046875 814.200195312 44.599609375 c 0
 823.799804688 23.099609375 813.700195312 -2.400390625 791.700195312 -11.099609375 c 0
 744.599609375 -27.2998046875 727 30.2998046875 702.700195312 58.7998046875 c 1
 638.099609375 -22.099609375 505.5 -28.2998046875 418.599609375 30.400390625 c 0
 279.799804688 171.200195312 525.799804688 329.799804688 680.799804688 190.700195312 c 1
 682.599609375 331.900390625 459.599609375 371.099609375 360.5 292.200195312 c 0
 297.599609375 238.900390625 294 144.099609375 290.5 66.400390625 c 1
 290.299804688 64 290 61.5 290.599609375 59.2998046875 c 1
 290.099609375 59.2998046875 l 1
 284.799804688 2.599609375 286.599609375 -20.2998046875 241.5 3.5 c 1
579.299804688 50.7001953125 m 0
 613.799804688 61.5 641.5 85.099609375 659.299804688 114.400390625 c 0
 481.099609375 336.700195312 256 -0.2998046875 579.299804688 50.7001953125 c 0
EndSplineSet
EndChar

StartChar: uniE101
Encoding: 57601 57601 1
Width: 1000
VStem: 313 456.4<64 399.9>
LayerCount: 2
Fore
SplineSet
264 3.5 m 1
 263.900390625 3.2998046875 l 1
 222.099609375 24.5 218.5 49.900390625 231.099609375 90.5 c 0
 239.5 283.599609375 334.200195312 455.400390625 377.099609375 639.900390625 c 0
 378.5 646.5 380.299804688 662.900390625 380.900390625 666.599609375 c 0
 389 686.5 344.099609375 734.400390625 380.700195312 739.200195312 c 0
 420.700195312 738.799804688 462.5 697.200195312 454.400390625 653.799804688 c 0
 446.5 618.200195312 418.099609375 602.200195312 409.200195312 568.200195312 c 0
 372.5 473.599609375 338.5 376 313.900390625 277.400390625 c 1
 438.5 448.799804688 850 399.900390625 769.400390625 135.099609375 c 0
 743 39.2998046875 615.200195312 -26.7001953125 534.099609375 14.900390625 c 1
 595.400390625 14 652.599609375 51.599609375 680.200195312 104 c 0
 802.400390625 369.900390625 284.599609375 466.099609375 313 66.400390625 c 1
 312.799804688 64 312.599609375 61.5 313.099609375 59.2998046875 c 1
 312.599609375 59.2998046875 l 1
 307.299804688 2.599609375 309.099609375 -20.2998046875 264 3.5 c 1
EndSplineSet
EndChar

StartChar: uniE102
Encoding: 57602 57602 2
Width: 1000
VStem: 334.3 81.5<97.8849 153.249 195.6 350.5> 342.4 65.8994<454.043 686.887> 806.7 5.5<310.934 311.9>
LayerCount: 2
Fore
SplineSet
340.700195312 682.5 m 0x20
 339.900390625 683.5 343.299804688 678.900390625 342.299804688 681.5 c 0
 341.700195312 682 341 682.299804688 340.700195312 682.5 c 0x20
195.799804688 12.7001953125 m 2
 195.700195312 12.7998046875 l 2
 52.2998046875 99.7001953125 214.599609375 346.200195312 332.200195312 195.599609375 c 1
 329.099609375 357 340.700195312 521 342.400390625 681 c 0
 350 696.799804688 292.400390625 736.700195312 313.400390625 749.5 c 0
 356.400390625 763.099609375 418.400390625 739.200195312 420.400390625 688.400390625 c 0
 412.799804688 656.099609375 405.700195312 625.299804688 408.299804688 591.700195312 c 0x60
 407 430.299804688 412.400390625 270.599609375 415.799804688 109.599609375 c 1xa0
 584.400390625 -23.2998046875 807.099609375 99.7001953125 806.700195312 310.799804688 c 0
 807 313.700195312 810.900390625 314.299804688 812.200195312 311.900390625 c 0
 932.299804688 31.900390625 632.5 -125.299804688 410.900390625 44.5 c 1
 379.599609375 -42.2998046875 258.099609375 -29.2998046875 195.799804688 12.7001953125 c 2
199.700195312 153.700195312 m 1
 199.700195312 153.599609375 l 1
 122.299804688 58.2998046875 267 10.599609375 331.299804688 65 c 0
 331.799804688 74.900390625 334.299804688 103.400390625 334.299804688 123.099609375 c 0xa0
 293.299804688 182 247.799804688 248 199.700195312 153.700195312 c 1
EndSplineSet
EndChar

StartChar: uniE103
Encoding: 57603 57603 3
Width: 1000
LayerCount: 2
Fore
SplineSet
250.799804688 3.5 m 1
 250.799804688 3.400390625 l 1
 223.200195312 20.7998046875 202.799804688 35.2001953125 213.5 68.2001953125 c 0
 222.900390625 189.5 254.900390625 308.400390625 295.400390625 422.400390625 c 0
 320.200195312 521.700195312 394.599609375 621.299804688 353.099609375 724.599609375 c 0
 359.299804688 772.299804688 458.299804688 702.400390625 441.799804688 656.599609375 c 0
 392.400390625 564.700195312 355.599609375 469 326.200195312 367.299804688 c 1
 675.599609375 395.599609375 619.900390625 11 296.299804688 96.7998046875 c 1
 297.200195312 90.2001953125 297.400390625 83.7998046875 298.400390625 78 c 0
 299.200195312 7 300.299804688 -21.599609375 250.799804688 3.5 c 1
295.599609375 243 m 0
 293.400390625 218.799804688 292.400390625 194.400390625 292.400390625 169.900390625 c 0
 347.799804688 139.599609375 527.599609375 122.900390625 526.599609375 219 c 0
 503.099609375 323.5 298.299804688 393 295.599609375 243 c 0
EndSplineSet
EndChar

StartChar: uniE104
Encoding: 57604 57604 4
Width: 1000
VStem: 352.6 0.5<666.184 670.43> 709.7 54.7998<57.5 146.415>
LayerCount: 2
Fore
SplineSet
352.599609375 670.5 m 1
 352.900390625 669 353.400390625 667.599609375 353.099609375 666.099609375 c 1
 352.599609375 667.900390625 352.599609375 669.700195312 352.599609375 670.5 c 1
246.099609375 68.2001953125 m 1
 246.200195312 68.400390625 l 1
 153.5 268.400390625 305.900390625 474.099609375 353.200195312 666.299804688 c 1
 353.400390625 665.599609375 353.599609375 664.799804688 353.900390625 664.099609375 c 1
 353.099609375 665.299804688 353.900390625 674.700195312 352.700195312 670.700195312 c 1
 349.799804688 682.799804688 338.799804688 698.900390625 315.799804688 716 c 0
 285.700195312 766.200195312 425.5 749.299804688 431.5 681.599609375 c 0
 440.299804688 643.200195312 407.900390625 621 386.599609375 597.700195312 c 0
 366.299804688 555 355.799804688 509.200195312 343.299804688 463.5 c 0
 317 348.599609375 219.900390625 65 405.099609375 50.599609375 c 0
 481.900390625 28.2998046875 563.599609375 51 609.400390625 117.200195312 c 0
 650.900390625 155.099609375 668 233.200195312 657.200195312 275.400390625 c 0
 667 293.299804688 718.299804688 278.099609375 730.900390625 270.299804688 c 0
 754.700195312 258.299804688 753.5 222.400390625 760.900390625 199 c 1
 759.400390625 199 l 1
 769.400390625 152.299804688 768.599609375 105.700195312 764.5 57.5 c 1
 801.599609375 62.400390625 956.200195312 28.400390625 867.900390625 -15.599609375 c 0
 830.400390625 -9.099609375 793.900390625 3.7998046875 754.700195312 1.5 c 0
 655.099609375 -254.799804688 435.5 -4.7998046875 709.700195312 53 c 0
 711.299804688 83.900390625 712.299804688 116.599609375 707.700195312 148 c 1
 610 14.599609375 365.599609375 -89.7001953125 246.099609375 68.2001953125 c 1
678.200195312 -48.7001953125 m 0
 689.799804688 -34.7001953125 697 -19.099609375 701.700195312 -2.099609375 c 1
 570 -0.900390625 589.700195312 -145.900390625 678.200195312 -48.7001953125 c 0
695.200195312 198 m 1
 695.200195312 198 l 1
EndSplineSet
EndChar

StartChar: uniE105
Encoding: 57605 57605 5
Width: 1000
LayerCount: 2
Fore
SplineSet
360.299804688 669.799804688 m 1
 360.700195312 668.599609375 361 667.400390625 360.700195312 666.200195312 c 1
 360.299804688 667.599609375 360.299804688 669 360.299804688 669.799804688 c 1
253.799804688 68.2001953125 m 1
 161.200195312 268.299804688 313.5 474 360.799804688 666.200195312 c 1
 361 665.5 361.200195312 664.599609375 361.5 663.900390625 c 1
 360.900390625 665.200195312 361.200195312 675.799804688 360.299804688 669.799804688 c 1
 356.599609375 684.700195312 346.799804688 697.799804688 323.400390625 715.900390625 c 0
 293.200195312 765.900390625 433.099609375 749.400390625 439.099609375 681.5 c 0
 447.5 644.299804688 417.299804688 621.400390625 395.599609375 599.400390625 c 0
 373.5 556.799804688 364 509.5 350.799804688 463.299804688 c 0
 319.900390625 350.599609375 285.299804688 219.700195312 317 105.599609375 c 0
 341.5 55.900390625 406.900390625 50.099609375 456.299804688 43.099609375 c 1
 283.700195312 226.799804688 543.900390625 370.099609375 653 171.5 c 1
 674.299804688 196.099609375 664.799804688 264.400390625 664.799804688 275.200195312 c 0
 674.799804688 293.200195312 725.700195312 277.799804688 738.5 270.099609375 c 0
 762.200195312 258.099609375 761.099609375 222.299804688 768.5 198.900390625 c 1
 768.299804688 198.900390625 l 1
 783.099609375 162.200195312 785.099609375 -100.099609375 709.799804688 3.599609375 c 0
 712.200195312 51.599609375 721.700195312 100.299804688 715.599609375 149.099609375 c 1
 619.400390625 14.2998046875 373.099609375 -89.5 253.799804688 68.2001953125 c 1
450.599609375 225.5 m 0
 396 140.200195312 528.099609375 2 601.799804688 100.099609375 c 0
 659.799804688 183.200195312 520.299804688 284.900390625 450.599609375 225.5 c 0
EndSplineSet
EndChar

StartChar: uniE106
Encoding: 57606 57606 6
Width: 1000
LayerCount: 2
Fore
SplineSet
261.400390625 68.2001953125 m 1
 168.799804688 268.299804688 321.099609375 474 368.400390625 666.200195312 c 1
 368.599609375 665.5 368.799804688 664.599609375 369.099609375 663.900390625 c 1
 368.5 665.200195312 368.799804688 675.799804688 367.900390625 669.799804688 c 1
 364.200195312 684.700195312 354.400390625 697.799804688 331 715.900390625 c 0
 300.799804688 765.900390625 440.700195312 749.400390625 446.700195312 681.5 c 0
 455.099609375 644.299804688 424.900390625 621.400390625 403.200195312 599.400390625 c 0
 381.099609375 556.799804688 371.599609375 509.5 358.400390625 463.299804688 c 0
 327.5 350.599609375 292.900390625 219.700195312 324.599609375 105.599609375 c 0
 348.200195312 57 411.200195312 51.400390625 459.200195312 43.400390625 c 0
 525.900390625 33.7998046875 586.099609375 64.7001953125 624.599609375 117 c 0
 666.099609375 155 683.299804688 233 672.400390625 275.200195312 c 0
 682.200195312 293.099609375 733.5 277.900390625 746.099609375 270.099609375 c 0
 769.900390625 258.200195312 768.700195312 222.299804688 776.099609375 198.900390625 c 1
 775.900390625 198.900390625 l 1
 790.700195312 162.200195312 792.700195312 -100.099609375 717.400390625 3.599609375 c 0
 719.799804688 51.599609375 729.299804688 100.299804688 723.200195312 149.099609375 c 1
 627 14.2998046875 380.700195312 -89.5 261.400390625 68.2001953125 c 1
367.900390625 669.799804688 m 1
 368.299804688 668.599609375 368.599609375 667.400390625 368.299804688 666.200195312 c 1
 367.900390625 667.599609375 367.900390625 669 367.900390625 669.799804688 c 1
EndSplineSet
EndChar

StartChar: uniE107
Encoding: 57607 57607 7
Width: 1000
VStem: 360.9 0.5<666.07 670.335> 361 1.09961<670.5 670.715>
LayerCount: 2
Fore
SplineSet
403.299804688 -9.400390625 m 1x40
 403.299804688 -9.2998046875 l 1
 55.900390625 35.5 309.400390625 470.099609375 361.400390625 666.099609375 c 1x80
 361.599609375 665.200195312 361.900390625 664.400390625 362.099609375 664.099609375 c 1
 361.5 666 361.900390625 675.299804688 361 670.5 c 1
 363.299804688 694.200195312 298.900390625 718.700195312 325.200195312 738.200195312 c 0
 422.099609375 771.700195312 486.200195312 659.400390625 394.799804688 597.599609375 c 1
 346.599609375 470.799804688 309.400390625 334.299804688 306 198 c 0
 292.599609375 92.599609375 356.299804688 47.099609375 456.099609375 44 c 1
 380.599609375 108.900390625 374.299804688 263 499.200195312 267.099609375 c 0
 568.5 268.700195312 655.099609375 217.099609375 658.599609375 142.799804688 c 1
 756.299804688 172.099609375 813.099609375 10.2001953125 727.5 -37.7998046875 c 0
 674.299804688 -65.400390625 663.099609375 -5.599609375 708.799804688 16.599609375 c 0
 732.599609375 42.900390625 731.900390625 107 682.299804688 96.5 c 0
 596.900390625 39.7001953125 514.900390625 -15.2998046875 403.299804688 -9.400390625 c 1x40
451.299804688 225.5 m 0
 396.5 140.299804688 529 1.900390625 602.400390625 99.900390625 c 0
 660.5 183.099609375 521.099609375 284.900390625 451.299804688 225.5 c 0
360.900390625 670.400390625 m 1
 361.200195312 669 361.700195312 667.5 361.400390625 666 c 1
 361 667.5 360.900390625 669.200195312 360.900390625 670.400390625 c 1
EndSplineSet
EndChar

StartChar: uniE111
Encoding: 57617 57617 8
Width: 1000
HStem: 452.1 80.8008<687.999 726.044>
VStem: 204.2 85.8994<15.0911 59.2002 59.3035 207.682>
LayerCount: 2
Fore
SplineSet
170.700195312 411.099609375 m 2
 170.599609375 411.099609375 l 2
 145.900390625 436.900390625 275.400390625 424.900390625 293.700195312 444.5 c 0
 313.700195312 509.400390625 344.299804688 572.200195312 354.599609375 639.900390625 c 0
 364 671.799804688 353.900390625 693.599609375 343.700195312 724.5 c 0
 353.900390625 773.299804688 450.700195312 698.299804688 432 653.799804688 c 0
 402.599609375 593.799804688 369.5 541.099609375 352.200195312 475.200195312 c 1
 408.700195312 514.799804688 504 568.099609375 505.599609375 644.299804688 c 0
 511 648.900390625 495.900390625 665.900390625 491.900390625 676.099609375 c 0
 484.299804688 738.599609375 601.599609375 685.799804688 571 625.599609375 c 0
 533.200195312 567.900390625 472.700195312 534.299804688 423.900390625 488 c 1
 516.799804688 504.900390625 610.900390625 524.299804688 704.799804688 532.900390625 c 0
 744.599609375 535.299804688 750.5 471.799804688 721.700195312 452.099609375 c 0
 712.200195312 443.900390625 698.099609375 450.099609375 687.5 449.700195312 c 0
 562.599609375 469.900390625 446.200195312 446.200195312 328.400390625 402.799804688 c 0
 315.099609375 361.099609375 299.799804688 318.900390625 291.299804688 275.900390625 c 1
 427.299804688 463.799804688 838.200195312 412.5 745.599609375 130.299804688 c 0
 768.400390625 103.099609375 796.099609375 75.2001953125 814.200195312 44.5 c 0
 823.799804688 23 813.700195312 -2.5 791.700195312 -11.2001953125 c 0
 744.599609375 -27.400390625 727 30.2001953125 702.700195312 58.7001953125 c 1
 638.099609375 -22.2001953125 505.5 -28.400390625 418.599609375 30.2998046875 c 0
 279.799804688 171.099609375 525.799804688 329.700195312 680.799804688 190.599609375 c 1
 682.599609375 331.799804688 459.599609375 371 360.5 292.099609375 c 0
 297.599609375 238.799804688 294 144 290.5 66.2998046875 c 1
 290.299804688 63.900390625 290 61.400390625 290.599609375 59.2001953125 c 1
 290.099609375 59.2001953125 l 1
 293.200195312 -32.7001953125 246.099609375 -10.5 208 31.2998046875 c 0
 199.5 43.599609375 199.5 51.099609375 204.200195312 68.2001953125 c 0
 216.799804688 178.799804688 237.5 289.299804688 276.599609375 393.799804688 c 1
 240.299804688 390.799804688 202.700195312 394.700195312 170.700195312 411.099609375 c 2
579.299804688 50.7001953125 m 0
 613.799804688 61.5 641.5 85.099609375 659.299804688 114.400390625 c 0
 481.099609375 336.700195312 256 -0.2998046875 579.299804688 50.7001953125 c 0
EndSplineSet
EndChar

StartChar: uniE112
Encoding: 57618 57618 9
Width: 1000
HStem: 452.2 80.7998<704.9 742.944>
VStem: 230.5 82.2002<10.5777 59.2998>
LayerCount: 2
Fore
SplineSet
187.700195312 411.099609375 m 2
 187.5 411.099609375 l 2
 162 437.099609375 298.700195312 424.5 317.099609375 447.700195312 c 0
 336.799804688 511.5 367 573.400390625 377 640 c 0
 386.400390625 671.900390625 376.299804688 693.700195312 366.099609375 724.599609375 c 0
 376.299804688 773.400390625 473.099609375 698.400390625 454.400390625 653.900390625 c 0
 425.799804688 594.900390625 392.799804688 543.799804688 375.900390625 479.099609375 c 1
 429.5 518.799804688 521.900390625 570.400390625 522.5 644.400390625 c 0
 527.900390625 649 512.799804688 666 508.799804688 676.200195312 c 0
 501.200195312 738.700195312 618.5 685.900390625 587.900390625 625.700195312 c 0
 550.099609375 568 489.599609375 534.400390625 440.799804688 488.099609375 c 1
 533.700195312 505 627.799804688 524.400390625 721.700195312 533 c 0
 761.5 535.400390625 767.400390625 471.900390625 738.599609375 452.200195312 c 0
 729.099609375 444 715 450.200195312 704.400390625 449.799804688 c 0
 582.099609375 469.099609375 466.400390625 448.099609375 351.299804688 404.400390625 c 0
 338 362.599609375 322.700195312 320.400390625 314 277.400390625 c 1
 438.599609375 448.799804688 850.099609375 399.900390625 769.5 135.099609375 c 0
 743.099609375 39.2998046875 615.299804688 -26.7001953125 534.200195312 14.900390625 c 1
 595.5 14 652.700195312 51.599609375 680.299804688 104 c 0
 802.5 369.900390625 284.700195312 466.099609375 313.099609375 66.400390625 c 1
 312.900390625 64 312.700195312 61.5 313.200195312 59.2998046875 c 1
 312.700195312 59.2998046875 l 1
 315.700195312 -32.599609375 268.599609375 -10.400390625 230.5 31.400390625 c 0
 219.799804688 149.200195312 263.700195312 280 299.099609375 394.299804688 c 1
 261.099609375 390.299804688 221.299804688 393.900390625 187.700195312 411.099609375 c 2
EndSplineSet
EndChar

StartChar: uniE113
Encoding: 57619 57619 10
Width: 1000
HStem: 448.5 80.7002<571.444 765.863>
VStem: 334.3 81.5<97.8849 153.249 195.5 357.511> 334.4 73.5<200.264 395.9 484.5 677.262> 806.7 5.5<310.934 311.9>
LayerCount: 2
Fore
SplineSet
340.700195312 682.5 m 0x90
 339.900390625 683.5 343.299804688 678.900390625 342.299804688 681.5 c 0
 341.700195312 682 341 682.299804688 340.700195312 682.5 c 0x90
195.799804688 12.7001953125 m 1
 195.5 12.7001953125 l 1
 52.099609375 99.599609375 214.400390625 346.099609375 332 195.5 c 1
 329.900390625 261.900390625 332 329 334.400390625 395.900390625 c 1
 315.900390625 388.299804688 182.099609375 395.700195312 213.799804688 425.5 c 0
 257 428.700195312 296.700195312 428.5 336.200195312 445.400390625 c 0
 337.099609375 524.200195312 341.400390625 603.299804688 342.299804688 680.900390625 c 0
 341.900390625 698.400390625 324.900390625 713.299804688 310.200195312 734.799804688 c 0
 296.700195312 776.099609375 428.700195312 746.5 420.299804688 688.299804688 c 0
 400.700195312 621.799804688 411.099609375 554.700195312 408.299804688 484.5 c 1
 458.200195312 523.799804688 546.700195312 573.5 545.900390625 644.400390625 c 0
 551.299804688 649 536.200195312 666 532.200195312 676.200195312 c 0
 524.700195312 738.700195312 641.900390625 685.900390625 611.299804688 625.700195312 c 0
 573.5 568 513 534.400390625 464.200195312 488.099609375 c 1
 562.200195312 501.200195312 665.700195312 536.700195312 763 529.200195312 c 0
 791.200195312 508.900390625 783.799804688 446.700195312 744.900390625 448.5 c 0
 630.700195312 463.599609375 515.200195312 459.5 407.900390625 414.700195312 c 1xb0
 412.799804688 313 413 211.5 415.799804688 109.599609375 c 1xd0
 584.400390625 -23.2998046875 807.099609375 99.7001953125 806.700195312 310.799804688 c 0
 807 313.700195312 810.900390625 314.299804688 812.200195312 311.900390625 c 0
 932.299804688 31.900390625 632.5 -125.299804688 410.900390625 44.5 c 1
 379.599609375 -42.2998046875 258.099609375 -29.2998046875 195.799804688 12.7001953125 c 1
199.700195312 153.700195312 m 1
 199.700195312 153.599609375 l 1
 122.299804688 58.2998046875 267 10.599609375 331.299804688 65 c 0
 331.799804688 74.7998046875 334.299804688 103.400390625 334.299804688 123.099609375 c 0xd0
 293.299804688 182 247.799804688 248 199.700195312 153.700195312 c 1
EndSplineSet
EndChar

StartChar: uniE114
Encoding: 57620 57620 11
Width: 1000
VStem: 217.1 79<24.5671 96.7998>
LayerCount: 2
Fore
SplineSet
710 533 m 1
 709.799804688 533.099609375 l 1
 756.799804688 537.400390625 755.700195312 444.700195312 709.599609375 448.5 c 0
 581 468.599609375 459 451.200195312 337.900390625 404.099609375 c 0
 334.099609375 391.799804688 330 379.5 326 367.299804688 c 1
 675.400390625 395.599609375 619.700195312 11 296.099609375 96.7998046875 c 1
 297 90.2001953125 297.200195312 83.7998046875 298.200195312 78 c 0
 309.599609375 -28.099609375 263.099609375 -19.2001953125 217.099609375 31.400390625 c 1
 203.900390625 148.900390625 251.400390625 280.200195312 285.799804688 394.099609375 c 1
 267.700195312 389 148.299804688 397.799804688 178.700195312 425.5 c 0
 222.700195312 428.900390625 263.700195312 428.5 303.599609375 446.599609375 c 0
 327.599609375 538.099609375 393.099609375 629.200195312 352.900390625 724.599609375 c 0
 359 772.200195312 458.099609375 702.599609375 441.599609375 656.599609375 c 0
 415.099609375 595.900390625 378.799804688 544.200195312 362.400390625 478.099609375 c 1
 416.799804688 517.799804688 510 569.799804688 510.799804688 644.400390625 c 0
 516.200195312 649 501.099609375 666 497.099609375 676.200195312 c 0
 489.5 738.700195312 606.799804688 685.900390625 576.200195312 625.700195312 c 0
 538.400390625 568 477.900390625 534.400390625 429.099609375 488.099609375 c 1
 522 505 616.099609375 524.400390625 710 533 c 1
343.5 325.900390625 m 1
 343.599609375 325.900390625 l 1
 283.200195312 299 296.299804688 224.299804688 292.5 170 c 1
 348 139.700195312 527.700195312 123 526.700195312 219.099609375 c 0
 504.200195312 289.099609375 417.900390625 348.400390625 343.5 325.900390625 c 1
EndSplineSet
EndChar

StartChar: uniE115
Encoding: 57621 57621 12
Width: 1000
HStem: 452.5 80.7998<674.299 712.384>
VStem: 352.6 0.5<666.184 670.43> 709.7 54.7998<57.5996 146.515>
LayerCount: 2
Fore
SplineSet
352.599609375 670.5 m 1
 352.900390625 669 353.400390625 667.599609375 353.099609375 666.099609375 c 1
 352.599609375 667.900390625 352.599609375 669.700195312 352.599609375 670.5 c 1
157 411.099609375 m 2
 156.900390625 411.5 l 2
 133.200195312 437.799804688 257.5 424.799804688 275.099609375 443.099609375 c 0
 299.400390625 516.799804688 332 592.099609375 353.099609375 666.5 c 1
 353.299804688 665.799804688 353.5 665 353.799804688 664.299804688 c 1
 353 665.5 353.799804688 674.900390625 352.599609375 670.900390625 c 1
 349.700195312 683 338.700195312 699.099609375 315.700195312 716.200195312 c 0
 285.599609375 766.400390625 425.400390625 749.5 431.400390625 681.799804688 c 0
 440.200195312 643.400390625 407.799804688 621.200195312 386.5 597.900390625 c 0
 368.700195312 560.5 358.5 520.799804688 347.799804688 480.799804688 c 1
 400.299804688 520.599609375 491.700195312 571.400390625 491.900390625 644.700195312 c 0
 497.299804688 649.299804688 482.200195312 666.299804688 478.200195312 676.5 c 0
 470.599609375 739 587.900390625 686.200195312 557.299804688 626 c 0
 519.5 568.299804688 459 534.700195312 410.200195312 488.400390625 c 1
 503.099609375 505.299804688 597.200195312 524.700195312 691.099609375 533.299804688 c 0
 731 535.700195312 736.799804688 472.200195312 708 452.5 c 0
 698.5 444.299804688 684.400390625 450.5 673.799804688 450.099609375 c 0
 554.299804688 468.400390625 439.5 450.200195312 327.299804688 406.599609375 c 1
 307.599609375 292.599609375 233.5 69 405.099609375 50.7001953125 c 0
 481.900390625 28.400390625 563.599609375 51.099609375 609.400390625 117.299804688 c 0
 650.900390625 155.200195312 668 233.299804688 657.200195312 275.5 c 0
 667.099609375 293.400390625 718.200195312 278.200195312 730.900390625 270.400390625 c 0
 754.700195312 258.400390625 753.5 222.5 760.900390625 199.099609375 c 1
 759.400390625 199.099609375 l 1
 769.400390625 152.400390625 768.599609375 105.799804688 764.5 57.599609375 c 1
 801.599609375 62.5 956.200195312 28.5 867.900390625 -15.5 c 0
 830.400390625 -9 793.900390625 3.900390625 754.700195312 1.599609375 c 0
 655.099609375 -254.700195312 435.5 -4.7001953125 709.700195312 53.099609375 c 0
 711.299804688 84 712.299804688 116.700195312 707.700195312 148.099609375 c 1
 635.400390625 56.900390625 531.099609375 -9.900390625 412.099609375 -8.2998046875 c 0
 189.299804688 -26.599609375 190.200195312 246.700195312 256.5 393.400390625 c 1
 222.200195312 391.299804688 187.099609375 395.700195312 157 411.099609375 c 2
678.200195312 -48.7001953125 m 0
 689.799804688 -34.7001953125 697 -19.099609375 701.700195312 -2.099609375 c 1
 570 -0.900390625 589.700195312 -145.900390625 678.200195312 -48.7001953125 c 0
695.200195312 198 m 1
 695.200195312 198 l 1
EndSplineSet
EndChar

StartChar: uniE116
Encoding: 57622 57622 13
Width: 1000
HStem: 452.3 80.7998<681.799 719.844>
LayerCount: 2
Fore
SplineSet
360.299804688 669.799804688 m 1
 360.700195312 668.599609375 361 667.400390625 360.700195312 666.200195312 c 1
 360.299804688 667.599609375 360.299804688 669 360.299804688 669.799804688 c 1
164.599609375 411.099609375 m 2
 164.299804688 411.299804688 l 2
 140.599609375 437.599609375 264.900390625 424.599609375 282.5 442.900390625 c 0
 306.799804688 516.599609375 339.299804688 591.799804688 360.5 666.299804688 c 1
 360.700195312 665.599609375 360.900390625 664.700195312 361.200195312 664 c 1
 360.599609375 665.299804688 360.900390625 675.900390625 360 669.900390625 c 1
 356.299804688 684.799804688 346.5 697.900390625 323.099609375 716 c 0
 292.900390625 766.099609375 432.799804688 749.5 438.799804688 681.599609375 c 0
 446.799804688 620.099609375 374 612.599609375 355.299804688 480.599609375 c 1
 407.799804688 520.400390625 499.200195312 571.299804688 499.400390625 644.5 c 0
 504.799804688 649.099609375 489.700195312 666.099609375 485.700195312 676.299804688 c 0
 478.099609375 738.799804688 595.400390625 686 564.799804688 625.799804688 c 0
 527 568.099609375 466.5 534.5 417.700195312 488.200195312 c 1
 510.599609375 505.099609375 604.700195312 524.5 698.599609375 533.099609375 c 0
 738.400390625 535.5 744.299804688 472 715.5 452.299804688 c 0
 706 444.099609375 691.900390625 450.299804688 681.299804688 449.900390625 c 0
 561.900390625 468.200195312 447.099609375 450 334.900390625 406.400390625 c 1
 312 308.200195312 289.400390625 202.400390625 316.900390625 105.700195312 c 0
 341.400390625 56 406.799804688 50.2001953125 456.200195312 43.2001953125 c 1
 283.599609375 226.900390625 543.799804688 370.200195312 652.900390625 171.599609375 c 1
 674.200195312 196.200195312 664.700195312 264.5 664.700195312 275.299804688 c 0
 674.700195312 293.299804688 725.599609375 277.900390625 738.400390625 270.200195312 c 0
 762.099609375 258.200195312 761 222.400390625 768.400390625 199 c 1
 768.200195312 199 l 1
 783 162.299804688 785 -100 709.700195312 3.7001953125 c 0
 712.099609375 51.7001953125 721.599609375 100.400390625 715.5 149.200195312 c 1
 644.599609375 57 538.5 -9.7998046875 419.700195312 -8.2998046875 c 0
 196.900390625 -26.2998046875 198 246.599609375 264.099609375 393.400390625 c 1
 229.799804688 391.299804688 194.700195312 395.700195312 164.599609375 411.099609375 c 2
450.599609375 225.5 m 0
 396 140.200195312 528.099609375 2 601.799804688 100.099609375 c 0
 659.799804688 183.200195312 520.299804688 284.900390625 450.599609375 225.5 c 0
EndSplineSet
EndChar

StartChar: uniE117
Encoding: 57623 57623 14
Width: 1000
HStem: 452.3 80.7998<689.4 727.444>
LayerCount: 2
Fore
SplineSet
172.200195312 411.099609375 m 2
 171.900390625 411.299804688 l 2
 148.200195312 437.599609375 272.5 424.599609375 290.099609375 442.900390625 c 0
 314.400390625 516.599609375 346.900390625 591.799804688 368.099609375 666.299804688 c 1
 368.299804688 665.599609375 368.5 664.700195312 368.799804688 664 c 1
 368.200195312 665.299804688 368.5 675.900390625 367.599609375 669.900390625 c 1
 363.900390625 684.799804688 354.099609375 697.900390625 330.700195312 716 c 0
 300.5 766.099609375 440.400390625 749.5 446.400390625 681.599609375 c 0
 454.400390625 620.099609375 381.599609375 612.599609375 362.900390625 480.599609375 c 1
 415.400390625 520.400390625 506.900390625 571.299804688 507 644.5 c 0
 512.400390625 649.099609375 497.299804688 666.099609375 493.299804688 676.299804688 c 0
 485.799804688 738.799804688 603 686 572.400390625 625.799804688 c 0
 534.599609375 568.099609375 474.099609375 534.5 425.299804688 488.200195312 c 1
 518.200195312 505.099609375 612.299804688 524.5 706.200195312 533.099609375 c 0
 746 535.5 751.900390625 472 723.099609375 452.299804688 c 0
 713.599609375 444.099609375 699.5 450.299804688 688.900390625 449.900390625 c 0
 569.5 468.200195312 454.700195312 450 342.5 406.400390625 c 1
 319.599609375 308.200195312 297.099609375 202.400390625 324.5 105.700195312 c 0
 348.099609375 57.099609375 411.099609375 51.5 459.099609375 43.5 c 0
 525.799804688 33.900390625 586 64.7998046875 624.5 117.099609375 c 0
 666 155.099609375 683.200195312 233.099609375 672.299804688 275.299804688 c 0
 682.099609375 293.200195312 733.400390625 278 746 270.200195312 c 0
 769.799804688 258.299804688 768.599609375 222.400390625 776 199 c 1
 775.799804688 199 l 1
 790.599609375 162.299804688 792.599609375 -100 717.299804688 3.7001953125 c 0
 719.700195312 51.7001953125 729.200195312 100.400390625 723.099609375 149.200195312 c 1
 652.200195312 57 546.099609375 -9.7998046875 427.299804688 -8.2998046875 c 0
 204.5 -26.2998046875 205.599609375 246.599609375 271.700195312 393.400390625 c 1
 237.400390625 391.299804688 202.299804688 395.700195312 172.200195312 411.099609375 c 2
367.900390625 669.799804688 m 1
 368.299804688 668.599609375 368.599609375 667.400390625 368.299804688 666.200195312 c 1
 367.900390625 667.599609375 367.900390625 669 367.900390625 669.799804688 c 1
EndSplineSet
EndChar

StartChar: uniE118
Encoding: 57624 57624 15
Width: 1000
HStem: 452.2 80.7998<682.099 720.184>
LayerCount: 2
Fore
SplineSet
164.799804688 411.099609375 m 2
 164.700195312 411.099609375 l 2
 141 437.400390625 265.299804688 424.400390625 282.799804688 442.700195312 c 0
 308.200195312 516.400390625 339.799804688 591.599609375 361.299804688 666 c 1
 361.5 665.099609375 361.799804688 664.299804688 362 664 c 1
 361.400390625 665.900390625 361.799804688 675.200195312 360.900390625 670.400390625 c 1
 355.700195312 689.299804688 341.099609375 702.5 322.799804688 716.799804688 c 0
 297.700195312 772.099609375 456 743.799804688 440.200195312 660.900390625 c 0
 435.200195312 628.900390625 411 617.900390625 394.700195312 597.5 c 0
 376.900390625 560.200195312 366.900390625 520.700195312 356.200195312 480.799804688 c 1
 408.400390625 520.599609375 499.700195312 571.299804688 499.700195312 644.400390625 c 0
 505.099609375 649 490 666 486 676.200195312 c 0
 478.400390625 738.700195312 595.700195312 685.900390625 565.099609375 625.700195312 c 0
 527.299804688 568 466.799804688 534.400390625 418 488.099609375 c 1
 510.900390625 505 605 524.400390625 698.900390625 533 c 0
 738.799804688 535.400390625 744.599609375 471.900390625 715.799804688 452.200195312 c 0
 706.299804688 444 692.200195312 450.200195312 681.599609375 449.799804688 c 0
 562.299804688 468.099609375 447.599609375 450.099609375 335.599609375 406.5 c 1
 307.700195312 267.900390625 240.200195312 40.2998046875 456 43.900390625 c 1
 380.5 108.799804688 374.200195312 262.900390625 499.099609375 267 c 0
 568.400390625 268.599609375 655 217 658.5 142.700195312 c 1
 756.200195312 172 813 10.099609375 727.400390625 -37.900390625 c 0
 674.200195312 -65.5 663 -5.7001953125 708.700195312 16.5 c 0
 732.5 42.7998046875 731.799804688 106.900390625 682.200195312 96.400390625 c 0
 382.700195312 -128.400390625 119.599609375 16.400390625 264.799804688 393.400390625 c 1
 230.400390625 391.299804688 195.099609375 395.599609375 164.799804688 411.099609375 c 2
451.200195312 225.5 m 0
 396.400390625 140.299804688 528.900390625 1.900390625 602.299804688 99.900390625 c 0
 660.400390625 183.099609375 521 284.900390625 451.200195312 225.5 c 0
360.900390625 670.400390625 m 1
 361.200195312 669 361.700195312 667.5 361.400390625 666 c 1
 361 667.5 360.900390625 669.200195312 360.900390625 670.400390625 c 1
EndSplineSet
EndChar

StartChar: uniE119
Encoding: 57625 57625 16
Width: 1000
HStem: 448.4 80.6992<546.927 741.263>
VStem: 223.6 82.2002<10.5777 59.2998>
LayerCount: 2
Fore
SplineSet
792.5 390.700195312 m 1
 792.400390625 390.700195312 l 1
 812.400390625 361.5 754.700195312 313.700195312 735 354.5 c 0
 730.400390625 363.799804688 744.599609375 390.5 732.599609375 414.5 c 1
 765.400390625 427.5 786.299804688 401.400390625 792.5 390.700195312 c 1
804.799804688 257.700195312 m 1
 804.700195312 257.700195312 l 2
 800.099609375 267 814.299804688 293.700195312 802.299804688 317.700195312 c 1
 835.099609375 330.700195312 856 304.599609375 862.200195312 293.900390625 c 0
 882.200195312 264.700195312 824.5 216.900390625 804.799804688 257.700195312 c 1
186.5 411.099609375 m 2
 186.299804688 411.099609375 l 2
 161.5 436.900390625 290.799804688 424.900390625 309 444.400390625 c 0
 329.099609375 509.299804688 359.799804688 572.200195312 370.099609375 640 c 0
 379.5 671.900390625 369.400390625 693.700195312 359.200195312 724.599609375 c 0
 369.400390625 773.400390625 466.200195312 698.400390625 447.5 653.900390625 c 0
 418.099609375 593.799804688 385 541.099609375 367.700195312 475.099609375 c 1
 424.200195312 514.700195312 519.700195312 568 521.299804688 644.299804688 c 0
 526.700195312 648.900390625 511.599609375 665.900390625 507.599609375 676.099609375 c 0
 500 738.599609375 617.299804688 685.799804688 586.700195312 625.599609375 c 0
 548.900390625 567.900390625 488.400390625 534.299804688 439.599609375 488 c 1
 537.599609375 501.099609375 641.099609375 536.599609375 738.400390625 529.099609375 c 0
 766.599609375 508.799804688 759.200195312 446.599609375 720.299804688 448.400390625 c 0
 589.700195312 469.299804688 467.200195312 449.599609375 343.900390625 402.799804688 c 0
 330.799804688 361.5 315.599609375 319.799804688 307.099609375 277.400390625 c 1
 431.700195312 448.799804688 843.200195312 399.900390625 762.599609375 135.099609375 c 0
 736.200195312 39.2998046875 608.400390625 -26.7001953125 527.299804688 14.900390625 c 1
 588.599609375 14 645.799804688 51.599609375 673.400390625 104 c 0
 795.599609375 369.900390625 277.799804688 466.099609375 306.200195312 66.400390625 c 1
 306 64 305.799804688 61.5 306.299804688 59.2998046875 c 1
 305.799804688 59.2998046875 l 1
 308.799804688 -32.599609375 261.700195312 -10.400390625 223.599609375 31.400390625 c 0
 212.900390625 149 256.700195312 279.599609375 292 393.799804688 c 1
 255.799804688 390.799804688 218.400390625 394.799804688 186.5 411.099609375 c 2
EndSplineSet
EndChar

StartChar: uniE11A
Encoding: 57626 57626 17
Width: 1000
HStem: 448.3 80.7002<525.77 720.163>
VStem: 791.4 8.59961<168.754 179.445>
LayerCount: 2
Fore
SplineSet
165.400390625 411.099609375 m 1
 165.400390625 410.900390625 l 1
 143 437.799804688 262.700195312 423.700195312 280.099609375 441.400390625 c 0
 312.900390625 515.900390625 342.400390625 594.599609375 367.400390625 671.599609375 c 0
 372.900390625 688.200195312 304.400390625 722.200195312 331.799804688 737.900390625 c 0
 394.299804688 768 477.099609375 695.900390625 437.200195312 632.099609375 c 0
 397 592.599609375 380 543.799804688 369.799804688 488.900390625 c 1
 417.099609375 527.700195312 502.099609375 575.799804688 500.299804688 644.200195312 c 0
 505.700195312 648.799804688 490.599609375 665.799804688 486.599609375 676 c 0
 479 738.5 596.299804688 685.700195312 565.700195312 625.5 c 0
 527.900390625 567.799804688 467.400390625 534.200195312 418.599609375 487.900390625 c 1
 516.5 501 620 536.5 717.299804688 529 c 0
 745.5 508.700195312 738.099609375 446.5 699.200195312 448.299804688 c 0
 581.5 464.599609375 463.900390625 457.599609375 353.299804688 411.599609375 c 0
 340.799804688 369.900390625 326.299804688 327.599609375 316 284.099609375 c 1
 523.900390625 351.5 603.400390625 66.7001953125 360.700195312 56.099609375 c 1
 498.099609375 35.900390625 747.900390625 -0.2001953125 791.400390625 176.900390625 c 0
 792.099609375 181.700195312 799.700195312 181.200195312 800 176.5 c 0
 819.5 -20.400390625 562.700195312 -29 424.400390625 -4.7998046875 c 0
 223.099609375 -0.7998046875 219.900390625 248.5 264 393.299804688 c 1
 230 391.400390625 195.299804688 395.799804688 165.400390625 411.099609375 c 1
367.5 671.700195312 m 1
 366.799804688 670.799804688 369.299804688 661.299804688 368.799804688 665.200195312 c 0
 368.599609375 667.299804688 368.099609375 669.599609375 367.5 671.700195312 c 1
301.599609375 199.700195312 m 0
 259.900390625 60.900390625 470.099609375 54.2001953125 489.099609375 170.599609375 c 0
 475.400390625 245.299804688 331 280 301.599609375 199.700195312 c 0
EndSplineSet
EndChar

StartChar: uniE11B
Encoding: 57627 57627 18
Width: 1000
HStem: 452.1 80.8008<683.499 721.584>
VStem: 779.8 8.60059<168.754 179.445>
LayerCount: 2
Fore
SplineSet
540.099609375 259.299804688 m 1
 540 259.299804688 l 2
 535.400390625 268.599609375 549.599609375 295.299804688 537.599609375 319.299804688 c 1
 570.400390625 332.299804688 591.299804688 306.200195312 597.5 295.5 c 0
 617.5 266.299804688 559.799804688 218.5 540.099609375 259.299804688 c 1
658.599609375 259.299804688 m 1
 658.5 259.299804688 l 2
 653.900390625 268.599609375 668.099609375 295.299804688 656.099609375 319.299804688 c 1
 688.900390625 332.299804688 709.799804688 306.200195312 716 295.5 c 0
 736 266.299804688 678.299804688 218.5 658.599609375 259.299804688 c 1
166.400390625 411.099609375 m 2
 166.200195312 411 l 2
 146 438.700195312 250.700195312 423 266.599609375 437 c 0
 299.599609375 513.200195312 330.400390625 593 355.700195312 671.700195312 c 0
 361.200195312 688.299804688 292.700195312 722.299804688 320.099609375 738 c 0
 382.599609375 768.099609375 465.400390625 696 425.5 632.200195312 c 0
 382.799804688 590.700195312 366.700195312 537.700195312 356.200195312 479.900390625 c 1
 409 519.700195312 500.799804688 570.799804688 501.099609375 644.299804688 c 0
 506.5 648.900390625 491.400390625 665.900390625 487.400390625 676.099609375 c 0
 479.799804688 738.599609375 597.099609375 685.799804688 566.5 625.599609375 c 0
 528.700195312 567.900390625 468.200195312 534.299804688 419.400390625 488 c 1
 512.299804688 504.900390625 606.400390625 524.299804688 700.299804688 532.900390625 c 0
 740.200195312 535.299804688 746 471.799804688 717.200195312 452.099609375 c 0
 707.700195312 443.900390625 693.599609375 450.099609375 683 449.700195312 c 0
 565.200195312 467.5 451.099609375 451 340.5 407.400390625 c 0
 328.099609375 367.299804688 314.5 326.099609375 304.400390625 284.099609375 c 1
 512.299804688 351.5 591.799804688 66.7001953125 349.099609375 56.099609375 c 1
 486.5 35.900390625 736.299804688 -0.2001953125 779.799804688 176.900390625 c 0
 780.5 181.700195312 788.099609375 181.200195312 788.400390625 176.5 c 0
 807.900390625 -20.400390625 551.099609375 -29 412.799804688 -4.7998046875 c 0
 211.700195312 -0.7998046875 208.299804688 248.200195312 252.299804688 392.900390625 c 1
 222.400390625 392.700195312 192.5 397.700195312 166.400390625 411.099609375 c 2
356 671.700195312 m 1
 355.299804688 670.799804688 357.799804688 661.299804688 357.299804688 665.200195312 c 0
 357.099609375 667.299804688 356.599609375 669.599609375 356 671.700195312 c 1
290.099609375 199.700195312 m 0
 248.400390625 60.900390625 458.599609375 54.2001953125 477.599609375 170.599609375 c 0
 463.900390625 245.299804688 319.5 280 290.099609375 199.700195312 c 0
EndSplineSet
EndChar

StartChar: uniE11C
Encoding: 57628 57628 19
Width: 1000
HStem: 3.40039 49.2998<480.041 549.3> 448.4 80.6992<578.171 772.563>
VStem: 346.4 82.1992<91.8349 158.899 189.3 353.227> 349.2 70.0996<193.319 397 487.9 685.446> 549.3 73.7002<52.8707 135.756>
LayerCount: 2
Fore
SplineSet
392 0.2998046875 m 2xe8
 392.099609375 0.099609375 l 1
 320.599609375 -50.2998046875 178.200195312 -31.599609375 140.900390625 54.5 c 0
 89.5 174.599609375 267.700195312 330.700195312 346.700195312 189.299804688 c 1
 347.299804688 258.299804688 348.200195312 327.599609375 349.200195312 397 c 1
 329.700195312 388.299804688 189.799804688 393.5 220.799804688 425.400390625 c 0
 266.099609375 429.299804688 309.900390625 427.599609375 350 449.200195312 c 0
 354.099609375 522.599609375 347.099609375 619 356.700195312 681.299804688 c 0
 357.299804688 698.799804688 334.599609375 718.900390625 322.900390625 734.700195312 c 0
 306.599609375 775.5 449.099609375 745.599609375 433 672.900390625 c 0
 411.400390625 612.400390625 424.400390625 550.799804688 420.599609375 487.900390625 c 1
 468.299804688 526.799804688 554.299804688 575.400390625 552.700195312 644.299804688 c 0
 558.099609375 648.900390625 543 665.900390625 539 676.099609375 c 0
 531.400390625 738.599609375 648.700195312 685.799804688 618.099609375 625.599609375 c 0
 580.299804688 567.900390625 519.799804688 534.299804688 471 488 c 1
 568.900390625 501.099609375 672.400390625 536.599609375 769.700195312 529.099609375 c 0
 797.900390625 508.799804688 790.5 446.599609375 751.599609375 448.400390625 c 0
 639.299804688 462.900390625 525.099609375 460.200195312 419.299804688 416.099609375 c 1xd8
 418.799804688 313 424.799804688 209.5 428.599609375 106 c 0
 465.200195312 80.2001953125 503.799804688 56.599609375 549.299804688 52.7001953125 c 1
 550.299804688 97.400390625 557.5 143.099609375 582.700195312 181.900390625 c 0
 633.200195312 245 781.799804688 277.099609375 831.700195312 198.599609375 c 0
 893.799804688 24.900390625 747.700195312 -22.099609375 603.299804688 -0.5 c 0
 597.400390625 -23.599609375 594.700195312 -46.7998046875 603.299804688 -69.099609375 c 0
 593.700195312 -100.599609375 555.700195312 -9.5 555.5 3.400390625 c 0
 509 5.400390625 461.200195312 17.7998046875 423.5 46.7998046875 c 1
 418.599609375 28.2001953125 409.299804688 11.2998046875 392 0.2998046875 c 2xe8
623 65.900390625 m 2
 623 65.7998046875 l 2
 621.599609375 59.599609375 619.799804688 53.2998046875 617.900390625 46.900390625 c 1
 688.299804688 50.2001953125 794.400390625 42.900390625 802.099609375 136.099609375 c 0
 803.299804688 152.599609375 801.799804688 175.700195312 788.5 186.799804688 c 0
 746.099609375 197.799804688 685.5 172.400390625 651.299804688 147.599609375 c 0
 635.5 126.5 631.5 91.900390625 623 65.900390625 c 2
259.200195312 197 m 2
 259.099609375 197 l 1
 153.700195312 125.5 238.400390625 11.5 343.700195312 66.7998046875 c 0
 346.099609375 81.599609375 346.400390625 107.799804688 346.400390625 133 c 0xe8
 324.900390625 159.099609375 288.299804688 209.799804688 259.200195312 197 c 2
EndSplineSet
EndChar

StartChar: uniE11D
Encoding: 57629 57629 20
Width: 1000
HStem: 422.1 80.8008<660.995 699.084>
LayerCount: 2
Fore
SplineSet
833.299804688 262.700195312 m 1
 833.400390625 262.700195312 l 2
 842.700195312 232.700195312 802.700195312 213.099609375 784.599609375 238.299804688 c 0
 745.700195312 288.299804688 736.200195312 357.799804688 668.900390625 378.900390625 c 0
 662.400390625 382.099609375 663.200195312 392.200195312 669.900390625 394.400390625 c 0
 753.700195312 418.5 809.200195312 330.799804688 833.299804688 262.700195312 c 1
143.700195312 381.099609375 m 0
 119.099609375 406.900390625 249.200195312 394.900390625 267.799804688 414.900390625 c 0
 290.299804688 488.400390625 324.900390625 559.400390625 337.5 635.799804688 c 0
 346.900390625 667.700195312 336.799804688 689.5 326.599609375 720.400390625 c 0
 336.799804688 769.200195312 433.599609375 694.200195312 414.900390625 649.700195312 c 0
 380.099609375 582.700195312 346.700195312 520.099609375 326.700195312 446 c 1
 382.5 485.700195312 477.200195312 538.5 478.599609375 614.299804688 c 0
 484 618.900390625 468.900390625 635.900390625 464.900390625 646.099609375 c 0
 457.299804688 708.599609375 574.599609375 655.799804688 544 595.599609375 c 0
 506.200195312 537.900390625 445.700195312 504.299804688 396.900390625 458 c 1
 489.799804688 474.900390625 583.900390625 494.299804688 677.799804688 502.900390625 c 0
 717.700195312 505.299804688 723.5 441.799804688 694.700195312 422.099609375 c 0
 685.200195312 413.900390625 671 420.099609375 660.5 419.700195312 c 0
 536.299804688 439.700195312 420.099609375 416.599609375 303 373.200195312 c 0
 292.099609375 339.799804688 281 306.099609375 274.200195312 271.799804688 c 1
 410.200195312 459.700195312 821.099609375 408.400390625 728.5 126.200195312 c 0
 751.299804688 99 779 71.099609375 797.099609375 40.400390625 c 0
 806.700195312 18.900390625 796.599609375 -6.599609375 774.599609375 -15.2998046875 c 0
 727.5 -31.5 709.900390625 26.099609375 685.599609375 54.599609375 c 1
 621 -26.2998046875 488.400390625 -32.5 401.5 26.2001953125 c 0
 262.700195312 167 508.700195312 325.599609375 663.700195312 186.5 c 1
 665.5 327.700195312 442.5 366.900390625 343.400390625 288 c 0
 280.5 234.700195312 276.900390625 139.900390625 273.400390625 62.2001953125 c 1
 273.200195312 59.7998046875 272.900390625 57.2998046875 273.5 55.099609375 c 1
 273 55.099609375 l 1
 276.099609375 -36.7998046875 229 -14.599609375 190.900390625 27.2001953125 c 0
 179.5 40.599609375 185.099609375 56 189.299804688 73.7001953125 c 0
 198.5 172.299804688 217.5 270.799804688 251 363.900390625 c 1
 214.299804688 360.599609375 176.099609375 364.5 143.700195312 381.099609375 c 0
562.099609375 46.5 m 0
 596.599609375 57.2998046875 624.299804688 80.900390625 642.099609375 110.200195312 c 0
 463.900390625 332.5 238.799804688 -4.5 562.099609375 46.5 c 0
EndSplineSet
EndChar

StartChar: uniE11E
Encoding: 57630 57630 21
Width: 1000
HStem: 418.3 80.7002<530.744 725.163>
VStem: 209.5 85.9004<10.9915 55.0996> 295.8 456.4<59.7998 395.7>
LayerCount: 2
Fore
SplineSet
843.799804688 262.700195312 m 1
 843.900390625 262.700195312 l 2
 853.200195312 232.700195312 813.200195312 213.099609375 795.099609375 238.299804688 c 0
 756.200195312 288.299804688 746.700195312 357.799804688 679.400390625 378.900390625 c 0
 672.900390625 382.099609375 673.700195312 392.200195312 680.400390625 394.400390625 c 0
 764.200195312 418.5 819.700195312 330.799804688 843.799804688 262.700195312 c 1
170.5 381.099609375 m 2
 170.200195312 380.900390625 l 2
 146.5 407.299804688 271.599609375 394.299804688 289.299804688 412.900390625 c 0
 311.900390625 487 347 558.599609375 359.700195312 635.700195312 c 0
 369.099609375 667.599609375 359 689.400390625 348.799804688 720.299804688 c 0
 359 769.099609375 455.799804688 694.099609375 437.099609375 649.599609375 c 0
 401.700195312 581.799804688 368.299804688 518.099609375 348 443.099609375 c 1
 406.099609375 482.5 503 536.799804688 505.200195312 614.200195312 c 0
 510.599609375 618.799804688 495.5 635.799804688 491.5 646 c 0
 483.900390625 708.5 601.200195312 655.700195312 570.599609375 595.5 c 0
 532.799804688 537.799804688 472.299804688 504.200195312 423.5 457.900390625 c 1
 521.5 471 625 506.5 722.299804688 499 c 0
 750.5 478.700195312 743.099609375 416.5 704.200195312 418.299804688 c 0
 572.400390625 439.700195312 449.5 418.700195312 324.900390625 372 c 0
 314.200195312 339.400390625 303.400390625 306.5 296.700195312 273.200195312 c 1
 421.299804688 444.599609375 832.799804688 395.700195312 752.200195312 130.900390625 c 0
 725.799804688 35.099609375 598 -30.900390625 516.900390625 10.7001953125 c 1
 578.200195312 9.7998046875 635.400390625 47.400390625 663 99.7998046875 c 0
 785.200195312 365.700195312 267.400390625 461.900390625 295.799804688 62.2001953125 c 1
 295.599609375 59.7998046875 295.400390625 57.2998046875 295.900390625 55.099609375 c 1
 295.400390625 55.099609375 l 1
 298.5 -36.7998046875 251.400390625 -14.599609375 213.299804688 27.2001953125 c 0
 204.799804688 39.5 204.799804688 47 209.5 64.099609375 c 0
 221.799804688 165.799804688 238 267.299804688 273.299804688 363.599609375 c 1
 237.900390625 361 201.599609375 365.200195312 170.5 381.099609375 c 2
EndSplineSet
EndChar

StartChar: uniE11F
Encoding: 57631 57631 22
Width: 1000
HStem: 365.1 48.4004<232.047 346.3> 418.3 80.7002<588.713 782.063>
VStem: 344.9 83.7998<93.471 151.814 191.2 353.182> 346.3 75.2002<192.341 365.1 451.8 652.054>
LayerCount: 2
Fore
SplineSet
644.700195312 370.400390625 m 2xc0
 644.700195312 370.299804688 l 2
 679.299804688 361.599609375 714 353.700195312 745.200195312 336.5 c 0
 772.400390625 321.099609375 756.200195312 279.099609375 726 285.5 c 0
 663.5 295.799804688 609.299804688 340.400390625 545.599609375 310.099609375 c 0
 500.299804688 327.599609375 621 388.200195312 644.700195312 370.400390625 c 2xc0
353.5 678.400390625 m 0
 352.700195312 679.299804688 356.099609375 674.799804688 355.099609375 677.400390625 c 0
 354.5 677.900390625 353.799804688 678.200195312 353.5 678.400390625 c 0
822.799804688 309.200195312 m 1
 822.599609375 309 l 1
 949.099609375 31.7998046875 647.099609375 -131.5 423.599609375 40.099609375 c 1
 374.700195312 -80.2001953125 154.099609375 -19.7998046875 153.400390625 103.200195312 c 0
 136.5 209.099609375 279.700195312 292.200195312 344.900390625 191.200195312 c 1xe0
 343 248.799804688 344.299804688 307 346.299804688 365.099609375 c 1
 326.799804688 358.799804688 200.599609375 365.200195312 230.099609375 395.299804688 c 0
 271.700195312 398.599609375 309.900390625 397.799804688 348.099609375 413.5 c 0
 350.200195312 501.599609375 353.700195312 589.700195312 355.200195312 676.5 c 0
 354.799804688 694 337.799804688 708.900390625 323.099609375 730.400390625 c 0
 309.599609375 771.799804688 441.700195312 742.099609375 433.200195312 683.900390625 c 0
 412.200195312 610.5 425.099609375 527 420.700195312 451.799804688 c 1
 472.099609375 491.5 562.400390625 541.799804688 562.200195312 614.200195312 c 0
 567.599609375 618.799804688 552.5 635.799804688 548.5 646 c 0
 540.900390625 708.5 658.200195312 655.700195312 627.599609375 595.5 c 0
 589.799804688 537.799804688 529.299804688 504.200195312 480.5 457.900390625 c 1
 578.400390625 471 681.900390625 506.5 779.200195312 499 c 0
 807.400390625 478.700195312 800 416.5 761.099609375 418.299804688 c 0
 645.900390625 433.700195312 529.799804688 428.799804688 421.5 383.599609375 c 1xd0
 427.099609375 290.900390625 425.400390625 198.200195312 428.700195312 105.299804688 c 1xe0
 612 -28.900390625 809.900390625 95.5 822.799804688 309.200195312 c 1
344.700195312 62.599609375 m 0
 343.700195312 74.7001953125 348 100.400390625 347.200195312 119 c 0
 306.200195312 178 260.599609375 243.900390625 212.599609375 149.599609375 c 0
 133 48.900390625 287.599609375 7.400390625 344.700195312 62.599609375 c 0
EndSplineSet
EndChar

StartChar: uniE120
Encoding: 57632 57632 23
Width: 1000
HStem: 418.4 80.6992<546.145 740.563>
VStem: 230.2 79<20.3669 92.5996>
LayerCount: 2
Fore
SplineSet
756 287.5 m 0
 775.099609375 262.700195312 743.700195312 230.299804688 718.400390625 248 c 0
 664.900390625 281.900390625 632.400390625 344 561.900390625 341 c 0
 554.799804688 341.799804688 552.099609375 351.5 557.599609375 355.900390625 c 0
 628.299804688 407 710.200195312 343.400390625 756 287.5 c 0
185.700195312 381.099609375 m 2
 185.5 381.099609375 l 2
 160.599609375 406.900390625 288.700195312 394.799804688 306.599609375 413.799804688 c 0
 331.400390625 514.5 407.5 615.5 365.799804688 720.400390625 c 0
 371.900390625 768 471 698.400390625 454.5 652.400390625 c 0
 421.599609375 583.5 384.900390625 520.099609375 365.400390625 444.299804688 c 1
 422.700195312 483.799804688 518.700195312 537.5 520.599609375 614.299804688 c 0
 526 618.900390625 510.900390625 635.900390625 506.900390625 646.099609375 c 0
 499.299804688 708.599609375 616.599609375 655.799804688 586 595.599609375 c 0
 548.200195312 537.900390625 487.700195312 504.299804688 438.900390625 458 c 1
 536.900390625 471.099609375 640.400390625 506.599609375 737.700195312 499.099609375 c 0
 765.900390625 478.799804688 758.5 416.599609375 719.599609375 418.400390625 c 0
 588.599609375 439.5 465.900390625 419.400390625 342.200195312 372.599609375 c 0
 341.200195312 369.400390625 340.099609375 366.299804688 339.099609375 363.099609375 c 1
 688.5 391.400390625 632.799804688 6.7001953125 309.200195312 92.599609375 c 1
 310.099609375 86 310.299804688 79.599609375 311.299804688 73.7998046875 c 0
 322.700195312 -32.2998046875 276.200195312 -23.400390625 230.200195312 27.2001953125 c 0
 217.099609375 135.299804688 259.5 258.200195312 290.299804688 363.700195312 c 1
 254.400390625 360.900390625 217.299804688 364.900390625 185.700195312 381.099609375 c 2
308.5 238.900390625 m 0
 306.299804688 214.700195312 305.299804688 190.299804688 305.299804688 165.799804688 c 0
 360.700195312 135.5 540.5 118.799804688 539.5 214.900390625 c 0
 516 319.400390625 311.200195312 388.900390625 308.5 238.900390625 c 0
EndSplineSet
EndChar

StartChar: uniE121
Encoding: 57633 57633 24
Width: 1000
HStem: 452.3 80.7998<677.799 715.844>
LayerCount: 2
Fore
SplineSet
160.599609375 411.099609375 m 2
 160.299804688 411.299804688 l 2
 136.599609375 437.599609375 260.900390625 424.599609375 278.5 442.900390625 c 0
 302.799804688 516.599609375 335.299804688 591.799804688 356.5 666.299804688 c 1
 356.700195312 665.599609375 356.900390625 664.700195312 357.200195312 664 c 1
 356.599609375 665.299804688 356.900390625 675.900390625 356 669.900390625 c 1
 352.299804688 684.799804688 342.5 697.900390625 319.099609375 716 c 0
 288.900390625 766.099609375 428.799804688 749.5 434.799804688 681.599609375 c 0
 442.799804688 620.099609375 370 612.599609375 351.299804688 480.599609375 c 1
 403.799804688 520.400390625 495.200195312 571.299804688 495.400390625 644.5 c 0
 500.799804688 649.099609375 485.700195312 666.099609375 481.700195312 676.299804688 c 0
 474.099609375 738.799804688 591.400390625 686 560.799804688 625.799804688 c 0
 523 568.099609375 462.5 534.5 413.700195312 488.200195312 c 1
 506.599609375 505.099609375 600.700195312 524.5 694.599609375 533.099609375 c 0
 734.400390625 535.5 740.299804688 472 711.5 452.299804688 c 0
 702 444.099609375 687.900390625 450.299804688 677.299804688 449.900390625 c 0
 557.900390625 468.200195312 443.099609375 450 330.900390625 406.400390625 c 1
 308 308.200195312 285.5 202.400390625 312.900390625 105.700195312 c 0
 336.5 57.099609375 399.5 51.5 447.5 43.5 c 0
 514.200195312 33.900390625 574.400390625 64.7998046875 612.900390625 117.099609375 c 0
 654.400390625 155.099609375 671.599609375 233.099609375 660.700195312 275.299804688 c 0
 670.5 293.200195312 721.799804688 278 734.400390625 270.200195312 c 0
 758.200195312 258.299804688 757 222.400390625 764.400390625 199 c 1
 764.200195312 199 l 1
 779 162.299804688 781 -100 705.700195312 3.7001953125 c 0
 708.099609375 51.7001953125 717.599609375 100.400390625 711.5 149.200195312 c 1
 640.599609375 57 534.5 -9.7998046875 415.700195312 -8.2998046875 c 0
 192.900390625 -26.2998046875 194 246.599609375 260.099609375 393.400390625 c 1
 225.799804688 391.299804688 190.700195312 395.700195312 160.599609375 411.099609375 c 2
356.299804688 669.799804688 m 1
 356.700195312 668.599609375 357 667.400390625 356.700195312 666.200195312 c 1
 356.299804688 667.599609375 356.299804688 669 356.299804688 669.799804688 c 1
801.799804688 317.5 m 0
 820.900390625 292.700195312 789.5 260.299804688 764.200195312 278 c 0
 710.700195312 311.900390625 678.200195312 374 607.700195312 371 c 0
 600.599609375 371.799804688 597.900390625 381.5 603.400390625 385.900390625 c 0
 674.099609375 437 756 373.400390625 801.799804688 317.5 c 0
EndSplineSet
EndChar

StartChar: uniE122
Encoding: 57634 57634 25
Width: 1000
Flags: W
HStem: 452.1 80.8008<687.999 726.044>
VStem: 204.2 85.8994<15.0911 59.2002 59.3035 207.682>
LayerCount: 2
Fore
SplineSet
821.400390625 729.400390625 m 4
 940.299804688 705.299804688 876.700195312 527.200195312 768.700195312 577.099609375 c 4
 681.599609375 617 728.5 753.400390625 821.400390625 729.400390625 c 4
852.599609375 637.599609375 m 4
 874 704.5 771.5 735.700195312 753 670.799804688 c 4
 729.700195312 606.799804688 836.700195312 562.400390625 852.599609375 637.599609375 c 4
170.700195312 411.099609375 m 2
 170.599609375 411.099609375 l 2
 145.900390625 436.900390625 275.400390625 424.900390625 293.700195312 444.5 c 0
 313.700195312 509.400390625 344.299804688 572.200195312 354.599609375 639.900390625 c 0
 364 671.799804688 353.900390625 693.599609375 343.700195312 724.5 c 0
 353.900390625 773.299804688 450.700195312 698.299804688 432 653.799804688 c 0
 402.599609375 593.799804688 369.5 541.099609375 352.200195312 475.200195312 c 1
 408.700195312 514.799804688 504 568.099609375 505.599609375 644.299804688 c 0
 511 648.900390625 495.900390625 665.900390625 491.900390625 676.099609375 c 0
 484.299804688 738.599609375 601.599609375 685.799804688 571 625.599609375 c 0
 533.200195312 567.900390625 472.700195312 534.299804688 423.900390625 488 c 1
 516.799804688 504.900390625 610.900390625 524.299804688 704.799804688 532.900390625 c 0
 744.599609375 535.299804688 750.5 471.799804688 721.700195312 452.099609375 c 0
 712.200195312 443.900390625 698.099609375 450.099609375 687.5 449.700195312 c 0
 562.599609375 469.900390625 446.200195312 446.200195312 328.400390625 402.799804688 c 0
 315.099609375 361.099609375 299.799804688 318.900390625 291.299804688 275.900390625 c 1
 427.299804688 463.799804688 838.200195312 412.5 745.599609375 130.299804688 c 0
 768.400390625 103.099609375 796.099609375 75.2001953125 814.200195312 44.5 c 0
 823.799804688 23 813.700195312 -2.5 791.700195312 -11.2001953125 c 0
 744.599609375 -27.400390625 727 30.2001953125 702.700195312 58.7001953125 c 1
 638.099609375 -22.2001953125 505.5 -28.400390625 418.599609375 30.2998046875 c 0
 279.799804688 171.099609375 525.799804688 329.700195312 680.799804688 190.599609375 c 1
 682.599609375 331.799804688 459.599609375 371 360.5 292.099609375 c 0
 297.599609375 238.799804688 294 144 290.5 66.2998046875 c 1
 290.299804688 63.900390625 290 61.400390625 290.599609375 59.2001953125 c 1
 290.099609375 59.2001953125 l 1
 293.200195312 -32.7001953125 246.099609375 -10.5 208 31.2998046875 c 0
 199.5 43.599609375 199.5 51.099609375 204.200195312 68.2001953125 c 0
 216.799804688 178.799804688 237.5 289.299804688 276.599609375 393.799804688 c 1
 240.299804688 390.799804688 202.700195312 394.700195312 170.700195312 411.099609375 c 2
579.299804688 50.7001953125 m 0
 613.799804688 61.5 641.5 85.099609375 659.299804688 114.400390625 c 0
 481.099609375 336.700195312 256 -0.2998046875 579.299804688 50.7001953125 c 0
EndSplineSet
EndChar

StartChar: uniE123
Encoding: 57635 57635 26
Width: 1000
Flags: W
HStem: 452.2 80.7998<704.9 742.944>
VStem: 230.5 82.2002<10.5777 59.2998>
LayerCount: 2
Fore
SplineSet
821.400390625 729.400390625 m 4
 940.299804688 705.299804688 876.700195312 527.200195312 768.700195312 577.099609375 c 4
 681.599609375 617 728.5 753.400390625 821.400390625 729.400390625 c 4
852.599609375 637.599609375 m 4
 874 704.5 771.5 735.700195312 753 670.799804688 c 4
 729.700195312 606.799804688 836.700195312 562.400390625 852.599609375 637.599609375 c 4
187.700195312 411.099609375 m 2
 187.5 411.099609375 l 2
 162 437.099609375 298.700195312 424.5 317.099609375 447.700195312 c 0
 336.799804688 511.5 367 573.400390625 377 640 c 0
 386.400390625 671.900390625 376.299804688 693.700195312 366.099609375 724.599609375 c 0
 376.299804688 773.400390625 473.099609375 698.400390625 454.400390625 653.900390625 c 0
 425.799804688 594.900390625 392.799804688 543.799804688 375.900390625 479.099609375 c 1
 429.5 518.799804688 521.900390625 570.400390625 522.5 644.400390625 c 0
 527.900390625 649 512.799804688 666 508.799804688 676.200195312 c 0
 501.200195312 738.700195312 618.5 685.900390625 587.900390625 625.700195312 c 0
 550.099609375 568 489.599609375 534.400390625 440.799804688 488.099609375 c 1
 533.700195312 505 627.799804688 524.400390625 721.700195312 533 c 0
 761.5 535.400390625 767.400390625 471.900390625 738.599609375 452.200195312 c 0
 729.099609375 444 715 450.200195312 704.400390625 449.799804688 c 0
 582.099609375 469.099609375 466.400390625 448.099609375 351.299804688 404.400390625 c 0
 338 362.599609375 322.700195312 320.400390625 314 277.400390625 c 1
 438.599609375 448.799804688 850.099609375 399.900390625 769.5 135.099609375 c 0
 743.099609375 39.2998046875 615.299804688 -26.7001953125 534.200195312 14.900390625 c 1
 595.5 14 652.700195312 51.599609375 680.299804688 104 c 0
 802.5 369.900390625 284.700195312 466.099609375 313.099609375 66.400390625 c 1
 312.900390625 64 312.700195312 61.5 313.200195312 59.2998046875 c 1
 312.700195312 59.2998046875 l 1
 315.700195312 -32.599609375 268.599609375 -10.400390625 230.5 31.400390625 c 0
 219.799804688 149.200195312 263.700195312 280 299.099609375 394.299804688 c 1
 261.099609375 390.299804688 221.299804688 393.900390625 187.700195312 411.099609375 c 2
EndSplineSet
EndChar

StartChar: uniE124
Encoding: 57636 57636 27
Width: 1000
Flags: W
HStem: 448.5 80.7002<571.444 765.863>
VStem: 334.3 81.5<97.8849 153.249 195.5 357.511> 334.4 73.5<200.264 395.9 484.5 677.262> 806.7 5.5<310.934 311.9>
LayerCount: 2
Fore
SplineSet
821.400390625 729.400390625 m 4x90
 940.299804688 705.299804688 876.700195312 527.200195312 768.700195312 577.099609375 c 4
 681.599609375 617 728.5 753.400390625 821.400390625 729.400390625 c 4x90
852.599609375 637.599609375 m 4
 874 704.5 771.5 735.700195312 753 670.799804688 c 4
 729.700195312 606.799804688 836.700195312 562.400390625 852.599609375 637.599609375 c 4
340.700195312 682.5 m 0
 339.900390625 683.5 343.299804688 678.900390625 342.299804688 681.5 c 0
 341.700195312 682 341 682.299804688 340.700195312 682.5 c 0
195.799804688 12.7001953125 m 1
 195.5 12.7001953125 l 1
 52.099609375 99.599609375 214.400390625 346.099609375 332 195.5 c 1
 329.900390625 261.900390625 332 329 334.400390625 395.900390625 c 1
 315.900390625 388.299804688 182.099609375 395.700195312 213.799804688 425.5 c 0
 257 428.700195312 296.700195312 428.5 336.200195312 445.400390625 c 0
 337.099609375 524.200195312 341.400390625 603.299804688 342.299804688 680.900390625 c 0
 341.900390625 698.400390625 324.900390625 713.299804688 310.200195312 734.799804688 c 0
 296.700195312 776.099609375 428.700195312 746.5 420.299804688 688.299804688 c 0
 400.700195312 621.799804688 411.099609375 554.700195312 408.299804688 484.5 c 1
 458.200195312 523.799804688 546.700195312 573.5 545.900390625 644.400390625 c 0
 551.299804688 649 536.200195312 666 532.200195312 676.200195312 c 0
 524.700195312 738.700195312 641.900390625 685.900390625 611.299804688 625.700195312 c 0
 573.5 568 513 534.400390625 464.200195312 488.099609375 c 1
 562.200195312 501.200195312 665.700195312 536.700195312 763 529.200195312 c 0
 791.200195312 508.900390625 783.799804688 446.700195312 744.900390625 448.5 c 0
 630.700195312 463.599609375 515.200195312 459.5 407.900390625 414.700195312 c 1xb0
 412.799804688 313 413 211.5 415.799804688 109.599609375 c 1xd0
 584.400390625 -23.2998046875 807.099609375 99.7001953125 806.700195312 310.799804688 c 0
 807 313.700195312 810.900390625 314.299804688 812.200195312 311.900390625 c 0
 932.299804688 31.900390625 632.5 -125.299804688 410.900390625 44.5 c 1
 379.599609375 -42.2998046875 258.099609375 -29.2998046875 195.799804688 12.7001953125 c 1
199.700195312 153.700195312 m 1
 199.700195312 153.599609375 l 1
 122.299804688 58.2998046875 267 10.599609375 331.299804688 65 c 0
 331.799804688 74.7998046875 334.299804688 103.400390625 334.299804688 123.099609375 c 0xd0
 293.299804688 182 247.799804688 248 199.700195312 153.700195312 c 1
EndSplineSet
EndChar

StartChar: uniE125
Encoding: 57637 57637 28
Width: 1000
Flags: W
VStem: 217.1 79<24.5671 96.7998>
LayerCount: 2
Fore
SplineSet
821.400390625 729.400390625 m 4
 940.299804688 705.299804688 876.700195312 527.200195312 768.700195312 577.099609375 c 4
 681.599609375 617 728.5 753.400390625 821.400390625 729.400390625 c 4
852.599609375 637.599609375 m 4
 874 704.5 771.5 735.700195312 753 670.799804688 c 4
 729.700195312 606.799804688 836.700195312 562.400390625 852.599609375 637.599609375 c 4
710 533 m 1
 709.799804688 533.099609375 l 1
 756.799804688 537.400390625 755.700195312 444.700195312 709.599609375 448.5 c 0
 581 468.599609375 459 451.200195312 337.900390625 404.099609375 c 0
 334.099609375 391.799804688 330 379.5 326 367.299804688 c 1
 675.400390625 395.599609375 619.700195312 11 296.099609375 96.7998046875 c 1
 297 90.2001953125 297.200195312 83.7998046875 298.200195312 78 c 0
 309.599609375 -28.099609375 263.099609375 -19.2001953125 217.099609375 31.400390625 c 1
 203.900390625 148.900390625 251.400390625 280.200195312 285.799804688 394.099609375 c 1
 267.700195312 389 148.299804688 397.799804688 178.700195312 425.5 c 0
 222.700195312 428.900390625 263.700195312 428.5 303.599609375 446.599609375 c 0
 327.599609375 538.099609375 393.099609375 629.200195312 352.900390625 724.599609375 c 0
 359 772.200195312 458.099609375 702.599609375 441.599609375 656.599609375 c 0
 415.099609375 595.900390625 378.799804688 544.200195312 362.400390625 478.099609375 c 1
 416.799804688 517.799804688 510 569.799804688 510.799804688 644.400390625 c 0
 516.200195312 649 501.099609375 666 497.099609375 676.200195312 c 0
 489.5 738.700195312 606.799804688 685.900390625 576.200195312 625.700195312 c 0
 538.400390625 568 477.900390625 534.400390625 429.099609375 488.099609375 c 1
 522 505 616.099609375 524.400390625 710 533 c 1
343.5 325.900390625 m 1
 343.599609375 325.900390625 l 1
 283.200195312 299 296.299804688 224.299804688 292.5 170 c 1
 348 139.700195312 527.700195312 123 526.700195312 219.099609375 c 0
 504.200195312 289.099609375 417.900390625 348.400390625 343.5 325.900390625 c 1
EndSplineSet
EndChar

StartChar: uniE126
Encoding: 57638 57638 29
Width: 1000
Flags: W
HStem: 452.5 80.7998<674.299 712.384>
VStem: 352.6 0.5<666.184 670.43> 709.7 54.7998<57.5996 146.515>
LayerCount: 2
Fore
SplineSet
821.400390625 729.400390625 m 4
 940.299804688 705.299804688 876.700195312 527.200195312 768.700195312 577.099609375 c 4
 681.599609375 617 728.5 753.400390625 821.400390625 729.400390625 c 4
852.599609375 637.599609375 m 4
 874 704.5 771.5 735.700195312 753 670.799804688 c 4
 729.700195312 606.799804688 836.700195312 562.400390625 852.599609375 637.599609375 c 4
352.599609375 670.5 m 1
 352.900390625 669 353.400390625 667.599609375 353.099609375 666.099609375 c 1
 352.599609375 667.900390625 352.599609375 669.700195312 352.599609375 670.5 c 1
157 411.099609375 m 2
 156.900390625 411.5 l 2
 133.200195312 437.799804688 257.5 424.799804688 275.099609375 443.099609375 c 0
 299.400390625 516.799804688 332 592.099609375 353.099609375 666.5 c 1
 353.299804688 665.799804688 353.5 665 353.799804688 664.299804688 c 1
 353 665.5 353.799804688 674.900390625 352.599609375 670.900390625 c 1
 349.700195312 683 338.700195312 699.099609375 315.700195312 716.200195312 c 0
 285.599609375 766.400390625 425.400390625 749.5 431.400390625 681.799804688 c 0
 440.200195312 643.400390625 407.799804688 621.200195312 386.5 597.900390625 c 0
 368.700195312 560.5 358.5 520.799804688 347.799804688 480.799804688 c 1
 400.299804688 520.599609375 491.700195312 571.400390625 491.900390625 644.700195312 c 0
 497.299804688 649.299804688 482.200195312 666.299804688 478.200195312 676.5 c 0
 470.599609375 739 587.900390625 686.200195312 557.299804688 626 c 0
 519.5 568.299804688 459 534.700195312 410.200195312 488.400390625 c 1
 503.099609375 505.299804688 597.200195312 524.700195312 691.099609375 533.299804688 c 0
 731 535.700195312 736.799804688 472.200195312 708 452.5 c 0
 698.5 444.299804688 684.400390625 450.5 673.799804688 450.099609375 c 0
 554.299804688 468.400390625 439.5 450.200195312 327.299804688 406.599609375 c 1
 307.599609375 292.599609375 233.5 69 405.099609375 50.7001953125 c 0
 481.900390625 28.400390625 563.599609375 51.099609375 609.400390625 117.299804688 c 0
 650.900390625 155.200195312 668 233.299804688 657.200195312 275.5 c 0
 667.099609375 293.400390625 718.200195312 278.200195312 730.900390625 270.400390625 c 0
 754.700195312 258.400390625 753.5 222.5 760.900390625 199.099609375 c 1
 759.400390625 199.099609375 l 1
 769.400390625 152.400390625 768.599609375 105.799804688 764.5 57.599609375 c 1
 801.599609375 62.5 956.200195312 28.5 867.900390625 -15.5 c 0
 830.400390625 -9 793.900390625 3.900390625 754.700195312 1.599609375 c 0
 655.099609375 -254.700195312 435.5 -4.7001953125 709.700195312 53.099609375 c 0
 711.299804688 84 712.299804688 116.700195312 707.700195312 148.099609375 c 1
 635.400390625 56.900390625 531.099609375 -9.900390625 412.099609375 -8.2998046875 c 0
 189.299804688 -26.599609375 190.200195312 246.700195312 256.5 393.400390625 c 1
 222.200195312 391.299804688 187.099609375 395.700195312 157 411.099609375 c 2
678.200195312 -48.7001953125 m 0
 689.799804688 -34.7001953125 697 -19.099609375 701.700195312 -2.099609375 c 1
 570 -0.900390625 589.700195312 -145.900390625 678.200195312 -48.7001953125 c 0
695.200195312 198 m 1
 695.200195312 198 l 1
EndSplineSet
EndChar

StartChar: uniE127
Encoding: 57639 57639 30
Width: 1000
Flags: W
HStem: 452.3 80.7998<681.799 719.844>
LayerCount: 2
Fore
SplineSet
821.400390625 729.400390625 m 4
 940.299804688 705.299804688 876.700195312 527.200195312 768.700195312 577.099609375 c 4
 681.599609375 617 728.5 753.400390625 821.400390625 729.400390625 c 4
852.599609375 637.599609375 m 4
 874 704.5 771.5 735.700195312 753 670.799804688 c 4
 729.700195312 606.799804688 836.700195312 562.400390625 852.599609375 637.599609375 c 4
360.299804688 669.799804688 m 1
 360.700195312 668.599609375 361 667.400390625 360.700195312 666.200195312 c 1
 360.299804688 667.599609375 360.299804688 669 360.299804688 669.799804688 c 1
164.599609375 411.099609375 m 2
 164.299804688 411.299804688 l 2
 140.599609375 437.599609375 264.900390625 424.599609375 282.5 442.900390625 c 0
 306.799804688 516.599609375 339.299804688 591.799804688 360.5 666.299804688 c 1
 360.700195312 665.599609375 360.900390625 664.700195312 361.200195312 664 c 1
 360.599609375 665.299804688 360.900390625 675.900390625 360 669.900390625 c 1
 356.299804688 684.799804688 346.5 697.900390625 323.099609375 716 c 0
 292.900390625 766.099609375 432.799804688 749.5 438.799804688 681.599609375 c 0
 446.799804688 620.099609375 374 612.599609375 355.299804688 480.599609375 c 1
 407.799804688 520.400390625 499.200195312 571.299804688 499.400390625 644.5 c 0
 504.799804688 649.099609375 489.700195312 666.099609375 485.700195312 676.299804688 c 0
 478.099609375 738.799804688 595.400390625 686 564.799804688 625.799804688 c 0
 527 568.099609375 466.5 534.5 417.700195312 488.200195312 c 1
 510.599609375 505.099609375 604.700195312 524.5 698.599609375 533.099609375 c 0
 738.400390625 535.5 744.299804688 472 715.5 452.299804688 c 0
 706 444.099609375 691.900390625 450.299804688 681.299804688 449.900390625 c 0
 561.900390625 468.200195312 447.099609375 450 334.900390625 406.400390625 c 1
 312 308.200195312 289.400390625 202.400390625 316.900390625 105.700195312 c 0
 341.400390625 56 406.799804688 50.2001953125 456.200195312 43.2001953125 c 1
 283.599609375 226.900390625 543.799804688 370.200195312 652.900390625 171.599609375 c 1
 674.200195312 196.200195312 664.700195312 264.5 664.700195312 275.299804688 c 0
 674.700195312 293.299804688 725.599609375 277.900390625 738.400390625 270.200195312 c 0
 762.099609375 258.200195312 761 222.400390625 768.400390625 199 c 1
 768.200195312 199 l 1
 783 162.299804688 785 -100 709.700195312 3.7001953125 c 0
 712.099609375 51.7001953125 721.599609375 100.400390625 715.5 149.200195312 c 1
 644.599609375 57 538.5 -9.7998046875 419.700195312 -8.2998046875 c 0
 196.900390625 -26.2998046875 198 246.599609375 264.099609375 393.400390625 c 1
 229.799804688 391.299804688 194.700195312 395.700195312 164.599609375 411.099609375 c 2
450.599609375 225.5 m 0
 396 140.200195312 528.099609375 2 601.799804688 100.099609375 c 0
 659.799804688 183.200195312 520.299804688 284.900390625 450.599609375 225.5 c 0
EndSplineSet
EndChar

StartChar: uniE128
Encoding: 57640 57640 31
Width: 1000
Flags: W
HStem: 452.3 80.7998<689.4 727.444>
LayerCount: 2
Fore
SplineSet
821.400390625 729.400390625 m 4
 940.299804688 705.299804688 876.700195312 527.200195312 768.700195312 577.099609375 c 4
 681.599609375 617 728.5 753.400390625 821.400390625 729.400390625 c 4
852.599609375 637.599609375 m 4
 874 704.5 771.5 735.700195312 753 670.799804688 c 4
 729.700195312 606.799804688 836.700195312 562.400390625 852.599609375 637.599609375 c 4
172.200195312 411.099609375 m 2
 171.900390625 411.299804688 l 2
 148.200195312 437.599609375 272.5 424.599609375 290.099609375 442.900390625 c 0
 314.400390625 516.599609375 346.900390625 591.799804688 368.099609375 666.299804688 c 1
 368.299804688 665.599609375 368.5 664.700195312 368.799804688 664 c 1
 368.200195312 665.299804688 368.5 675.900390625 367.599609375 669.900390625 c 1
 363.900390625 684.799804688 354.099609375 697.900390625 330.700195312 716 c 0
 300.5 766.099609375 440.400390625 749.5 446.400390625 681.599609375 c 0
 454.400390625 620.099609375 381.599609375 612.599609375 362.900390625 480.599609375 c 1
 415.400390625 520.400390625 506.900390625 571.299804688 507 644.5 c 0
 512.400390625 649.099609375 497.299804688 666.099609375 493.299804688 676.299804688 c 0
 485.799804688 738.799804688 603 686 572.400390625 625.799804688 c 0
 534.599609375 568.099609375 474.099609375 534.5 425.299804688 488.200195312 c 1
 518.200195312 505.099609375 612.299804688 524.5 706.200195312 533.099609375 c 0
 746 535.5 751.900390625 472 723.099609375 452.299804688 c 0
 713.599609375 444.099609375 699.5 450.299804688 688.900390625 449.900390625 c 0
 569.5 468.200195312 454.700195312 450 342.5 406.400390625 c 1
 319.599609375 308.200195312 297.099609375 202.400390625 324.5 105.700195312 c 0
 348.099609375 57.099609375 411.099609375 51.5 459.099609375 43.5 c 0
 525.799804688 33.900390625 586 64.7998046875 624.5 117.099609375 c 0
 666 155.099609375 683.200195312 233.099609375 672.299804688 275.299804688 c 0
 682.099609375 293.200195312 733.400390625 278 746 270.200195312 c 0
 769.799804688 258.299804688 768.599609375 222.400390625 776 199 c 1
 775.799804688 199 l 1
 790.599609375 162.299804688 792.599609375 -100 717.299804688 3.7001953125 c 0
 719.700195312 51.7001953125 729.200195312 100.400390625 723.099609375 149.200195312 c 1
 652.200195312 57 546.099609375 -9.7998046875 427.299804688 -8.2998046875 c 0
 204.5 -26.2998046875 205.599609375 246.599609375 271.700195312 393.400390625 c 1
 237.400390625 391.299804688 202.299804688 395.700195312 172.200195312 411.099609375 c 2
367.900390625 669.799804688 m 1
 368.299804688 668.599609375 368.599609375 667.400390625 368.299804688 666.200195312 c 1
 367.900390625 667.599609375 367.900390625 669 367.900390625 669.799804688 c 1
EndSplineSet
EndChar

StartChar: uniE129
Encoding: 57641 57641 32
Width: 1000
Flags: W
HStem: 452.2 80.7998<682.099 720.184>
LayerCount: 2
Fore
SplineSet
821.400390625 729.400390625 m 4
 940.299804688 705.299804688 876.700195312 527.200195312 768.700195312 577.099609375 c 4
 681.599609375 617 728.5 753.400390625 821.400390625 729.400390625 c 4
852.599609375 637.599609375 m 4
 874 704.5 771.5 735.700195312 753 670.799804688 c 4
 729.700195312 606.799804688 836.700195312 562.400390625 852.599609375 637.599609375 c 4
164.799804688 411.099609375 m 2
 164.700195312 411.099609375 l 2
 141 437.400390625 265.299804688 424.400390625 282.799804688 442.700195312 c 0
 308.200195312 516.400390625 339.799804688 591.599609375 361.299804688 666 c 1
 361.5 665.099609375 361.799804688 664.299804688 362 664 c 1
 361.400390625 665.900390625 361.799804688 675.200195312 360.900390625 670.400390625 c 1
 355.700195312 689.299804688 341.099609375 702.5 322.799804688 716.799804688 c 0
 297.700195312 772.099609375 456 743.799804688 440.200195312 660.900390625 c 0
 435.200195312 628.900390625 411 617.900390625 394.700195312 597.5 c 0
 376.900390625 560.200195312 366.900390625 520.700195312 356.200195312 480.799804688 c 1
 408.400390625 520.599609375 499.700195312 571.299804688 499.700195312 644.400390625 c 0
 505.099609375 649 490 666 486 676.200195312 c 0
 478.400390625 738.700195312 595.700195312 685.900390625 565.099609375 625.700195312 c 0
 527.299804688 568 466.799804688 534.400390625 418 488.099609375 c 1
 510.900390625 505 605 524.400390625 698.900390625 533 c 0
 738.799804688 535.400390625 744.599609375 471.900390625 715.799804688 452.200195312 c 0
 706.299804688 444 692.200195312 450.200195312 681.599609375 449.799804688 c 0
 562.299804688 468.099609375 447.599609375 450.099609375 335.599609375 406.5 c 1
 307.700195312 267.900390625 240.200195312 40.2998046875 456 43.900390625 c 1
 380.5 108.799804688 374.200195312 262.900390625 499.099609375 267 c 0
 568.400390625 268.599609375 655 217 658.5 142.700195312 c 1
 756.200195312 172 813 10.099609375 727.400390625 -37.900390625 c 0
 674.200195312 -65.5 663 -5.7001953125 708.700195312 16.5 c 0
 732.5 42.7998046875 731.799804688 106.900390625 682.200195312 96.400390625 c 0
 382.700195312 -128.400390625 119.599609375 16.400390625 264.799804688 393.400390625 c 1
 230.400390625 391.299804688 195.099609375 395.599609375 164.799804688 411.099609375 c 2
451.200195312 225.5 m 0
 396.400390625 140.299804688 528.900390625 1.900390625 602.299804688 99.900390625 c 0
 660.400390625 183.099609375 521 284.900390625 451.200195312 225.5 c 0
360.900390625 670.400390625 m 1
 361.200195312 669 361.700195312 667.5 361.400390625 666 c 1
 361 667.5 360.900390625 669.200195312 360.900390625 670.400390625 c 1
EndSplineSet
EndChar

StartChar: uniE12A
Encoding: 57642 57642 33
Width: 1000
Flags: W
HStem: 448.4 80.6992<546.927 741.263>
VStem: 223.6 82.2002<10.5777 59.2998>
LayerCount: 2
Fore
SplineSet
821.400390625 729.400390625 m 4
 940.299804688 705.299804688 876.700195312 527.200195312 768.700195312 577.099609375 c 4
 681.599609375 617 728.5 753.400390625 821.400390625 729.400390625 c 4
852.599609375 637.599609375 m 4
 874 704.5 771.5 735.700195312 753 670.799804688 c 4
 729.700195312 606.799804688 836.700195312 562.400390625 852.599609375 637.599609375 c 4
792.5 390.700195312 m 1
 792.400390625 390.700195312 l 1
 812.400390625 361.5 754.700195312 313.700195312 735 354.5 c 0
 730.400390625 363.799804688 744.599609375 390.5 732.599609375 414.5 c 1
 765.400390625 427.5 786.299804688 401.400390625 792.5 390.700195312 c 1
804.799804688 257.700195312 m 1
 804.700195312 257.700195312 l 2
 800.099609375 267 814.299804688 293.700195312 802.299804688 317.700195312 c 1
 835.099609375 330.700195312 856 304.599609375 862.200195312 293.900390625 c 0
 882.200195312 264.700195312 824.5 216.900390625 804.799804688 257.700195312 c 1
186.5 411.099609375 m 2
 186.299804688 411.099609375 l 2
 161.5 436.900390625 290.799804688 424.900390625 309 444.400390625 c 0
 329.099609375 509.299804688 359.799804688 572.200195312 370.099609375 640 c 0
 379.5 671.900390625 369.400390625 693.700195312 359.200195312 724.599609375 c 0
 369.400390625 773.400390625 466.200195312 698.400390625 447.5 653.900390625 c 0
 418.099609375 593.799804688 385 541.099609375 367.700195312 475.099609375 c 1
 424.200195312 514.700195312 519.700195312 568 521.299804688 644.299804688 c 0
 526.700195312 648.900390625 511.599609375 665.900390625 507.599609375 676.099609375 c 0
 500 738.599609375 617.299804688 685.799804688 586.700195312 625.599609375 c 0
 548.900390625 567.900390625 488.400390625 534.299804688 439.599609375 488 c 1
 537.599609375 501.099609375 641.099609375 536.599609375 738.400390625 529.099609375 c 0
 766.599609375 508.799804688 759.200195312 446.599609375 720.299804688 448.400390625 c 0
 589.700195312 469.299804688 467.200195312 449.599609375 343.900390625 402.799804688 c 0
 330.799804688 361.5 315.599609375 319.799804688 307.099609375 277.400390625 c 1
 431.700195312 448.799804688 843.200195312 399.900390625 762.599609375 135.099609375 c 0
 736.200195312 39.2998046875 608.400390625 -26.7001953125 527.299804688 14.900390625 c 1
 588.599609375 14 645.799804688 51.599609375 673.400390625 104 c 0
 795.599609375 369.900390625 277.799804688 466.099609375 306.200195312 66.400390625 c 1
 306 64 305.799804688 61.5 306.299804688 59.2998046875 c 1
 305.799804688 59.2998046875 l 1
 308.799804688 -32.599609375 261.700195312 -10.400390625 223.599609375 31.400390625 c 0
 212.900390625 149 256.700195312 279.599609375 292 393.799804688 c 1
 255.799804688 390.799804688 218.400390625 394.799804688 186.5 411.099609375 c 2
EndSplineSet
EndChar

StartChar: uniE12B
Encoding: 57643 57643 34
Width: 1000
Flags: W
HStem: 448.3 80.7002<525.77 720.163>
VStem: 791.4 8.59961<168.754 179.445>
LayerCount: 2
Fore
SplineSet
821.400390625 729.400390625 m 4
 940.299804688 705.299804688 876.700195312 527.200195312 768.700195312 577.099609375 c 4
 681.599609375 617 728.5 753.400390625 821.400390625 729.400390625 c 4
852.599609375 637.599609375 m 4
 874 704.5 771.5 735.700195312 753 670.799804688 c 4
 729.700195312 606.799804688 836.700195312 562.400390625 852.599609375 637.599609375 c 4
165.400390625 411.099609375 m 1
 165.400390625 410.900390625 l 1
 143 437.799804688 262.700195312 423.700195312 280.099609375 441.400390625 c 0
 312.900390625 515.900390625 342.400390625 594.599609375 367.400390625 671.599609375 c 0
 372.900390625 688.200195312 304.400390625 722.200195312 331.799804688 737.900390625 c 0
 394.299804688 768 477.099609375 695.900390625 437.200195312 632.099609375 c 0
 397 592.599609375 380 543.799804688 369.799804688 488.900390625 c 1
 417.099609375 527.700195312 502.099609375 575.799804688 500.299804688 644.200195312 c 0
 505.700195312 648.799804688 490.599609375 665.799804688 486.599609375 676 c 0
 479 738.5 596.299804688 685.700195312 565.700195312 625.5 c 0
 527.900390625 567.799804688 467.400390625 534.200195312 418.599609375 487.900390625 c 1
 516.5 501 620 536.5 717.299804688 529 c 0
 745.5 508.700195312 738.099609375 446.5 699.200195312 448.299804688 c 0
 581.5 464.599609375 463.900390625 457.599609375 353.299804688 411.599609375 c 0
 340.799804688 369.900390625 326.299804688 327.599609375 316 284.099609375 c 1
 523.900390625 351.5 603.400390625 66.7001953125 360.700195312 56.099609375 c 1
 498.099609375 35.900390625 747.900390625 -0.2001953125 791.400390625 176.900390625 c 0
 792.099609375 181.700195312 799.700195312 181.200195312 800 176.5 c 0
 819.5 -20.400390625 562.700195312 -29 424.400390625 -4.7998046875 c 0
 223.099609375 -0.7998046875 219.900390625 248.5 264 393.299804688 c 1
 230 391.400390625 195.299804688 395.799804688 165.400390625 411.099609375 c 1
367.5 671.700195312 m 1
 366.799804688 670.799804688 369.299804688 661.299804688 368.799804688 665.200195312 c 0
 368.599609375 667.299804688 368.099609375 669.599609375 367.5 671.700195312 c 1
301.599609375 199.700195312 m 0
 259.900390625 60.900390625 470.099609375 54.2001953125 489.099609375 170.599609375 c 0
 475.400390625 245.299804688 331 280 301.599609375 199.700195312 c 0
EndSplineSet
EndChar

StartChar: uniE12C
Encoding: 57644 57644 35
Width: 1000
Flags: W
HStem: 452.1 80.8008<683.499 721.584>
VStem: 779.8 8.60059<168.754 179.445>
LayerCount: 2
Fore
SplineSet
821.400390625 729.400390625 m 4
 940.299804688 705.299804688 876.700195312 527.200195312 768.700195312 577.099609375 c 4
 681.599609375 617 728.5 753.400390625 821.400390625 729.400390625 c 4
852.599609375 637.599609375 m 4
 874 704.5 771.5 735.700195312 753 670.799804688 c 4
 729.700195312 606.799804688 836.700195312 562.400390625 852.599609375 637.599609375 c 4
540.099609375 259.299804688 m 1
 540 259.299804688 l 2
 535.400390625 268.599609375 549.599609375 295.299804688 537.599609375 319.299804688 c 1
 570.400390625 332.299804688 591.299804688 306.200195312 597.5 295.5 c 0
 617.5 266.299804688 559.799804688 218.5 540.099609375 259.299804688 c 1
658.599609375 259.299804688 m 1
 658.5 259.299804688 l 2
 653.900390625 268.599609375 668.099609375 295.299804688 656.099609375 319.299804688 c 1
 688.900390625 332.299804688 709.799804688 306.200195312 716 295.5 c 0
 736 266.299804688 678.299804688 218.5 658.599609375 259.299804688 c 1
166.400390625 411.099609375 m 2
 166.200195312 411 l 2
 146 438.700195312 250.700195312 423 266.599609375 437 c 0
 299.599609375 513.200195312 330.400390625 593 355.700195312 671.700195312 c 0
 361.200195312 688.299804688 292.700195312 722.299804688 320.099609375 738 c 0
 382.599609375 768.099609375 465.400390625 696 425.5 632.200195312 c 0
 382.799804688 590.700195312 366.700195312 537.700195312 356.200195312 479.900390625 c 1
 409 519.700195312 500.799804688 570.799804688 501.099609375 644.299804688 c 0
 506.5 648.900390625 491.400390625 665.900390625 487.400390625 676.099609375 c 0
 479.799804688 738.599609375 597.099609375 685.799804688 566.5 625.599609375 c 0
 528.700195312 567.900390625 468.200195312 534.299804688 419.400390625 488 c 1
 512.299804688 504.900390625 606.400390625 524.299804688 700.299804688 532.900390625 c 0
 740.200195312 535.299804688 746 471.799804688 717.200195312 452.099609375 c 0
 707.700195312 443.900390625 693.599609375 450.099609375 683 449.700195312 c 0
 565.200195312 467.5 451.099609375 451 340.5 407.400390625 c 0
 328.099609375 367.299804688 314.5 326.099609375 304.400390625 284.099609375 c 1
 512.299804688 351.5 591.799804688 66.7001953125 349.099609375 56.099609375 c 1
 486.5 35.900390625 736.299804688 -0.2001953125 779.799804688 176.900390625 c 0
 780.5 181.700195312 788.099609375 181.200195312 788.400390625 176.5 c 0
 807.900390625 -20.400390625 551.099609375 -29 412.799804688 -4.7998046875 c 0
 211.700195312 -0.7998046875 208.299804688 248.200195312 252.299804688 392.900390625 c 1
 222.400390625 392.700195312 192.5 397.700195312 166.400390625 411.099609375 c 2
356 671.700195312 m 1
 355.299804688 670.799804688 357.799804688 661.299804688 357.299804688 665.200195312 c 0
 357.099609375 667.299804688 356.599609375 669.599609375 356 671.700195312 c 1
290.099609375 199.700195312 m 0
 248.400390625 60.900390625 458.599609375 54.2001953125 477.599609375 170.599609375 c 0
 463.900390625 245.299804688 319.5 280 290.099609375 199.700195312 c 0
EndSplineSet
EndChar

StartChar: uniE12D
Encoding: 57645 57645 36
Width: 1000
Flags: W
HStem: 3.40039 49.2998<480.041 549.3> 448.4 80.6992<578.171 772.563>
VStem: 346.4 82.1992<91.8349 158.899 189.3 353.227> 349.2 70.0996<193.319 397 487.9 685.446> 549.3 73.7002<52.8707 135.756>
LayerCount: 2
Fore
SplineSet
821.400390625 729.400390625 m 4xc8
 940.299804688 705.299804688 876.700195312 527.200195312 768.700195312 577.099609375 c 4
 681.599609375 617 728.5 753.400390625 821.400390625 729.400390625 c 4xc8
852.599609375 637.599609375 m 4
 874 704.5 771.5 735.700195312 753 670.799804688 c 4
 729.700195312 606.799804688 836.700195312 562.400390625 852.599609375 637.599609375 c 4
392 0.2998046875 m 2
 392.099609375 0.099609375 l 1
 320.599609375 -50.2998046875 178.200195312 -31.599609375 140.900390625 54.5 c 0
 89.5 174.599609375 267.700195312 330.700195312 346.700195312 189.299804688 c 1
 347.299804688 258.299804688 348.200195312 327.599609375 349.200195312 397 c 1
 329.700195312 388.299804688 189.799804688 393.5 220.799804688 425.400390625 c 0
 266.099609375 429.299804688 309.900390625 427.599609375 350 449.200195312 c 0
 354.099609375 522.599609375 347.099609375 619 356.700195312 681.299804688 c 0
 357.299804688 698.799804688 334.599609375 718.900390625 322.900390625 734.700195312 c 0
 306.599609375 775.5 449.099609375 745.599609375 433 672.900390625 c 0
 411.400390625 612.400390625 424.400390625 550.799804688 420.599609375 487.900390625 c 1
 468.299804688 526.799804688 554.299804688 575.400390625 552.700195312 644.299804688 c 0
 558.099609375 648.900390625 543 665.900390625 539 676.099609375 c 0
 531.400390625 738.599609375 648.700195312 685.799804688 618.099609375 625.599609375 c 0
 580.299804688 567.900390625 519.799804688 534.299804688 471 488 c 1
 568.900390625 501.099609375 672.400390625 536.599609375 769.700195312 529.099609375 c 0
 797.900390625 508.799804688 790.5 446.599609375 751.599609375 448.400390625 c 0
 639.299804688 462.900390625 525.099609375 460.200195312 419.299804688 416.099609375 c 1xd8
 418.799804688 313 424.799804688 209.5 428.599609375 106 c 0xe8
 465.200195312 80.2001953125 503.799804688 56.599609375 549.299804688 52.7001953125 c 1
 550.299804688 97.400390625 557.5 143.099609375 582.700195312 181.900390625 c 0
 633.200195312 245 781.799804688 277.099609375 831.700195312 198.599609375 c 0
 893.799804688 24.900390625 747.700195312 -22.099609375 603.299804688 -0.5 c 0
 597.400390625 -23.599609375 594.700195312 -46.7998046875 603.299804688 -69.099609375 c 0
 593.700195312 -100.599609375 555.700195312 -9.5 555.5 3.400390625 c 0
 509 5.400390625 461.200195312 17.7998046875 423.5 46.7998046875 c 1
 418.599609375 28.2001953125 409.299804688 11.2998046875 392 0.2998046875 c 2
623 65.900390625 m 2
 623 65.7998046875 l 2
 621.599609375 59.599609375 619.799804688 53.2998046875 617.900390625 46.900390625 c 1
 688.299804688 50.2001953125 794.400390625 42.900390625 802.099609375 136.099609375 c 0
 803.299804688 152.599609375 801.799804688 175.700195312 788.5 186.799804688 c 0
 746.099609375 197.799804688 685.5 172.400390625 651.299804688 147.599609375 c 0
 635.5 126.5 631.5 91.900390625 623 65.900390625 c 2
259.200195312 197 m 2
 259.099609375 197 l 1
 153.700195312 125.5 238.400390625 11.5 343.700195312 66.7998046875 c 0
 346.099609375 81.599609375 346.400390625 107.799804688 346.400390625 133 c 0xe8
 324.900390625 159.099609375 288.299804688 209.799804688 259.200195312 197 c 2
EndSplineSet
EndChar

StartChar: uniE12E
Encoding: 57646 57646 37
Width: 1000
Flags: W
HStem: 422.1 80.8008<660.995 699.084>
LayerCount: 2
Fore
SplineSet
821.400390625 729.400390625 m 4
 940.299804688 705.299804688 876.700195312 527.200195312 768.700195312 577.099609375 c 4
 681.599609375 617 728.5 753.400390625 821.400390625 729.400390625 c 4
852.599609375 637.599609375 m 4
 874 704.5 771.5 735.700195312 753 670.799804688 c 4
 729.700195312 606.799804688 836.700195312 562.400390625 852.599609375 637.599609375 c 4
833.299804688 262.700195312 m 1
 833.400390625 262.700195312 l 2
 842.700195312 232.700195312 802.700195312 213.099609375 784.599609375 238.299804688 c 0
 745.700195312 288.299804688 736.200195312 357.799804688 668.900390625 378.900390625 c 0
 662.400390625 382.099609375 663.200195312 392.200195312 669.900390625 394.400390625 c 0
 753.700195312 418.5 809.200195312 330.799804688 833.299804688 262.700195312 c 1
143.700195312 381.099609375 m 0
 119.099609375 406.900390625 249.200195312 394.900390625 267.799804688 414.900390625 c 0
 290.299804688 488.400390625 324.900390625 559.400390625 337.5 635.799804688 c 0
 346.900390625 667.700195312 336.799804688 689.5 326.599609375 720.400390625 c 0
 336.799804688 769.200195312 433.599609375 694.200195312 414.900390625 649.700195312 c 0
 380.099609375 582.700195312 346.700195312 520.099609375 326.700195312 446 c 1
 382.5 485.700195312 477.200195312 538.5 478.599609375 614.299804688 c 0
 484 618.900390625 468.900390625 635.900390625 464.900390625 646.099609375 c 0
 457.299804688 708.599609375 574.599609375 655.799804688 544 595.599609375 c 0
 506.200195312 537.900390625 445.700195312 504.299804688 396.900390625 458 c 1
 489.799804688 474.900390625 583.900390625 494.299804688 677.799804688 502.900390625 c 0
 717.700195312 505.299804688 723.5 441.799804688 694.700195312 422.099609375 c 0
 685.200195312 413.900390625 671 420.099609375 660.5 419.700195312 c 0
 536.299804688 439.700195312 420.099609375 416.599609375 303 373.200195312 c 0
 292.099609375 339.799804688 281 306.099609375 274.200195312 271.799804688 c 1
 410.200195312 459.700195312 821.099609375 408.400390625 728.5 126.200195312 c 0
 751.299804688 99 779 71.099609375 797.099609375 40.400390625 c 0
 806.700195312 18.900390625 796.599609375 -6.599609375 774.599609375 -15.2998046875 c 0
 727.5 -31.5 709.900390625 26.099609375 685.599609375 54.599609375 c 1
 621 -26.2998046875 488.400390625 -32.5 401.5 26.2001953125 c 0
 262.700195312 167 508.700195312 325.599609375 663.700195312 186.5 c 1
 665.5 327.700195312 442.5 366.900390625 343.400390625 288 c 0
 280.5 234.700195312 276.900390625 139.900390625 273.400390625 62.2001953125 c 1
 273.200195312 59.7998046875 272.900390625 57.2998046875 273.5 55.099609375 c 1
 273 55.099609375 l 1
 276.099609375 -36.7998046875 229 -14.599609375 190.900390625 27.2001953125 c 0
 179.5 40.599609375 185.099609375 56 189.299804688 73.7001953125 c 0
 198.5 172.299804688 217.5 270.799804688 251 363.900390625 c 1
 214.299804688 360.599609375 176.099609375 364.5 143.700195312 381.099609375 c 0
562.099609375 46.5 m 0
 596.599609375 57.2998046875 624.299804688 80.900390625 642.099609375 110.200195312 c 0
 463.900390625 332.5 238.799804688 -4.5 562.099609375 46.5 c 0
EndSplineSet
EndChar

StartChar: uniE12F
Encoding: 57647 57647 38
Width: 1000
Flags: W
HStem: 418.3 80.7002<530.744 725.163>
VStem: 209.5 85.9004<10.9915 55.0996> 295.8 456.4<59.7998 395.7>
LayerCount: 2
Fore
SplineSet
821.400390625 729.400390625 m 4
 940.299804688 705.299804688 876.700195312 527.200195312 768.700195312 577.099609375 c 4
 681.599609375 617 728.5 753.400390625 821.400390625 729.400390625 c 4
852.599609375 637.599609375 m 4
 874 704.5 771.5 735.700195312 753 670.799804688 c 4
 729.700195312 606.799804688 836.700195312 562.400390625 852.599609375 637.599609375 c 4
843.799804688 262.700195312 m 1
 843.900390625 262.700195312 l 2
 853.200195312 232.700195312 813.200195312 213.099609375 795.099609375 238.299804688 c 0
 756.200195312 288.299804688 746.700195312 357.799804688 679.400390625 378.900390625 c 0
 672.900390625 382.099609375 673.700195312 392.200195312 680.400390625 394.400390625 c 0
 764.200195312 418.5 819.700195312 330.799804688 843.799804688 262.700195312 c 1
170.5 381.099609375 m 2
 170.200195312 380.900390625 l 2
 146.5 407.299804688 271.599609375 394.299804688 289.299804688 412.900390625 c 0
 311.900390625 487 347 558.599609375 359.700195312 635.700195312 c 0
 369.099609375 667.599609375 359 689.400390625 348.799804688 720.299804688 c 0
 359 769.099609375 455.799804688 694.099609375 437.099609375 649.599609375 c 0
 401.700195312 581.799804688 368.299804688 518.099609375 348 443.099609375 c 1
 406.099609375 482.5 503 536.799804688 505.200195312 614.200195312 c 0
 510.599609375 618.799804688 495.5 635.799804688 491.5 646 c 0
 483.900390625 708.5 601.200195312 655.700195312 570.599609375 595.5 c 0
 532.799804688 537.799804688 472.299804688 504.200195312 423.5 457.900390625 c 1
 521.5 471 625 506.5 722.299804688 499 c 0
 750.5 478.700195312 743.099609375 416.5 704.200195312 418.299804688 c 0
 572.400390625 439.700195312 449.5 418.700195312 324.900390625 372 c 0
 314.200195312 339.400390625 303.400390625 306.5 296.700195312 273.200195312 c 1
 421.299804688 444.599609375 832.799804688 395.700195312 752.200195312 130.900390625 c 0
 725.799804688 35.099609375 598 -30.900390625 516.900390625 10.7001953125 c 1
 578.200195312 9.7998046875 635.400390625 47.400390625 663 99.7998046875 c 0
 785.200195312 365.700195312 267.400390625 461.900390625 295.799804688 62.2001953125 c 1
 295.599609375 59.7998046875 295.400390625 57.2998046875 295.900390625 55.099609375 c 1
 295.400390625 55.099609375 l 1
 298.5 -36.7998046875 251.400390625 -14.599609375 213.299804688 27.2001953125 c 0
 204.799804688 39.5 204.799804688 47 209.5 64.099609375 c 0
 221.799804688 165.799804688 238 267.299804688 273.299804688 363.599609375 c 1
 237.900390625 361 201.599609375 365.200195312 170.5 381.099609375 c 2
EndSplineSet
EndChar

StartChar: uniE130
Encoding: 57648 57648 39
Width: 1000
Flags: W
HStem: 365.1 48.4004<232.047 346.3> 418.3 80.7002<588.713 782.063>
VStem: 344.9 83.7998<93.471 151.814 191.2 353.182> 346.3 75.2002<192.341 365.1 451.8 652.054>
LayerCount: 2
Fore
SplineSet
821.400390625 729.400390625 m 4xc0
 940.299804688 705.299804688 876.700195312 527.200195312 768.700195312 577.099609375 c 4
 681.599609375 617 728.5 753.400390625 821.400390625 729.400390625 c 4xc0
852.599609375 637.599609375 m 4
 874 704.5 771.5 735.700195312 753 670.799804688 c 4
 729.700195312 606.799804688 836.700195312 562.400390625 852.599609375 637.599609375 c 4
644.700195312 370.400390625 m 2
 644.700195312 370.299804688 l 2
 679.299804688 361.599609375 714 353.700195312 745.200195312 336.5 c 0
 772.400390625 321.099609375 756.200195312 279.099609375 726 285.5 c 0
 663.5 295.799804688 609.299804688 340.400390625 545.599609375 310.099609375 c 0
 500.299804688 327.599609375 621 388.200195312 644.700195312 370.400390625 c 2
353.5 678.400390625 m 0
 352.700195312 679.299804688 356.099609375 674.799804688 355.099609375 677.400390625 c 0
 354.5 677.900390625 353.799804688 678.200195312 353.5 678.400390625 c 0
822.799804688 309.200195312 m 1
 822.599609375 309 l 1
 949.099609375 31.7998046875 647.099609375 -131.5 423.599609375 40.099609375 c 1
 374.700195312 -80.2001953125 154.099609375 -19.7998046875 153.400390625 103.200195312 c 0
 136.5 209.099609375 279.700195312 292.200195312 344.900390625 191.200195312 c 1xe0
 343 248.799804688 344.299804688 307 346.299804688 365.099609375 c 1
 326.799804688 358.799804688 200.599609375 365.200195312 230.099609375 395.299804688 c 0
 271.700195312 398.599609375 309.900390625 397.799804688 348.099609375 413.5 c 0
 350.200195312 501.599609375 353.700195312 589.700195312 355.200195312 676.5 c 0
 354.799804688 694 337.799804688 708.900390625 323.099609375 730.400390625 c 0
 309.599609375 771.799804688 441.700195312 742.099609375 433.200195312 683.900390625 c 0
 412.200195312 610.5 425.099609375 527 420.700195312 451.799804688 c 1
 472.099609375 491.5 562.400390625 541.799804688 562.200195312 614.200195312 c 0
 567.599609375 618.799804688 552.5 635.799804688 548.5 646 c 0
 540.900390625 708.5 658.200195312 655.700195312 627.599609375 595.5 c 0
 589.799804688 537.799804688 529.299804688 504.200195312 480.5 457.900390625 c 1
 578.400390625 471 681.900390625 506.5 779.200195312 499 c 0
 807.400390625 478.700195312 800 416.5 761.099609375 418.299804688 c 0
 645.900390625 433.700195312 529.799804688 428.799804688 421.5 383.599609375 c 1xd0
 427.099609375 290.900390625 425.400390625 198.200195312 428.700195312 105.299804688 c 1xe0
 612 -28.900390625 809.900390625 95.5 822.799804688 309.200195312 c 1
344.700195312 62.599609375 m 0
 343.700195312 74.7001953125 348 100.400390625 347.200195312 119 c 0
 306.200195312 178 260.599609375 243.900390625 212.599609375 149.599609375 c 0
 133 48.900390625 287.599609375 7.400390625 344.700195312 62.599609375 c 0
EndSplineSet
EndChar

StartChar: uniE131
Encoding: 57649 57649 40
Width: 1000
Flags: W
HStem: 418.4 80.6992<546.145 740.563>
VStem: 230.2 79<20.3669 92.5996>
LayerCount: 2
Fore
SplineSet
821.400390625 729.400390625 m 4
 940.299804688 705.299804688 876.700195312 527.200195312 768.700195312 577.099609375 c 4
 681.599609375 617 728.5 753.400390625 821.400390625 729.400390625 c 4
852.599609375 637.599609375 m 4
 874 704.5 771.5 735.700195312 753 670.799804688 c 4
 729.700195312 606.799804688 836.700195312 562.400390625 852.599609375 637.599609375 c 4
756 287.5 m 0
 775.099609375 262.700195312 743.700195312 230.299804688 718.400390625 248 c 0
 664.900390625 281.900390625 632.400390625 344 561.900390625 341 c 0
 554.799804688 341.799804688 552.099609375 351.5 557.599609375 355.900390625 c 0
 628.299804688 407 710.200195312 343.400390625 756 287.5 c 0
185.700195312 381.099609375 m 2
 185.5 381.099609375 l 2
 160.599609375 406.900390625 288.700195312 394.799804688 306.599609375 413.799804688 c 0
 331.400390625 514.5 407.5 615.5 365.799804688 720.400390625 c 0
 371.900390625 768 471 698.400390625 454.5 652.400390625 c 0
 421.599609375 583.5 384.900390625 520.099609375 365.400390625 444.299804688 c 1
 422.700195312 483.799804688 518.700195312 537.5 520.599609375 614.299804688 c 0
 526 618.900390625 510.900390625 635.900390625 506.900390625 646.099609375 c 0
 499.299804688 708.599609375 616.599609375 655.799804688 586 595.599609375 c 0
 548.200195312 537.900390625 487.700195312 504.299804688 438.900390625 458 c 1
 536.900390625 471.099609375 640.400390625 506.599609375 737.700195312 499.099609375 c 0
 765.900390625 478.799804688 758.5 416.599609375 719.599609375 418.400390625 c 0
 588.599609375 439.5 465.900390625 419.400390625 342.200195312 372.599609375 c 0
 341.200195312 369.400390625 340.099609375 366.299804688 339.099609375 363.099609375 c 1
 688.5 391.400390625 632.799804688 6.7001953125 309.200195312 92.599609375 c 1
 310.099609375 86 310.299804688 79.599609375 311.299804688 73.7998046875 c 0
 322.700195312 -32.2998046875 276.200195312 -23.400390625 230.200195312 27.2001953125 c 0
 217.099609375 135.299804688 259.5 258.200195312 290.299804688 363.700195312 c 1
 254.400390625 360.900390625 217.299804688 364.900390625 185.700195312 381.099609375 c 2
308.5 238.900390625 m 0
 306.299804688 214.700195312 305.299804688 190.299804688 305.299804688 165.799804688 c 0
 360.700195312 135.5 540.5 118.799804688 539.5 214.900390625 c 0
 516 319.400390625 311.200195312 388.900390625 308.5 238.900390625 c 0
EndSplineSet
EndChar

StartChar: uniE132
Encoding: 57650 57650 41
Width: 1000
Flags: W
HStem: 452.3 80.7998<677.799 715.844>
LayerCount: 2
Fore
SplineSet
821.400390625 729.400390625 m 4
 940.299804688 705.299804688 876.700195312 527.200195312 768.700195312 577.099609375 c 4
 681.599609375 617 728.5 753.400390625 821.400390625 729.400390625 c 4
852.599609375 637.599609375 m 4
 874 704.5 771.5 735.700195312 753 670.799804688 c 4
 729.700195312 606.799804688 836.700195312 562.400390625 852.599609375 637.599609375 c 4
160.599609375 411.099609375 m 2
 160.299804688 411.299804688 l 2
 136.599609375 437.599609375 260.900390625 424.599609375 278.5 442.900390625 c 0
 302.799804688 516.599609375 335.299804688 591.799804688 356.5 666.299804688 c 1
 356.700195312 665.599609375 356.900390625 664.700195312 357.200195312 664 c 1
 356.599609375 665.299804688 356.900390625 675.900390625 356 669.900390625 c 1
 352.299804688 684.799804688 342.5 697.900390625 319.099609375 716 c 0
 288.900390625 766.099609375 428.799804688 749.5 434.799804688 681.599609375 c 0
 442.799804688 620.099609375 370 612.599609375 351.299804688 480.599609375 c 1
 403.799804688 520.400390625 495.200195312 571.299804688 495.400390625 644.5 c 0
 500.799804688 649.099609375 485.700195312 666.099609375 481.700195312 676.299804688 c 0
 474.099609375 738.799804688 591.400390625 686 560.799804688 625.799804688 c 0
 523 568.099609375 462.5 534.5 413.700195312 488.200195312 c 1
 506.599609375 505.099609375 600.700195312 524.5 694.599609375 533.099609375 c 0
 734.400390625 535.5 740.299804688 472 711.5 452.299804688 c 0
 702 444.099609375 687.900390625 450.299804688 677.299804688 449.900390625 c 0
 557.900390625 468.200195312 443.099609375 450 330.900390625 406.400390625 c 1
 308 308.200195312 285.5 202.400390625 312.900390625 105.700195312 c 0
 336.5 57.099609375 399.5 51.5 447.5 43.5 c 0
 514.200195312 33.900390625 574.400390625 64.7998046875 612.900390625 117.099609375 c 0
 654.400390625 155.099609375 671.599609375 233.099609375 660.700195312 275.299804688 c 0
 670.5 293.200195312 721.799804688 278 734.400390625 270.200195312 c 0
 758.200195312 258.299804688 757 222.400390625 764.400390625 199 c 1
 764.200195312 199 l 1
 779 162.299804688 781 -100 705.700195312 3.7001953125 c 0
 708.099609375 51.7001953125 717.599609375 100.400390625 711.5 149.200195312 c 1
 640.599609375 57 534.5 -9.7998046875 415.700195312 -8.2998046875 c 0
 192.900390625 -26.2998046875 194 246.599609375 260.099609375 393.400390625 c 1
 225.799804688 391.299804688 190.700195312 395.700195312 160.599609375 411.099609375 c 2
356.299804688 669.799804688 m 1
 356.700195312 668.599609375 357 667.400390625 356.700195312 666.200195312 c 1
 356.299804688 667.599609375 356.299804688 669 356.299804688 669.799804688 c 1
801.799804688 317.5 m 0
 820.900390625 292.700195312 789.5 260.299804688 764.200195312 278 c 0
 710.700195312 311.900390625 678.200195312 374 607.700195312 371 c 0
 600.599609375 371.799804688 597.900390625 381.5 603.400390625 385.900390625 c 0
 674.099609375 437 756 373.400390625 801.799804688 317.5 c 0
EndSplineSet
EndChar

StartChar: uniE133
Encoding: 57651 57651 42
Width: 1000
Flags: W
HStem: 714.6 7.80078<688.679 693.412>
LayerCount: 2
Fore
SplineSet
855.099609375 695.099609375 m 4
 882.099609375 684.900390625 946 624.400390625 905.900390625 613.099609375 c 4
 887.700195312 615.700195312 870.099609375 615.700195312 853.200195312 613.099609375 c 4
 842.200195312 617.200195312 764.400390625 575.400390625 765.299804688 591.599609375 c 4
 874.200195312 669.599609375 753 694.099609375 683.299804688 714.599609375 c 4
 672.799804688 719.799804688 681.900390625 722.400390625 710.599609375 722.400390625 c 4
 768.099609375 727.700195312 799.700195312 719.599609375 855.099609375 695.099609375 c 4
422.200195312 202.900390625 m 1
 422.200195312 203 l 1
 493 271.799804688 611 248.400390625 680.900390625 190.799804688 c 1
 683.599609375 315.700195312 508.200195312 358 403.599609375 317 c 0
 302.599609375 280.299804688 293.400390625 159 290.599609375 66.400390625 c 1
 290.299804688 64.099609375 290.400390625 61.5 290.700195312 59.2998046875 c 1
 290.200195312 59.2998046875 l 2
 287.900390625 22.2998046875 283.700195312 1.7998046875 277.700195312 -2.400390625 c 0
 247 -13.900390625 186.599609375 31 204.200195312 68.2998046875 c 0
 216.200195312 203.599609375 322.799804688 676.900390625 459.5 714.799804688 c 0
 571 751.700195312 690.5 678.599609375 709.5 565.900390625 c 0
 713.599609375 548.900390625 703.299804688 531.799804688 686.299804688 527.599609375 c 0
 638.700195312 523.5 609 622.5 558.799804688 640.400390625 c 0
 373.599609375 768.599609375 336.5 386.599609375 291.299804688 275.900390625 c 1
 427.299804688 463.900390625 838.299804688 412.599609375 745.700195312 130.400390625 c 0
 768.5 103.200195312 796.200195312 75.2998046875 814.299804688 44.599609375 c 0
 823.900390625 23.099609375 813.799804688 -2.400390625 791.799804688 -11.099609375 c 0
 744.700195312 -27.2998046875 727.099609375 30.2998046875 702.799804688 58.7998046875 c 1
 604.799804688 -84.599609375 254.5 21.2998046875 422.200195312 202.900390625 c 1
579.200195312 50.7001953125 m 0
 613.700195312 61.5 641.400390625 85.099609375 659.200195312 114.400390625 c 0
 473.400390625 337.799804688 260.400390625 -2.7998046875 579.200195312 50.7001953125 c 0
EndSplineSet
EndChar

StartChar: uniE134
Encoding: 57652 57652 43
Width: 1000
Flags: W
HStem: 714.6 7.80078<688.679 693.412>
LayerCount: 2
Fore
SplineSet
855.099609375 695.099609375 m 4
 882.099609375 684.900390625 946 624.400390625 905.900390625 613.099609375 c 4
 887.700195312 615.700195312 870.099609375 615.700195312 853.200195312 613.099609375 c 4
 842.200195312 617.200195312 764.400390625 575.400390625 765.299804688 591.599609375 c 4
 874.200195312 669.599609375 753 694.099609375 683.299804688 714.599609375 c 4
 672.799804688 719.799804688 681.900390625 722.400390625 710.599609375 722.400390625 c 4
 768.099609375 727.700195312 799.700195312 719.599609375 855.099609375 695.099609375 c 4
751.799804688 291.700195312 m 1
 751.599609375 291.799804688 l 1
 847.200195312 144.700195312 684.400390625 -47.900390625 534.099609375 15.099609375 c 1
 613.700195312 13.900390625 685.700195312 77.2001953125 696.599609375 154.400390625 c 0
 729.5 328 484.299804688 381.299804688 376.299804688 286.200195312 c 0
 321.099609375 229.799804688 316.299804688 141.599609375 313 66.5 c 1
 312.799804688 64.099609375 312.599609375 61.599609375 313.099609375 59.400390625 c 1
 312.599609375 59.400390625 l 1
 307.299804688 2.7001953125 309.099609375 -20.2001953125 264 3.599609375 c 0
 231 21.900390625 215.400390625 42.2998046875 228.900390625 78 c 0
 239.200195312 223 285.200195312 363.299804688 336.400390625 498 c 0
 370.299804688 612.400390625 437.099609375 754.299804688 581.099609375 719.599609375 c 0
 649.599609375 730.5 786.5 565.700195312 709 527.700195312 c 0
 661.400390625 523.599609375 631.700195312 622.599609375 581.5 640.5 c 0
 401.200195312 771.799804688 356.400390625 385.5 314 277.5 c 1
 411.799804688 397.900390625 652.799804688 422.799804688 751.799804688 291.700195312 c 1
EndSplineSet
EndChar

StartChar: uniE135
Encoding: 57653 57653 44
Width: 1000
Flags: W
HStem: 714.6 7.80078<688.679 693.412>
VStem: 334.3 81.2998<97.8408 123.3 195.6 353.207> 665.1 56.5<538.4 568.223> 806.7 5.5<310.834 311.8>
LayerCount: 2
Fore
SplineSet
855.099609375 695.099609375 m 4
 882.099609375 684.900390625 946 624.400390625 905.900390625 613.099609375 c 4
 887.700195312 615.700195312 870.099609375 615.700195312 853.200195312 613.099609375 c 4
 842.200195312 617.200195312 764.400390625 575.400390625 765.299804688 591.599609375 c 4
 874.200195312 669.599609375 753 694.099609375 683.299804688 714.599609375 c 4
 672.799804688 719.799804688 681.900390625 722.400390625 710.599609375 722.400390625 c 4
 768.099609375 727.700195312 799.700195312 719.599609375 855.099609375 695.099609375 c 4
306.200195312 221.700195312 m 1
 306.099609375 221.700195312 l 1
 315.700195312 213.299804688 324.200195312 204.5 332.299804688 195.599609375 c 1
 329.700195312 291.200195312 332.5 387.099609375 344.099609375 482.200195312 c 0
 348.5 591.200195312 369 723.900390625 506 723.299804688 c 0
 615.400390625 733.900390625 697.099609375 672.599609375 721.599609375 565.900390625 c 0
 729.299804688 532.200195312 685.099609375 512.400390625 665.099609375 540 c 0
 629.299804688 589.400390625 604.299804688 623 555.900390625 649.799804688 c 0
 443.299804688 711.599609375 386.900390625 612.200195312 400.299804688 509.099609375 c 0
 409 377.900390625 414.599609375 240.299804688 415.599609375 109.5 c 1
 587.5 -22.7001953125 804.799804688 97.5 806.700195312 310.700195312 c 0
 807 313.599609375 810.900390625 314.200195312 812.200195312 311.799804688 c 0
 934.799804688 34.7001953125 627.799804688 -126.5 411.099609375 44.5 c 1
 371.200195312 -66.7998046875 166.099609375 -21.5 144.700195312 81.900390625 c 0
 112.200195312 172.700195312 219.599609375 292 306.200195312 221.700195312 c 1
334.299804688 123.299804688 m 1
 334.299804688 123.200195312 l 1
 281.299804688 192.400390625 251.299804688 255.700195312 188.799804688 133.799804688 c 0
 143.200195312 59.599609375 240.5 30 297.599609375 47.599609375 c 0
 345.299804688 59 330.200195312 81.099609375 334.299804688 123.299804688 c 1
EndSplineSet
EndChar

StartChar: uniE136
Encoding: 57654 57654 45
Width: 1000
Flags: W
HStem: 714.6 7.80078<688.679 693.412>
VStem: 217.3 79<12.3344 90.3575> 664.5 56.5<538.647 568.128>
LayerCount: 2
Fore
SplineSet
855.099609375 695.099609375 m 4
 882.099609375 684.900390625 946 624.400390625 905.900390625 613.099609375 c 4
 887.700195312 615.700195312 870.099609375 615.700195312 853.200195312 613.099609375 c 4
 842.200195312 617.200195312 764.400390625 575.400390625 765.299804688 591.599609375 c 4
 874.200195312 669.599609375 753 694.099609375 683.299804688 714.599609375 c 4
 672.799804688 719.799804688 681.900390625 722.400390625 710.599609375 722.400390625 c 4
 768.099609375 727.700195312 799.700195312 719.599609375 855.099609375 695.099609375 c 4
389.099609375 558.700195312 m 1
 389.099609375 558.5 l 2
 368 491.299804688 347.200195312 432.700195312 325.900390625 367.099609375 c 1
 675.5 395.799804688 620.200195312 10.7998046875 296.299804688 96.7001953125 c 1
 311.599609375 -4.5 280.200195312 -37.5 217.299804688 31.2998046875 c 1
 204.400390625 188 274.5 351.900390625 322.700195312 501.299804688 c 0
 353.799804688 581.200195312 384.299804688 680.200195312 471 714.799804688 c 0
 582.5 751.700195312 702 678.599609375 721 565.900390625 c 0
 730.299804688 533 682.900390625 511.900390625 664.5 540 c 0
 585.400390625 664.5 453.599609375 736.700195312 389.099609375 558.700195312 c 1
343.400390625 325.900390625 m 1
 343.400390625 326 l 1
 283.299804688 299.200195312 295.799804688 223.799804688 292.400390625 170 c 1
 348 139.700195312 527.5 123 526.599609375 219.099609375 c 0
 504.099609375 289.099609375 417.799804688 348.400390625 343.400390625 325.900390625 c 1
EndSplineSet
EndChar

StartChar: uniE137
Encoding: 57655 57655 46
Width: 1000
Flags: W
HStem: 714.6 7.80078<688.679 693.412>
VStem: 709.5 54.9004<57.5 146.631>
LayerCount: 2
Fore
SplineSet
855.099609375 695.099609375 m 4
 882.099609375 684.900390625 946 624.400390625 905.900390625 613.099609375 c 4
 887.700195312 615.700195312 870.099609375 615.700195312 853.200195312 613.099609375 c 4
 842.200195312 617.200195312 764.400390625 575.400390625 765.299804688 591.599609375 c 4
 874.200195312 669.599609375 753 694.099609375 683.299804688 714.599609375 c 4
 672.799804688 719.799804688 681.900390625 722.400390625 710.599609375 722.400390625 c 4
 768.099609375 727.700195312 799.700195312 719.599609375 855.099609375 695.099609375 c 4
599.299804688 0.5 m 1
 599.200195312 0.7001953125 l 2
 626.799804688 32.400390625 670.200195312 46.2001953125 709.5 53.2001953125 c 0
 711.099609375 84.099609375 712.099609375 116.799804688 707.599609375 148.099609375 c 1
 579.900390625 -40.5 193.099609375 -102.400390625 217.400390625 214.299804688 c 0
 221 321.700195312 335.5 688.700195312 444.799804688 715 c 0
 668.099609375 787.299804688 763.5 464.400390625 638.400390625 540.200195312 c 0
 599.099609375 596.099609375 563.200195312 638.799804688 502.099609375 663.299804688 c 0
 363.900390625 692.299804688 355.099609375 496.200195312 326.299804688 403.299804688 c 0
 297.099609375 245.799804688 229.400390625 37.2998046875 465.400390625 43 c 0
 578.900390625 33.400390625 680.400390625 177.200195312 657.099609375 275.400390625 c 0
 666.900390625 293.5 718.200195312 277.900390625 730.799804688 270.299804688 c 0
 754.599609375 258.200195312 753.299804688 222.5 760.799804688 199 c 1
 759.099609375 199 l 1
 769.599609375 148.5 768.599609375 107.700195312 764.400390625 57.5 c 1
 801.5 62.400390625 956.099609375 28.400390625 867.799804688 -15.599609375 c 0
 830.299804688 -9.099609375 793.799804688 3.7998046875 754.599609375 1.5 c 0
 729.299804688 -135 512.400390625 -157.400390625 599.299804688 0.5 c 1
678.099609375 -48.7001953125 m 0
 689.700195312 -34.7001953125 696.900390625 -19.099609375 701.599609375 -2.099609375 c 1
 569.900390625 -0.900390625 589.599609375 -145.900390625 678.099609375 -48.7001953125 c 0
695.099609375 198 m 1
 695.099609375 198 l 1
EndSplineSet
EndChar

StartChar: uniE138
Encoding: 57656 57656 47
Width: 1000
Flags: W
HStem: 714.6 7.80078<688.679 693.412>
LayerCount: 2
Fore
SplineSet
855.099609375 695.099609375 m 4
 882.099609375 684.900390625 946 624.400390625 905.900390625 613.099609375 c 4
 887.700195312 615.700195312 870.099609375 615.700195312 853.200195312 613.099609375 c 4
 842.200195312 617.200195312 764.400390625 575.400390625 765.299804688 591.599609375 c 4
 874.200195312 669.599609375 753 694.099609375 683.299804688 714.599609375 c 4
 672.799804688 719.799804688 681.900390625 722.400390625 710.599609375 722.400390625 c 4
 768.099609375 727.700195312 799.700195312 719.599609375 855.099609375 695.099609375 c 4
723 -15.2001953125 m 0
 690.200195312 17.7001953125 730 90.5 715.700195312 148.400390625 c 1
 617.200195312 17.7001953125 388.599609375 -86.900390625 259.299804688 59.900390625 c 1
 165.299804688 228.900390625 279.599609375 425.400390625 342.099609375 586.099609375 c 0
 381.700195312 718.900390625 541.599609375 771.099609375 644.799804688 675.700195312 c 0
 675.099609375 640.200195312 739.799804688 554.200195312 681.299804688 527.599609375 c 0
 633.700195312 523.5 604.099609375 622.400390625 553.799804688 640.400390625 c 0
 468.5 713.900390625 386.099609375 623.5 366 536.400390625 c 0
 334.5 401.700195312 289.200195312 262.299804688 310.400390625 122.700195312 c 0
 325.599609375 59.900390625 401.099609375 49.7998046875 455.900390625 43.2998046875 c 1
 283.799804688 227.200195312 543.799804688 369.900390625 652.799804688 171.599609375 c 1
 674.599609375 196.099609375 664.299804688 265.299804688 664.700195312 275.200195312 c 0
 688.599609375 295.799804688 756.299804688 276.5 759.099609375 239 c 0
 774.299804688 199.900390625 802.299804688 -50.599609375 723 -15.2001953125 c 0
604 104.099609375 m 0
 656.299804688 186.900390625 518.200195312 283.700195312 450.599609375 225.5 c 0
 394.299804688 137.900390625 534.200195312 -1.2998046875 604 104.099609375 c 0
EndSplineSet
EndChar

StartChar: uniE139
Encoding: 57657 57657 48
Width: 1000
Flags: W
HStem: 714.6 7.80078<688.679 693.412>
VStem: 232.8 83.2002<92.1968 338.98>
LayerCount: 2
Fore
SplineSet
855.099609375 695.099609375 m 4
 882.099609375 684.900390625 946 624.400390625 905.900390625 613.099609375 c 4
 887.700195312 615.700195312 870.099609375 615.700195312 853.200195312 613.099609375 c 4
 842.200195312 617.200195312 764.400390625 575.400390625 765.299804688 591.599609375 c 4
 874.200195312 669.599609375 753 694.099609375 683.299804688 714.599609375 c 4
 672.799804688 719.799804688 681.900390625 722.400390625 710.599609375 722.400390625 c 4
 768.099609375 727.700195312 799.700195312 719.599609375 855.099609375 695.099609375 c 4
730.700195312 -15.2001953125 m 0
 697.900390625 17.7001953125 737.700195312 90.5 723.400390625 148.400390625 c 1
 596.099609375 -40.599609375 208.5 -103.099609375 232.799804688 214 c 0
 235.099609375 309.799804688 273.400390625 398.099609375 307.799804688 485.799804688 c 0
 346.900390625 600.400390625 410 755.900390625 560.099609375 719.400390625 c 0
 672.5 729.799804688 778.900390625 472.099609375 654.700195312 539.900390625 c 1
 438.700195312 837.799804688 367.400390625 553.299804688 326.799804688 339 c 0
 316.400390625 271.5 308.5 202.299804688 316 134.599609375 c 0
 322.599609375 65.2001953125 401 50.7998046875 458.200195312 43.5 c 0
 562.900390625 26.2001953125 647.799804688 117.599609375 675.299804688 210.700195312 c 0
 679.200195312 247.200195312 667.799804688 267.700195312 672.400390625 275.200195312 c 0
 682.200195312 293.200195312 733.5 277.700195312 746.099609375 270.099609375 c 0
 772 255.900390625 769.299804688 215.700195312 778.299804688 189.900390625 c 0
 782.299804688 149.400390625 803.299804688 -45.099609375 730.700195312 -15.2001953125 c 0
EndSplineSet
EndChar

StartChar: uniE13A
Encoding: 57658 57658 49
Width: 1000
Flags: W
HStem: 714.6 7.80078<688.679 693.412>
LayerCount: 2
Fore
SplineSet
855.099609375 695.099609375 m 4
 882.099609375 684.900390625 946 624.400390625 905.900390625 613.099609375 c 4
 887.700195312 615.700195312 870.099609375 615.700195312 853.200195312 613.099609375 c 4
 842.200195312 617.200195312 764.400390625 575.400390625 765.299804688 591.599609375 c 4
 874.200195312 669.599609375 753 694.099609375 683.299804688 714.599609375 c 4
 672.799804688 719.799804688 681.900390625 722.400390625 710.599609375 722.400390625 c 4
 768.099609375 727.700195312 799.700195312 719.599609375 855.099609375 695.099609375 c 4
718.900390625 33 m 0
 729.599609375 64.7001953125 725.299804688 103.200195312 682.799804688 96.599609375 c 0
 334 -151.799804688 113.5 56.7998046875 282.700195312 439.799804688 c 0
 326.200195312 535.799804688 346.700195312 668.700195312 454.299804688 714.799804688 c 0
 677.599609375 787.200195312 773 464.200195312 647.900390625 540 c 1
 480.799804688 779.299804688 376 646.700195312 339.400390625 421.400390625 c 0
 313.700195312 323.299804688 294.5 216.099609375 313.200195312 116.400390625 c 0
 333.099609375 57.900390625 402.400390625 50.599609375 456.900390625 43.2998046875 c 1
 380.599609375 107.799804688 373.900390625 262.799804688 499.200195312 267 c 0
 568.5 268.5 655.099609375 217 658.599609375 142.599609375 c 1
 768.599609375 177.599609375 818.5 -31 701.5 -45.2001953125 c 0
 680.299804688 -44.2998046875 671.5 -17.2001953125 686.099609375 -2.900390625 c 0
 699.700195312 12.7998046875 712.900390625 13.400390625 718.900390625 33 c 0
604.700195312 104.200195312 m 0
 657 187 518.900390625 283.799804688 451.299804688 225.599609375 c 0
 394.599609375 138.200195312 535.799804688 -1.7001953125 604.700195312 104.200195312 c 0
EndSplineSet
EndChar

StartChar: uniE13B
Encoding: 57659 57659 50
Width: 1000
Flags: W
HStem: 714.6 7.80078<688.679 693.412>
LayerCount: 2
Fore
SplineSet
855.099609375 695.099609375 m 4
 882.099609375 684.900390625 946 624.400390625 905.900390625 613.099609375 c 4
 887.700195312 615.700195312 870.099609375 615.700195312 853.200195312 613.099609375 c 4
 842.200195312 617.200195312 764.400390625 575.400390625 765.299804688 591.599609375 c 4
 874.200195312 669.599609375 753 694.099609375 683.299804688 714.599609375 c 4
 672.799804688 719.799804688 681.900390625 722.400390625 710.599609375 722.400390625 c 4
 768.099609375 727.700195312 799.700195312 719.599609375 855.099609375 695.099609375 c 4
792.5 390.700195312 m 1
 792.400390625 390.700195312 l 1
 812.400390625 361.5 754.700195312 313.700195312 735 354.5 c 0
 730.400390625 363.799804688 744.599609375 390.5 732.599609375 414.5 c 1
 765.400390625 427.5 786.299804688 401.400390625 792.5 390.700195312 c 1
804.799804688 257.700195312 m 1
 804.700195312 257.700195312 l 2
 800.099609375 267 814.299804688 293.700195312 802.299804688 317.700195312 c 1
 835.099609375 330.700195312 856 304.599609375 862.200195312 293.900390625 c 0
 882.200195312 264.700195312 824.5 216.900390625 804.799804688 257.700195312 c 1
526 15 m 2
 525.799804688 15.099609375 l 1
 605.400390625 13.900390625 677.400390625 77.2001953125 688.299804688 154.400390625 c 0
 721.200195312 328 476 381.299804688 368 286.200195312 c 0
 312.799804688 229.799804688 308 141.599609375 304.700195312 66.5 c 1
 304.5 64.099609375 304.299804688 61.599609375 304.799804688 59.400390625 c 1
 304.299804688 59.400390625 l 1
 299 2.7001953125 300.799804688 -20.2001953125 255.700195312 3.599609375 c 0
 222.700195312 21.900390625 207.099609375 42.2998046875 220.599609375 78 c 0
 230.900390625 223 276.900390625 363.299804688 328.099609375 498 c 0
 362 612.400390625 428.799804688 754.299804688 572.799804688 719.599609375 c 0
 641.299804688 730.5 778.200195312 565.700195312 700.700195312 527.700195312 c 0
 653.099609375 523.599609375 623.400390625 622.599609375 573.200195312 640.5 c 0
 392.900390625 771.799804688 348.099609375 385.5 305.700195312 277.5 c 1
 403.5 397.900390625 644.5 422.799804688 743.5 291.700195312 c 0
 839.099609375 144.599609375 676.299804688 -48 526 15 c 2
EndSplineSet
EndChar

StartChar: uniE13C
Encoding: 57660 57660 51
Width: 1000
Flags: W
HStem: 714.6 7.80078<688.679 693.412>
LayerCount: 2
Fore
SplineSet
855.099609375 695.099609375 m 4
 882.099609375 684.900390625 946 624.400390625 905.900390625 613.099609375 c 4
 887.700195312 615.700195312 870.099609375 615.700195312 853.200195312 613.099609375 c 4
 842.200195312 617.200195312 764.400390625 575.400390625 765.299804688 591.599609375 c 4
 874.200195312 669.599609375 753 694.099609375 683.299804688 714.599609375 c 4
 672.799804688 719.799804688 681.900390625 722.400390625 710.599609375 722.400390625 c 4
 768.099609375 727.700195312 799.700195312 719.599609375 855.099609375 695.099609375 c 4
386.900390625 578.799804688 m 1
 386.900390625 578.700195312 l 2
 360.700195312 482.5 338.700195312 384.400390625 320.400390625 286.599609375 c 1
 532.900390625 343.700195312 597.200195312 63.099609375 357.299804688 55.900390625 c 1
 479.900390625 37 675 12.900390625 765 114.599609375 c 0
 776.599609375 119.900390625 791.400390625 195.200195312 800 176.5 c 0
 818.900390625 -25.900390625 553.299804688 -27.7998046875 412.599609375 -3.599609375 c 0
 119.900390625 48.599609375 262.200195312 412 348.5 589 c 0
 386.700195312 719.400390625 550.200195312 770.099609375 649.900390625 675.700195312 c 0
 680.200195312 640.200195312 744.799804688 554.200195312 686.400390625 527.599609375 c 0
 673.5 524.400390625 660.400390625 529.799804688 653.099609375 540 c 0
 585.799804688 648.099609375 453.099609375 739.099609375 386.900390625 578.799804688 c 1
326.400390625 234.799804688 m 1
 326.5 234.799804688 l 1
 295.5 208.400390625 304.799804688 157.900390625 306.5 121.299804688 c 0
 350.5 59.7998046875 483.700195312 91.5 489.099609375 170.700195312 c 0
 477.299804688 236.099609375 379.799804688 260.099609375 326.400390625 234.799804688 c 1
EndSplineSet
EndChar

StartChar: uniE13D
Encoding: 57661 57661 52
Width: 1000
Flags: W
HStem: 714.6 7.80078<688.679 693.412>
LayerCount: 2
Fore
SplineSet
855.099609375 695.099609375 m 4
 882.099609375 684.900390625 946 624.400390625 905.900390625 613.099609375 c 4
 887.700195312 615.700195312 870.099609375 615.700195312 853.200195312 613.099609375 c 4
 842.200195312 617.200195312 764.400390625 575.400390625 765.299804688 591.599609375 c 4
 874.200195312 669.599609375 753 694.099609375 683.299804688 714.599609375 c 4
 672.799804688 719.799804688 681.900390625 722.400390625 710.599609375 722.400390625 c 4
 768.099609375 727.700195312 799.700195312 719.599609375 855.099609375 695.099609375 c 4
540.099609375 259.299804688 m 1
 540 259.299804688 l 2
 535.400390625 268.599609375 549.599609375 295.299804688 537.599609375 319.299804688 c 1
 570.400390625 332.299804688 591.299804688 306.200195312 597.5 295.5 c 0
 617.5 266.299804688 559.799804688 218.5 540.099609375 259.299804688 c 1
658.599609375 259.299804688 m 1
 658.5 259.299804688 l 2
 653.900390625 268.599609375 668.099609375 295.299804688 656.099609375 319.299804688 c 1
 688.900390625 332.299804688 709.799804688 306.200195312 716 295.5 c 0
 736 266.299804688 678.299804688 218.5 658.599609375 259.299804688 c 1
780.700195312 100.400390625 m 2
 780.799804688 100.299804688 l 1
 717.299804688 -55.2998046875 352 -49.599609375 261.5 74.7001953125 c 0
 189.599609375 201.099609375 234.400390625 356.700195312 292.400390625 479.400390625 c 0
 328.299804688 563.799804688 353.5 676.900390625 448.099609375 714.599609375 c 0
 512.400390625 730.400390625 591.099609375 725.700195312 638.400390625 675.599609375 c 0
 668.700195312 640.099609375 733.400390625 554.099609375 674.900390625 527.5 c 0
 661.900390625 524.299804688 648.900390625 529.700195312 641.599609375 539.900390625 c 0
 404.200195312 866.200195312 345.799804688 494.900390625 308.900390625 286.599609375 c 1
 521.400390625 343.700195312 585.700195312 63.099609375 345.799804688 55.900390625 c 1
 468.5 37 663.400390625 13 753.5 114.599609375 c 0
 765.200195312 132.099609375 775.099609375 153.5 779.900390625 176.900390625 c 0
 798.599609375 192.299804688 788.5 111.900390625 780.700195312 100.400390625 c 2
294.900390625 121.200195312 m 0
 338.900390625 59.7001953125 472.099609375 91.400390625 477.5 170.599609375 c 0
 470.599609375 218.299804688 415.400390625 241 371.900390625 243.700195312 c 0
 292.700195312 260.099609375 285.400390625 179.099609375 294.900390625 121.200195312 c 0
EndSplineSet
EndChar

StartChar: uniE13E
Encoding: 57662 57662 53
Width: 1000
Flags: W
HStem: -0.700195 47.7002<617.4 755.375> 714.6 7.80078<688.679 693.412>
VStem: 350.7 73.7998<93.6797 150.684> 679.5 56.5<538.299 571.849>
LayerCount: 2
Fore
SplineSet
855.099609375 695.099609375 m 4
 882.099609375 684.900390625 946 624.400390625 905.900390625 613.099609375 c 4
 887.700195312 615.700195312 870.099609375 615.700195312 853.200195312 613.099609375 c 4
 842.200195312 617.200195312 764.400390625 575.400390625 765.299804688 591.599609375 c 4
 874.200195312 669.599609375 753 694.099609375 683.299804688 714.599609375 c 4
 672.799804688 719.799804688 681.900390625 722.400390625 710.599609375 722.400390625 c 4
 768.099609375 727.700195312 799.700195312 719.599609375 855.099609375 695.099609375 c 4
180.200195312 8.5 m 1
 180.400390625 8.400390625 l 1
 30.599609375 119 254 372.700195312 351.5 187.700195312 c 1
 371.299804688 342.5 291.599609375 719.799804688 520.400390625 723.200195312 c 0
 608 725 665.200195312 709.599609375 710.799804688 629.900390625 c 0
 722.599609375 609.099609375 730.799804688 587.700195312 736 565.799804688 c 0
 743.700195312 532.099609375 699.5 512.299804688 679.5 539.900390625 c 0
 599.299804688 683.5 402.599609375 738.700195312 412.900390625 518.5 c 0
 407.799804688 385.599609375 420.599609375 239.400390625 424.5 105.900390625 c 0
 463.900390625 82.400390625 502.900390625 56.2998046875 549.5 52.599609375 c 1
 541.299804688 176.700195312 631.900390625 254.900390625 754 242.299804688 c 0
 867.900390625 240.900390625 870.799804688 73 792.5 18.599609375 c 0
 734.599609375 -10.7998046875 664.5 -3.7001953125 603.599609375 -0.7001953125 c 0
 598.400390625 -22.900390625 593.5 -47.599609375 603.200195312 -69 c 0
 604.700195312 -71.5 603.799804688 -74.7998046875 601.299804688 -76.2998046875 c 0
 574 -67 564.099609375 -23.099609375 555.599609375 3.2001953125 c 0
 507.799804688 6.099609375 458.200195312 17.5 421.700195312 49.2001953125 c 1
 392.400390625 -49.2001953125 249.799804688 -44.5 180.200195312 8.5 c 1
618.700195312 51.2001953125 m 1
 618.599609375 51.2998046875 l 1
 618.299804688 49.900390625 617.799804688 48.400390625 617.400390625 47 c 1
 705.299804688 43.599609375 838.599609375 61.7998046875 793.900390625 181.299804688 c 0
 780 208.799804688 669.599609375 166.599609375 652.700195312 149.099609375 c 0
 632.700195312 123.400390625 630 82.400390625 618.700195312 51.2001953125 c 1
262.599609375 191.099609375 m 0
 233 176 213.900390625 130.599609375 212.900390625 99.5 c 0
 213.900390625 53.2998046875 315.299804688 43 346 66.400390625 c 0
 349.599609375 71.7998046875 350.400390625 111.799804688 350.700195312 126.700195312 c 0
 324.599609375 156 286.099609375 202.200195312 262.599609375 191.099609375 c 0
EndSplineSet
EndChar

StartChar: uniE13F
Encoding: 57663 57663 54
Width: 1000
Flags: W
HStem: 714.6 7.80078<688.679 693.412>
VStem: 190.9 82.1992<12.1408 59.2998> 635.9 56.5<538.647 571.788>
LayerCount: 2
Fore
SplineSet
855.099609375 695.099609375 m 4
 882.099609375 684.900390625 946 624.400390625 905.900390625 613.099609375 c 4
 887.700195312 615.700195312 870.099609375 615.700195312 853.200195312 613.099609375 c 4
 842.200195312 617.200195312 764.400390625 575.400390625 765.299804688 591.599609375 c 4
 874.200195312 669.599609375 753 694.099609375 683.299804688 714.599609375 c 4
 672.799804688 719.799804688 681.900390625 722.400390625 710.599609375 722.400390625 c 4
 768.099609375 727.700195312 799.700195312 719.599609375 855.099609375 695.099609375 c 4
833.299804688 262.700195312 m 1
 833.400390625 262.700195312 l 2
 842.700195312 232.700195312 802.700195312 213.099609375 784.599609375 238.299804688 c 0
 745.700195312 288.299804688 736.200195312 357.799804688 668.900390625 378.900390625 c 0
 662.400390625 382.099609375 663.200195312 392.200195312 669.900390625 394.400390625 c 0
 753.700195312 418.5 809.200195312 330.799804688 833.299804688 262.700195312 c 1
364.299804688 567 m 1
 364.5 567 l 1
 334.5 470.299804688 297.599609375 374.299804688 274.299804688 276 c 1
 410.299804688 464 821.299804688 412.700195312 728.700195312 130.5 c 0
 751.5 103.299804688 779.200195312 75.400390625 797.299804688 44.7001953125 c 0
 806.900390625 23.2001953125 796.799804688 -2.2998046875 774.799804688 -11 c 0
 727.700195312 -27.2001953125 710.099609375 30.400390625 685.799804688 58.900390625 c 1
 621.200195312 -22 488.599609375 -28.2001953125 401.700195312 30.5 c 0
 262.900390625 171.299804688 508.900390625 329.900390625 663.900390625 190.799804688 c 1
 666.700195312 315.700195312 491.200195312 358 386.599609375 317 c 0
 285.599609375 280.299804688 276.400390625 159 273.599609375 66.400390625 c 1
 273.299804688 64.099609375 273.400390625 61.5 273.700195312 59.2998046875 c 1
 273.099609375 59.2998046875 l 1
 276 -33 229.099609375 -10.099609375 190.900390625 31.400390625 c 0
 180.5 214.599609375 264.599609375 403 325.200195312 575.700195312 c 0
 384.900390625 779.200195312 647.700195312 770.200195312 692.400390625 565.900390625 c 0
 701.700195312 533 654.299804688 511.900390625 635.900390625 540 c 0
 563.799804688 657.099609375 427.099609375 737.400390625 364.299804688 567 c 1
562.099609375 50.7001953125 m 0
 596.599609375 61.5 624.299804688 85.099609375 642.099609375 114.400390625 c 0
 456.299804688 337.799804688 243.299804688 -2.7998046875 562.099609375 50.7001953125 c 0
EndSplineSet
EndChar

StartChar: uniE140
Encoding: 57664 57664 55
Width: 1000
Flags: W
HStem: 714.6 7.80078<688.679 693.412>
VStem: 658.5 56.4004<528.031 571.002>
LayerCount: 2
Fore
SplineSet
855.099609375 695.099609375 m 4
 882.099609375 684.900390625 946 624.400390625 905.900390625 613.099609375 c 4
 887.700195312 615.700195312 870.099609375 615.700195312 853.200195312 613.099609375 c 4
 842.200195312 617.200195312 764.400390625 575.400390625 765.299804688 591.599609375 c 4
 874.200195312 669.599609375 753 694.099609375 683.299804688 714.599609375 c 4
 672.799804688 719.799804688 681.900390625 722.400390625 710.599609375 722.400390625 c 4
 768.099609375 727.700195312 799.700195312 719.599609375 855.099609375 695.099609375 c 4
843.799804688 262.700195312 m 1
 843.900390625 262.700195312 l 2
 853.200195312 232.700195312 813.200195312 213.099609375 795.099609375 238.299804688 c 0
 756.200195312 288.299804688 746.700195312 357.799804688 679.400390625 378.900390625 c 0
 672.900390625 382.099609375 673.700195312 392.200195312 680.400390625 394.400390625 c 0
 764.200195312 418.5 819.700195312 330.799804688 843.799804688 262.700195312 c 1
388.900390625 571.5 m 1
 388.599609375 571.599609375 l 1
 359.200195312 485 318.400390625 367.200195312 296.599609375 277.5 c 1
 394.400390625 397.900390625 635.400390625 422.799804688 734.400390625 291.700195312 c 0
 825.400390625 143.700195312 679.200195312 -39.5 516.299804688 11.7998046875 c 1
 587.400390625 17.7001953125 670.5 71.599609375 679.299804688 154.299804688 c 0
 712.200195312 327.900390625 467 381.200195312 359 286.099609375 c 0
 303.799804688 229.700195312 299 141.5 295.700195312 66.400390625 c 1
 295.5 64 295.299804688 61.5 295.799804688 59.2998046875 c 1
 295.299804688 59.2998046875 l 2
 293 22.2998046875 288.799804688 1.7998046875 282.799804688 -2.400390625 c 0
 252.200195312 -13.900390625 191.799804688 31 209.400390625 68.2998046875 c 0
 222.799804688 216.200195312 265.400390625 360.299804688 319.200195312 498 c 0
 350.5 578.400390625 375.400390625 680.599609375 464.900390625 714.799804688 c 0
 576.400390625 751.700195312 695.900390625 678.599609375 714.900390625 565.900390625 c 0
 719.099609375 548.900390625 708.799804688 531.799804688 691.799804688 527.599609375 c 0
 678.900390625 524.400390625 665.799804688 529.799804688 658.5 540 c 0
 588.299804688 653.599609375 453 738.200195312 388.900390625 571.5 c 1
EndSplineSet
EndChar

StartChar: uniE141
Encoding: 57665 57665 56
Width: 1000
Flags: W
HStem: 285.7 51<693.845 750.067> 714.6 7.80078<688.679 693.412>
VStem: 347.2 81.2998<97.8408 123.3 195.6 353.207> 678 56.5<538.4 568.223> 819.6 5.5<310.834 311.8>
LayerCount: 2
Fore
SplineSet
855.099609375 695.099609375 m 4
 882.099609375 684.900390625 946 624.400390625 905.900390625 613.099609375 c 4
 887.700195312 615.700195312 870.099609375 615.700195312 853.200195312 613.099609375 c 4
 842.200195312 617.200195312 764.400390625 575.400390625 765.299804688 591.599609375 c 4
 874.200195312 669.599609375 753 694.099609375 683.299804688 714.599609375 c 4
 672.799804688 719.799804688 681.900390625 722.400390625 710.599609375 722.400390625 c 4
 768.099609375 727.700195312 799.700195312 719.599609375 855.099609375 695.099609375 c 4
580.700195312 359.900390625 m 1
 580.599609375 359.900390625 l 1
 632.5 388.599609375 695.799804688 358.099609375 745.099609375 336.700195312 c 0
 772.299804688 321.299804688 756.099609375 279.299804688 725.900390625 285.700195312 c 0
 679.400390625 292.700195312 637.5 319.900390625 591 321.900390625 c 0
 576.799804688 320.799804688 562.900390625 314.799804688 545.5 310.200195312 c 0
 513 316.799804688 565.099609375 355.900390625 580.700195312 359.900390625 c 1
319.099609375 221.700195312 m 1
 319 221.700195312 l 1
 328.599609375 213.299804688 337.099609375 204.5 345.200195312 195.599609375 c 1
 342.599609375 291.200195312 345.400390625 387.099609375 357 482.200195312 c 0
 361.400390625 591.200195312 381.900390625 723.900390625 518.900390625 723.299804688 c 0
 628.299804688 733.900390625 710 672.599609375 734.5 565.900390625 c 0
 742.200195312 532.200195312 698 512.400390625 678 540 c 0
 642.200195312 589.400390625 617.200195312 623 568.799804688 649.799804688 c 0
 456.200195312 711.599609375 399.799804688 612.200195312 413.200195312 509.099609375 c 0
 421.900390625 377.900390625 427.5 240.299804688 428.5 109.5 c 1
 600.400390625 -22.7001953125 817.700195312 97.5 819.599609375 310.700195312 c 0
 819.900390625 313.599609375 823.799804688 314.200195312 825.099609375 311.799804688 c 0
 947.700195312 34.7001953125 640.700195312 -126.5 424 44.5 c 1
 384.099609375 -66.7998046875 179 -21.5 157.599609375 81.900390625 c 0
 125.099609375 172.700195312 232.5 292 319.099609375 221.700195312 c 1
347.200195312 123.299804688 m 1
 347.200195312 123.200195312 l 1
 294.200195312 192.400390625 264.200195312 255.700195312 201.700195312 133.799804688 c 0
 156.099609375 59.599609375 253.400390625 30 310.5 47.599609375 c 0
 358.200195312 59 343.099609375 81.099609375 347.200195312 123.299804688 c 1
EndSplineSet
EndChar

StartChar: uniE142
Encoding: 57666 57666 57
Width: 1000
Flags: W
HStem: 714.6 7.80078<688.679 693.412>
VStem: 230.2 79.5996<11.1717 92.5> 677.4 56.5<538.647 568.128>
LayerCount: 2
Fore
SplineSet
855.099609375 695.099609375 m 4
 882.099609375 684.900390625 946 624.400390625 905.900390625 613.099609375 c 4
 887.700195312 615.700195312 870.099609375 615.700195312 853.200195312 613.099609375 c 4
 842.200195312 617.200195312 764.400390625 575.400390625 765.299804688 591.599609375 c 4
 874.200195312 669.599609375 753 694.099609375 683.299804688 714.599609375 c 4
 672.799804688 719.799804688 681.900390625 722.400390625 710.599609375 722.400390625 c 4
 768.099609375 727.700195312 799.700195312 719.599609375 855.099609375 695.099609375 c 4
756 287.5 m 0
 775.099609375 262.700195312 743.700195312 230.299804688 718.400390625 248 c 0
 664.900390625 281.900390625 632.400390625 344 561.900390625 341 c 0
 554.799804688 341.799804688 552.099609375 351.5 557.599609375 355.900390625 c 0
 628.299804688 407 710.200195312 343.400390625 756 287.5 c 0
402 558.700195312 m 1
 402.099609375 558.700195312 l 1
 380.5 490 359.099609375 430 337.400390625 362.900390625 c 1
 686.900390625 393.700195312 635.299804688 7.400390625 309.799804688 92.5 c 1
 324.299804688 -10.400390625 289.5 -33.5 230.200195312 31.400390625 c 1
 220.799804688 213.900390625 309.799804688 452.799804688 388.099609375 620.200195312 c 0
 459.5 789.299804688 708.200195312 736 733.900390625 565.900390625 c 0
 743.200195312 533 695.799804688 511.900390625 677.400390625 540 c 0
 598.299804688 664.5 466.5 736.700195312 402 558.700195312 c 1
356.299804688 321.799804688 m 0
 295.900390625 295 308.200195312 219.900390625 305.400390625 165.799804688 c 1
 361 135.700195312 540.400390625 118.900390625 539.5 215 c 0
 517 285 430.700195312 344.299804688 356.299804688 321.799804688 c 0
EndSplineSet
EndChar

StartChar: uniE143
Encoding: 57667 57667 58
Width: 1000
Flags: W
HStem: 714.6 7.80078<688.679 693.412>
VStem: 709.4 53.2998<-17.4544 38.5617>
LayerCount: 2
Fore
SplineSet
855.099609375 695.099609375 m 4
 882.099609375 684.900390625 946 624.400390625 905.900390625 613.099609375 c 4
 887.700195312 615.700195312 870.099609375 615.700195312 853.200195312 613.099609375 c 4
 842.200195312 617.200195312 764.400390625 575.400390625 765.299804688 591.599609375 c 4
 874.200195312 669.599609375 753 694.099609375 683.299804688 714.599609375 c 4
 672.799804688 719.799804688 681.900390625 722.400390625 710.599609375 722.400390625 c 4
 768.099609375 727.700195312 799.700195312 719.599609375 855.099609375 695.099609375 c 4
801.799804688 317.5 m 0
 820.900390625 292.700195312 789.5 260.299804688 764.200195312 278 c 0
 710.700195312 311.900390625 678.200195312 374 607.700195312 371 c 0
 600.599609375 371.799804688 597.900390625 381.5 603.400390625 385.900390625 c 0
 674.099609375 437 756 373.400390625 801.799804688 317.5 c 0
360.5 536.099609375 m 1
 360.799804688 536.200195312 l 1
 328.200195312 405.299804688 287.099609375 270.900390625 302 134.700195312 c 0
 308.599609375 65.400390625 387 50.900390625 444.200195312 43.599609375 c 0
 566.799804688 20.400390625 683.299804688 166.799804688 658.5 275.299804688 c 0
 668.400390625 293.200195312 719.5 278 732.200195312 270.200195312 c 0
 750.599609375 261.700195312 752.700195312 238.599609375 757.5 219.5 c 0
 775.299804688 155.599609375 771.400390625 90.7998046875 762.700195312 26.5 c 0
 763.099609375 1 746 -31.5 716.700195312 -15.2001953125 c 0
 683.900390625 17.599609375 723.700195312 90.599609375 709.400390625 148.400390625 c 1
 641.299804688 64.7998046875 545.299804688 -5.099609375 433.700195312 -6.7998046875 c 0
 141.5 -39.400390625 207.900390625 317.5 293.700195312 485.900390625 c 0
 328.900390625 567.700195312 354.5 679.099609375 447 714.799804688 c 0
 558.5 751.599609375 678.099609375 678.599609375 697 565.900390625 c 0
 706.200195312 533 658.900390625 512 640.5 540 c 0
 609.400390625 582.200195312 586.799804688 615.299804688 546.299804688 640.400390625 c 0
 462.099609375 713.299804688 376.599609375 624.599609375 360.5 536.099609375 c 1
EndSplineSet
EndChar

StartChar: uniE144
Encoding: 57668 57668 59
Width: 1000
VStem: 208 82.2002<10.5691 59.2998>
LayerCount: 2
Fore
SplineSet
215.099609375 425.700195312 m 1
 215.200195312 425.700195312 l 1
 77.2001953125 461.599609375 273.700195312 453.900390625 305.900390625 479 c 0
 322.200195312 532.400390625 347.5 583.900390625 354.799804688 639.900390625 c 0
 356.200195312 646.599609375 358 662.799804688 358.599609375 666.599609375 c 0
 366.700195312 686.5 321.799804688 734.400390625 358.400390625 739.200195312 c 0
 398.400390625 738.799804688 440.200195312 697.200195312 432.099609375 653.799804688 c 0
 408.299804688 600.5 375.599609375 557.700195312 361 499.900390625 c 1
 403.700195312 507.599609375 508.700195312 583.5 534.400390625 535.700195312 c 0
 538.400390625 523.400390625 532.5 510.200195312 521.200195312 504.700195312 c 0
 462.400390625 476.099609375 401.099609375 454 338.799804688 434.5 c 1
 322.400390625 382.099609375 302.400390625 329.900390625 291.400390625 276 c 1
 427.400390625 463.900390625 838.299804688 412.599609375 745.700195312 130.400390625 c 0
 768.5 103.200195312 796.200195312 75.2998046875 814.299804688 44.599609375 c 0
 823.900390625 23.099609375 813.799804688 -2.400390625 791.799804688 -11.099609375 c 0
 744.700195312 -27.2998046875 727.099609375 30.2998046875 702.799804688 58.7998046875 c 1
 638.200195312 -22.099609375 505.599609375 -28.2998046875 418.700195312 30.400390625 c 0
 279.900390625 171.200195312 525.900390625 329.799804688 680.900390625 190.700195312 c 1
 682.700195312 331.900390625 459.700195312 371.099609375 360.599609375 292.200195312 c 0
 297.700195312 238.900390625 294.099609375 144.099609375 290.599609375 66.400390625 c 1
 290.400390625 64 290.099609375 61.5 290.700195312 59.2998046875 c 1
 290.200195312 59.2998046875 l 1
 293.200195312 -32.7001953125 246.099609375 -10.400390625 208 31.400390625 c 0
 197.400390625 159.700195312 246.700195312 300.099609375 286.599609375 423.900390625 c 1
 262.599609375 421.099609375 238.099609375 421.200195312 215.099609375 425.700195312 c 1
579.299804688 50.7001953125 m 0
 613.799804688 61.5 641.5 85.099609375 659.299804688 114.400390625 c 0
 481.099609375 336.700195312 256 -0.2998046875 579.299804688 50.7001953125 c 0
EndSplineSet
EndChar

StartChar: uniE155
Encoding: 57685 57685 60
Width: 1000
Flags: W
VStem: 208 82.2002<10.5691 59.2998>
LayerCount: 2
Fore
SplineSet
821.400390625 729.400390625 m 4
 940.299804688 705.299804688 876.700195312 527.200195312 768.700195312 577.099609375 c 4
 681.599609375 617 728.5 753.400390625 821.400390625 729.400390625 c 4
852.599609375 637.599609375 m 4
 874 704.5 771.5 735.700195312 753 670.799804688 c 4
 729.700195312 606.799804688 836.700195312 562.400390625 852.599609375 637.599609375 c 4
215.099609375 425.700195312 m 1
 215.200195312 425.700195312 l 1
 77.2001953125 461.599609375 273.700195312 453.900390625 305.900390625 479 c 0
 322.200195312 532.400390625 347.5 583.900390625 354.799804688 639.900390625 c 0
 356.200195312 646.599609375 358 662.799804688 358.599609375 666.599609375 c 0
 366.700195312 686.5 321.799804688 734.400390625 358.400390625 739.200195312 c 0
 398.400390625 738.799804688 440.200195312 697.200195312 432.099609375 653.799804688 c 0
 408.299804688 600.5 375.599609375 557.700195312 361 499.900390625 c 1
 403.700195312 507.599609375 508.700195312 583.5 534.400390625 535.700195312 c 0
 538.400390625 523.400390625 532.5 510.200195312 521.200195312 504.700195312 c 0
 462.400390625 476.099609375 401.099609375 454 338.799804688 434.5 c 1
 322.400390625 382.099609375 302.400390625 329.900390625 291.400390625 276 c 1
 427.400390625 463.900390625 838.299804688 412.599609375 745.700195312 130.400390625 c 0
 768.5 103.200195312 796.200195312 75.2998046875 814.299804688 44.599609375 c 0
 823.900390625 23.099609375 813.799804688 -2.400390625 791.799804688 -11.099609375 c 0
 744.700195312 -27.2998046875 727.099609375 30.2998046875 702.799804688 58.7998046875 c 1
 638.200195312 -22.099609375 505.599609375 -28.2998046875 418.700195312 30.400390625 c 0
 279.900390625 171.200195312 525.900390625 329.799804688 680.900390625 190.700195312 c 1
 682.700195312 331.900390625 459.700195312 371.099609375 360.599609375 292.200195312 c 0
 297.700195312 238.900390625 294.099609375 144.099609375 290.599609375 66.400390625 c 1
 290.400390625 64 290.099609375 61.5 290.700195312 59.2998046875 c 1
 290.200195312 59.2998046875 l 1
 293.200195312 -32.7001953125 246.099609375 -10.400390625 208 31.400390625 c 0
 197.400390625 159.700195312 246.700195312 300.099609375 286.599609375 423.900390625 c 1
 262.599609375 421.099609375 238.099609375 421.200195312 215.099609375 425.700195312 c 1
579.299804688 50.7001953125 m 0
 613.799804688 61.5 641.5 85.099609375 659.299804688 114.400390625 c 0
 481.099609375 336.700195312 256 -0.2998046875 579.299804688 50.7001953125 c 0
EndSplineSet
EndChar

StartChar: uniE156
Encoding: 57686 57686 61
Width: 1000
Flags: W
HStem: 423.8 27.1006<214.006 281.412>
VStem: 230.5 82.2002<10.4775 59.2002>
LayerCount: 2
Fore
SplineSet
821.400390625 729.400390625 m 4
 940.299804688 705.299804688 876.700195312 527.200195312 768.700195312 577.099609375 c 4
 681.599609375 617 728.5 753.400390625 821.400390625 729.400390625 c 4
852.599609375 637.599609375 m 4
 874 704.5 771.5 735.700195312 753 670.799804688 c 4
 729.700195312 606.799804688 836.700195312 562.400390625 852.599609375 637.599609375 c 4
534.299804688 15 m 1
 534.200195312 14.900390625 l 1
 670.799804688 9.099609375 756.900390625 196.299804688 653.099609375 288.700195312 c 0
 455.700195312 405.099609375 301.900390625 289.200195312 313.099609375 66.2998046875 c 1
 312.900390625 63.900390625 312.700195312 61.400390625 313.200195312 59.2001953125 c 1
 312.700195312 59.2001953125 l 1
 315.700195312 -32.7001953125 268.599609375 -10.5 230.5 31.2998046875 c 0
 219.799804688 159.799804688 269.5 299.900390625 309.099609375 423.799804688 c 1
 281.799804688 421 194.099609375 419.5 190.200195312 450.900390625 c 0
 234.599609375 462.900390625 284.5 456.400390625 328.200195312 479 c 0
 344.700195312 532.400390625 369.900390625 584 377.200195312 640 c 0
 378.599609375 646.700195312 380.400390625 662.900390625 381 666.700195312 c 0
 389.099609375 686.599609375 344.200195312 734.5 380.799804688 739.299804688 c 0
 420.799804688 739 462.599609375 697.299804688 454.5 653.900390625 c 0
 430.700195312 600.599609375 398 557.799804688 383.400390625 500 c 1
 426.099609375 507.700195312 531.099609375 583.599609375 556.799804688 535.799804688 c 0
 560.799804688 523.5 554.900390625 510.299804688 543.599609375 504.799804688 c 0
 484.799804688 476.200195312 423.5 454.099609375 361.200195312 434.599609375 c 1
 344.900390625 382.599609375 325.200195312 330.900390625 314.099609375 277.5 c 1
 399.599609375 384.599609375 571.799804688 402.700195312 691.799804688 346.799804688 c 0
 886.799804688 237.599609375 721.900390625 -63.900390625 534.299804688 15 c 1
EndSplineSet
EndChar

StartChar: uniE157
Encoding: 57687 57687 62
Width: 1000
Flags: W
VStem: 334.3 81.5<97.8849 153.249 195.5 356.68> 336.1 71.8008<224.963 436.3 522.3 727.831> 806.7 5.5<310.934 311.9>
LayerCount: 2
Fore
SplineSet
821.400390625 729.400390625 m 4x20
 940.299804688 705.299804688 876.700195312 527.200195312 768.700195312 577.099609375 c 4
 681.599609375 617 728.5 753.400390625 821.400390625 729.400390625 c 4x20
852.599609375 637.599609375 m 4
 874 704.5 771.5 735.700195312 753 670.799804688 c 4
 729.700195312 606.799804688 836.700195312 562.400390625 852.599609375 637.599609375 c 4
340.700195312 682.5 m 0
 339.900390625 683.5 343.299804688 678.900390625 342.299804688 681.5 c 0
 341.700195312 682 341 682.299804688 340.700195312 682.5 c 0
195.799804688 12.7001953125 m 0
 52.400390625 99.599609375 214.700195312 346.099609375 332.299804688 195.5 c 1
 329.700195312 275.299804688 333.200195312 355.900390625 336.099609375 436.299804688 c 1
 298.099609375 422.700195312 175.099609375 407.299804688 159.299804688 450.900390625 c 1
 219.200195312 461.099609375 280.299804688 465.200195312 337.900390625 494.200195312 c 1
 336.5 556.599609375 343.299804688 619.599609375 342.5 680.900390625 c 0
 342.099609375 698.400390625 325.099609375 713.299804688 310.400390625 734.799804688 c 0
 296.900390625 776.099609375 428.900390625 746.5 420.5 688.299804688 c 0
 404 632.700195312 409.099609375 581.599609375 408.900390625 522.299804688 c 1
 443.900390625 528.599609375 502.200195312 578.299804688 525.900390625 535.799804688 c 0
 529.900390625 523.5 524 510.299804688 512.700195312 504.799804688 c 0
 478.599609375 488.299804688 443.5 474 407.900390625 461 c 0x60
 409.400390625 343.799804688 414.099609375 226.900390625 415.799804688 109.599609375 c 1xa0
 584.400390625 -23.2998046875 807.099609375 99.7001953125 806.700195312 310.799804688 c 0
 807 313.700195312 810.900390625 314.299804688 812.200195312 311.900390625 c 0
 932.299804688 31.900390625 632.5 -125.299804688 410.900390625 44.5 c 1
 379.599609375 -42.2998046875 258.099609375 -29.2998046875 195.799804688 12.7001953125 c 0
199.700195312 153.700195312 m 1
 199.700195312 153.599609375 l 1
 122.299804688 58.2998046875 267 10.599609375 331.299804688 65 c 0
 331.799804688 74.7998046875 334.299804688 103.400390625 334.299804688 123.099609375 c 0xa0
 293.299804688 182 247.799804688 248 199.700195312 153.700195312 c 1
EndSplineSet
EndChar

StartChar: uniE158
Encoding: 57688 57688 63
Width: 1000
Flags: W
HStem: 423.9 27.0996<187.09 270.468>
VStem: 217.3 79<24.58 96.7998>
LayerCount: 2
Fore
SplineSet
821.400390625 729.400390625 m 4
 940.299804688 705.299804688 876.700195312 527.200195312 768.700195312 577.099609375 c 4
 681.599609375 617 728.5 753.400390625 821.400390625 729.400390625 c 4
852.599609375 637.599609375 m 4
 874 704.5 771.5 735.700195312 753 670.799804688 c 4
 729.700195312 606.799804688 836.700195312 562.400390625 852.599609375 637.599609375 c 4
177 450.900390625 m 2
 177 451 l 1
 221.400390625 463 271.400390625 456.400390625 315.099609375 479.099609375 c 0
 337.900390625 560.299804688 390.799804688 640 353.099609375 724.700195312 c 0
 359.200195312 772.299804688 458.299804688 702.700195312 441.799804688 656.700195312 c 0
 420.099609375 601.900390625 384.299804688 558.900390625 370.099609375 500 c 1
 412.799804688 507.700195312 517.900390625 583.599609375 543.599609375 535.799804688 c 0
 547.599609375 523.5 541.700195312 510.299804688 530.400390625 504.799804688 c 0
 471.599609375 476.200195312 410.299804688 454.099609375 348 434.599609375 c 0
 340.599609375 412.200195312 333.599609375 389.700195312 326.200195312 367.299804688 c 1
 675.599609375 395.599609375 619.900390625 10.900390625 296.299804688 96.7998046875 c 1
 297.200195312 90.2001953125 297.400390625 83.7998046875 298.400390625 78 c 0
 309.799804688 -28.099609375 263.299804688 -19.099609375 217.299804688 31.400390625 c 1
 204.099609375 159.799804688 257.5 300.200195312 295.900390625 423.900390625 c 1
 268.700195312 421 180.900390625 419.5 177 450.900390625 c 2
343.400390625 325.900390625 m 1
 343.5 325.900390625 l 1
 283.099609375 299 296.200195312 224.299804688 292.400390625 170 c 1
 347.900390625 139.700195312 527.599609375 123 526.599609375 219.099609375 c 0
 504.099609375 289.099609375 417.799804688 348.400390625 343.400390625 325.900390625 c 1
EndSplineSet
EndChar

StartChar: uniE159
Encoding: 57689 57689 64
Width: 1000
Flags: W
VStem: 352.6 0.5<666.184 670.43> 709.7 54.7998<57.5996 146.515>
LayerCount: 2
Fore
SplineSet
821.400390625 729.400390625 m 4
 940.299804688 705.299804688 876.700195312 527.200195312 768.700195312 577.099609375 c 4
 681.599609375 617 728.5 753.400390625 821.400390625 729.400390625 c 4
852.599609375 637.599609375 m 4
 874 704.5 771.5 735.700195312 753 670.799804688 c 4
 729.700195312 606.799804688 836.700195312 562.400390625 852.599609375 637.599609375 c 4
352.599609375 670.5 m 1
 352.900390625 669 353.400390625 667.599609375 353.099609375 666.099609375 c 1
 352.599609375 667.900390625 352.599609375 669.700195312 352.599609375 670.5 c 1
194.799804688 425.700195312 m 1
 195 426 l 1
 55.599609375 461.900390625 256.200195312 454.400390625 288.5 480.299804688 c 0
 309.299804688 542.700195312 336.200195312 604 353.299804688 666.400390625 c 1
 353.5 665.700195312 353.700195312 664.900390625 354 664.200195312 c 1
 353.200195312 665.400390625 354 674.799804688 352.799804688 670.799804688 c 1
 349.900390625 682.900390625 338.900390625 699 315.900390625 716.099609375 c 0
 285.799804688 766.299804688 425.599609375 749.400390625 431.599609375 681.700195312 c 0
 439.599609375 621.700195312 367.400390625 607 354.700195312 505.700195312 c 1
 395.900390625 513.200195312 488.400390625 582.700195312 514.200195312 536 c 0
 518.200195312 523.700195312 512.299804688 510.5 501 505 c 0
 448 479.299804688 392.900390625 458.799804688 336.900390625 440.700195312 c 1
 312.700195312 325.099609375 224.599609375 67.599609375 405.099609375 50.7001953125 c 0
 481.900390625 28.400390625 563.599609375 51.099609375 609.400390625 117.299804688 c 0
 650.900390625 155.200195312 668 233.299804688 657.200195312 275.5 c 0
 667 293.400390625 718.299804688 278.200195312 730.900390625 270.400390625 c 0
 754.700195312 258.400390625 753.5 222.5 760.900390625 199.099609375 c 1
 759.400390625 199.099609375 l 1
 769.400390625 152.400390625 768.599609375 105.799804688 764.5 57.599609375 c 1
 801.599609375 62.5 956.200195312 28.5 867.900390625 -15.5 c 0
 830.400390625 -9 793.900390625 3.900390625 754.700195312 1.599609375 c 0
 655.099609375 -254.700195312 435.5 -4.7001953125 709.700195312 53.099609375 c 0
 711.299804688 84 712.299804688 116.700195312 707.700195312 148.099609375 c 1
 635.400390625 57 531.099609375 -9.900390625 412.099609375 -8.2998046875 c 0
 172.400390625 -24.400390625 195.299804688 273.599609375 267.900390625 424.099609375 c 1
 243.400390625 421.099609375 218.299804688 421.099609375 194.799804688 425.700195312 c 1
678.099609375 -48.7001953125 m 0
 689.700195312 -34.7001953125 696.900390625 -19.099609375 701.599609375 -2.099609375 c 1
 569.900390625 -0.900390625 589.599609375 -145.900390625 678.099609375 -48.7001953125 c 0
695.099609375 198 m 1
 695.099609375 198 l 1
EndSplineSet
EndChar

StartChar: uniE15A
Encoding: 57690 57690 65
Width: 1000
Flags: W
LayerCount: 2
Fore
SplineSet
821.400390625 729.400390625 m 4
 940.299804688 705.299804688 876.700195312 527.200195312 768.700195312 577.099609375 c 4
 681.599609375 617 728.5 753.400390625 821.400390625 729.400390625 c 4
852.599609375 637.599609375 m 4
 874 704.5 771.5 735.700195312 753 670.799804688 c 4
 729.700195312 606.799804688 836.700195312 562.400390625 852.599609375 637.599609375 c 4
202.400390625 425.700195312 m 1
 202.5 425.700195312 l 1
 63.099609375 461.700195312 263.700195312 454.200195312 296 480.099609375 c 0
 316.700195312 542.5 343.599609375 603.700195312 360.700195312 666.200195312 c 1
 360.900390625 665.5 361.099609375 664.599609375 361.400390625 663.900390625 c 1
 360.799804688 665.200195312 361.099609375 675.799804688 360.200195312 669.799804688 c 1
 356.5 684.700195312 346.700195312 697.799804688 323.299804688 715.900390625 c 0
 293.099609375 766 433 749.400390625 439 681.5 c 0
 446.900390625 621.200195312 373.900390625 605.099609375 362.200195312 505.5 c 1
 403.299804688 512.900390625 495.799804688 582.400390625 521.599609375 535.700195312 c 0
 525.599609375 523.400390625 519.700195312 510.200195312 508.400390625 504.700195312 c 0
 455.400390625 479 400.200195312 458.5 344.299804688 440.400390625 c 1
 314.400390625 325 287.599609375 218.5 316.799804688 105.700195312 c 0
 341.299804688 56 406.700195312 50.2001953125 456.099609375 43.2001953125 c 1
 283.5 226.900390625 543.700195312 370.200195312 652.799804688 171.599609375 c 1
 674.099609375 196.200195312 664.599609375 264.5 664.599609375 275.299804688 c 0
 674.599609375 293.299804688 725.5 277.900390625 738.299804688 270.200195312 c 0
 762 258.200195312 760.900390625 222.400390625 768.299804688 199 c 1
 768.099609375 199 l 1
 782.900390625 162.299804688 784.900390625 -100 709.599609375 3.7001953125 c 0
 712 51.7001953125 721.5 100.400390625 715.400390625 149.200195312 c 1
 644.5 57 538.400390625 -9.7998046875 419.599609375 -8.2998046875 c 0
 180 -24.099609375 202.900390625 273.5 275.400390625 424.099609375 c 1
 250.900390625 421.099609375 225.900390625 421.099609375 202.400390625 425.700195312 c 1
450.5 225.5 m 0
 395.900390625 140.200195312 528 2 601.700195312 100.099609375 c 0
 659.700195312 183.200195312 520.200195312 284.900390625 450.5 225.5 c 0
360.299804688 669.799804688 m 1
 360.700195312 668.599609375 361 667.400390625 360.700195312 666.200195312 c 1
 360.299804688 667.599609375 360.299804688 669 360.299804688 669.799804688 c 1
EndSplineSet
EndChar

StartChar: uniE15B
Encoding: 57691 57691 66
Width: 1000
Flags: W
LayerCount: 2
Fore
SplineSet
821.400390625 729.400390625 m 4
 940.299804688 705.299804688 876.700195312 527.200195312 768.700195312 577.099609375 c 4
 681.599609375 617 728.5 753.400390625 821.400390625 729.400390625 c 4
852.599609375 637.599609375 m 4
 874 704.5 771.5 735.700195312 753 670.799804688 c 4
 729.700195312 606.799804688 836.700195312 562.400390625 852.599609375 637.599609375 c 4
210.099609375 425.700195312 m 1
 210.200195312 425.700195312 l 1
 70.7998046875 461.700195312 271.400390625 454.200195312 303.700195312 480.099609375 c 0
 324.400390625 542.5 351.299804688 603.700195312 368.400390625 666.200195312 c 1
 368.599609375 665.5 368.799804688 664.599609375 369.099609375 663.900390625 c 1
 368.5 665.200195312 368.799804688 675.799804688 367.900390625 669.799804688 c 1
 364.200195312 684.700195312 354.400390625 697.799804688 331 715.900390625 c 0
 300.799804688 765.900390625 440.700195312 749.400390625 446.700195312 681.5 c 0
 454.599609375 621.200195312 381.599609375 605.099609375 369.900390625 505.5 c 1
 411 512.900390625 503.5 582.400390625 529.299804688 535.700195312 c 0
 533.299804688 523.400390625 527.400390625 510.200195312 516.099609375 504.700195312 c 0
 463.099609375 479 407.900390625 458.5 352 440.400390625 c 1
 322 325 295.299804688 218.5 324.5 105.700195312 c 0
 348.099609375 57.099609375 411.099609375 51.5 459.099609375 43.5 c 0
 525.799804688 33.900390625 586 64.7998046875 624.5 117.099609375 c 0
 666 155.099609375 683.200195312 233.099609375 672.299804688 275.299804688 c 0
 682.099609375 293.200195312 733.400390625 278 746 270.200195312 c 0
 769.799804688 258.299804688 768.599609375 222.400390625 776 199 c 1
 775.799804688 199 l 1
 790.599609375 162.299804688 792.599609375 -100 717.299804688 3.7001953125 c 0
 719.700195312 51.7001953125 729.200195312 100.400390625 723.099609375 149.200195312 c 1
 652.200195312 57 546.099609375 -9.7998046875 427.299804688 -8.2998046875 c 0
 187.700195312 -24.099609375 210.599609375 273.5 283.099609375 424.099609375 c 1
 258.599609375 421.099609375 233.599609375 421.099609375 210.099609375 425.700195312 c 1
367.900390625 669.799804688 m 1
 368.299804688 668.599609375 368.599609375 667.400390625 368.299804688 666.200195312 c 1
 367.900390625 667.599609375 367.900390625 669 367.900390625 669.799804688 c 1
EndSplineSet
EndChar

StartChar: uniE15C
Encoding: 57692 57692 67
Width: 1000
Flags: W
VStem: 360.9 0.5<666.07 670.335>
LayerCount: 2
Fore
SplineSet
821.400390625 729.400390625 m 4
 940.299804688 705.299804688 876.700195312 527.200195312 768.700195312 577.099609375 c 4
 681.599609375 617 728.5 753.400390625 821.400390625 729.400390625 c 4
852.599609375 637.599609375 m 4
 874 704.5 771.5 735.700195312 753 670.799804688 c 4
 729.700195312 606.799804688 836.700195312 562.400390625 852.599609375 637.599609375 c 4
203.099609375 425.700195312 m 1
 203.099609375 425.599609375 l 1
 63.7001953125 461.599609375 264.299804688 454.099609375 296.599609375 480 c 0
 317 541.5 344.5 604.200195312 361.400390625 666 c 1
 361.599609375 665.099609375 361.900390625 664.299804688 362.099609375 664 c 1
 361.5 665.900390625 361.900390625 675.200195312 361 670.400390625 c 1
 355.799804688 689.299804688 341.200195312 702.5 322.900390625 716.799804688 c 0
 297.799804688 772.099609375 456.099609375 743.900390625 440.299804688 660.900390625 c 0
 435.299804688 628.900390625 411.099609375 617.900390625 394.799804688 597.5 c 0
 381.099609375 568.099609375 371.099609375 537.099609375 363 505.599609375 c 1
 404.200195312 513 496.599609375 582.5 522.400390625 535.799804688 c 0
 526.400390625 523.5 520.5 510.299804688 509.200195312 504.799804688 c 0
 456.200195312 479 401 458.5 345 440.400390625 c 1
 313.599609375 295 226.599609375 42.7001953125 456.099609375 44 c 1
 380.599609375 108.900390625 374.299804688 263 499.200195312 267.099609375 c 0
 568.5 268.700195312 655.099609375 217.099609375 658.599609375 142.799804688 c 1
 756.299804688 172.099609375 813.099609375 10.2001953125 727.5 -37.7998046875 c 0
 674.299804688 -65.400390625 663.099609375 -5.599609375 708.799804688 16.599609375 c 0
 732.599609375 42.900390625 731.900390625 107 682.299804688 96.5 c 0
 352.599609375 -143.799804688 114.700195312 42.2001953125 276.099609375 424.099609375 c 1
 251.599609375 421.099609375 226.599609375 421.099609375 203.099609375 425.700195312 c 1
451.200195312 225.5 m 0
 396.400390625 140.299804688 528.900390625 1.900390625 602.299804688 99.900390625 c 0
 660.400390625 183.099609375 521 284.900390625 451.200195312 225.5 c 0
360.900390625 670.400390625 m 1
 361.200195312 669 361.700195312 667.5 361.400390625 666 c 1
 361 667.5 360.900390625 669.200195312 360.900390625 670.400390625 c 1
EndSplineSet
EndChar

StartChar: uniE15D
Encoding: 57693 57693 68
Width: 1000
Flags: W
VStem: 223.6 82.2002<10.5777 59.2998>
LayerCount: 2
Fore
SplineSet
821.400390625 729.400390625 m 4
 940.299804688 705.299804688 876.700195312 527.200195312 768.700195312 577.099609375 c 4
 681.599609375 617 728.5 753.400390625 821.400390625 729.400390625 c 4
852.599609375 637.599609375 m 4
 874 704.5 771.5 735.700195312 753 670.799804688 c 4
 729.700195312 606.799804688 836.700195312 562.400390625 852.599609375 637.599609375 c 4
735.099609375 354.400390625 m 1
 735 354.400390625 l 2
 730.400390625 363.700195312 744.599609375 390.400390625 732.599609375 414.400390625 c 1
 765.400390625 427.400390625 786.299804688 401.299804688 792.5 390.599609375 c 0
 812.5 361.400390625 754.799804688 313.599609375 735.099609375 354.400390625 c 1
804.799804688 257.700195312 m 1
 804.700195312 257.700195312 l 2
 800.099609375 267 814.299804688 293.700195312 802.299804688 317.700195312 c 1
 835.099609375 330.700195312 856 304.599609375 862.200195312 293.900390625 c 0
 882.200195312 264.700195312 824.5 216.900390625 804.799804688 257.700195312 c 1
230.700195312 425.700195312 m 2
 230.599609375 425.599609375 l 1
 92.599609375 461.599609375 289 453.900390625 321.200195312 478.900390625 c 0
 337.700195312 532.299804688 362.900390625 583.900390625 370.200195312 639.900390625 c 0
 371.599609375 646.599609375 373.400390625 662.799804688 374 666.599609375 c 0
 382.099609375 686.5 337.200195312 734.400390625 373.799804688 739.200195312 c 0
 413.799804688 738.900390625 455.599609375 697.200195312 447.5 653.799804688 c 0
 423.700195312 600.5 391 557.700195312 376.400390625 499.900390625 c 1
 419.099609375 507.599609375 524.099609375 583.5 549.799804688 535.700195312 c 0
 553.799804688 523.400390625 547.900390625 510.200195312 536.599609375 504.700195312 c 0
 477.799804688 476.099609375 416.5 454 354.200195312 434.5 c 1
 337.900390625 382.5 318.200195312 330.799804688 307.099609375 277.400390625 c 1
 431.700195312 448.799804688 843.200195312 399.900390625 762.599609375 135.099609375 c 0
 736.200195312 39.2998046875 608.400390625 -26.7001953125 527.299804688 14.900390625 c 1
 588.599609375 14 645.799804688 51.599609375 673.400390625 104 c 0
 795.599609375 369.900390625 277.799804688 466.099609375 306.200195312 66.400390625 c 1
 306 64 305.799804688 61.5 306.299804688 59.2998046875 c 1
 305.799804688 59.2998046875 l 1
 308.799804688 -32.599609375 261.700195312 -10.400390625 223.599609375 31.400390625 c 0
 212.900390625 159.900390625 262.599609375 300 302.200195312 423.900390625 c 1
 278.200195312 421.099609375 253.700195312 421.200195312 230.700195312 425.700195312 c 2
EndSplineSet
EndChar

StartChar: uniE15E
Encoding: 57694 57694 69
Width: 1000
Flags: W
VStem: 791.4 8.59961<168.854 179.544>
LayerCount: 2
Fore
SplineSet
821.400390625 729.400390625 m 4
 940.299804688 705.299804688 876.700195312 527.200195312 768.700195312 577.099609375 c 4
 681.599609375 617 728.5 753.400390625 821.400390625 729.400390625 c 4
852.599609375 637.599609375 m 4
 874 704.5 771.5 735.700195312 753 670.799804688 c 4
 729.700195312 606.799804688 836.700195312 562.400390625 852.599609375 637.599609375 c 4
209.799804688 425.700195312 m 0
 73.5 461.799804688 262.700195312 453.5 294.900390625 477.099609375 c 0
 323.200195312 539.5 345.599609375 607.5 367.5 671.799804688 c 0
 373 688.5 304.5 722.299804688 331.900390625 738.099609375 c 0
 394.400390625 768.200195312 477.200195312 696.099609375 437.299804688 632.299804688 c 0
 402.200195312 596.799804688 383.400390625 556.5 374 507.299804688 c 1
 414.099609375 514.599609375 504.099609375 582.099609375 529 535.799804688 c 0
 533 523.5 527.099609375 510.299804688 515.799804688 504.799804688 c 0
 465.700195312 480.400390625 413.599609375 460.799804688 360.799804688 443.5 c 1
 349.599609375 389.5 328.299804688 338.900390625 316 284.200195312 c 1
 523.900390625 351.599609375 603.400390625 66.7998046875 360.700195312 56.2001953125 c 1
 498.099609375 36 747.900390625 -0.099609375 791.400390625 177 c 0
 792.099609375 181.799804688 799.700195312 181.299804688 800 176.599609375 c 0
 819.5 -20.2998046875 562.700195312 -28.900390625 424.400390625 -4.7001953125 c 0
 210.200195312 1.7998046875 220 274.5 273.400390625 423.200195312 c 1
 251.900390625 421.299804688 230.299804688 421.700195312 209.799804688 425.700195312 c 0
367.5 671.700195312 m 1
 366.799804688 670.799804688 369.299804688 661.299804688 368.799804688 665.200195312 c 0
 368.599609375 667.299804688 368.099609375 669.599609375 367.5 671.700195312 c 1
301.599609375 199.700195312 m 0
 259.900390625 60.900390625 470.099609375 54.2001953125 489.099609375 170.599609375 c 0
 475.400390625 245.299804688 331 280 301.599609375 199.700195312 c 0
EndSplineSet
EndChar

StartChar: uniE15F
Encoding: 57695 57695 70
Width: 1000
Flags: W
VStem: 779.9 8.59961<168.854 179.544>
LayerCount: 2
Fore
SplineSet
821.400390625 729.400390625 m 4
 940.299804688 705.299804688 876.700195312 527.200195312 768.700195312 577.099609375 c 4
 681.599609375 617 728.5 753.400390625 821.400390625 729.400390625 c 4
852.599609375 637.599609375 m 4
 874 704.5 771.5 735.700195312 753 670.799804688 c 4
 729.700195312 606.799804688 836.700195312 562.400390625 852.599609375 637.599609375 c 4
540.099609375 259.299804688 m 1
 540 259.299804688 l 2
 535.400390625 268.599609375 549.599609375 295.299804688 537.599609375 319.299804688 c 1
 570.400390625 332.299804688 591.299804688 306.200195312 597.5 295.5 c 0
 617.5 266.299804688 559.799804688 218.5 540.099609375 259.299804688 c 1
658.599609375 259.299804688 m 1
 658.5 259.299804688 l 2
 653.900390625 268.599609375 668.099609375 295.299804688 656.099609375 319.299804688 c 1
 688.900390625 332.299804688 709.799804688 306.200195312 716 295.5 c 0
 736 266.299804688 678.299804688 218.5 658.599609375 259.299804688 c 1
198.299804688 425.700195312 m 0
 62 461.799804688 251.200195312 453.5 283.400390625 477.099609375 c 0
 311.700195312 539.5 334.099609375 607.5 356 671.799804688 c 0
 361.5 688.5 293 722.299804688 320.400390625 738.099609375 c 0
 382.900390625 768.200195312 465.700195312 696.099609375 425.799804688 632.299804688 c 0
 390.700195312 596.799804688 371.900390625 556.5 362.5 507.299804688 c 1
 402.599609375 514.599609375 492.599609375 582.099609375 517.5 535.799804688 c 0
 521.5 523.5 515.599609375 510.299804688 504.299804688 504.799804688 c 0
 454.200195312 480.400390625 402.099609375 460.799804688 349.299804688 443.5 c 1
 338.099609375 389.5 316.799804688 338.900390625 304.5 284.200195312 c 1
 512.400390625 351.599609375 591.900390625 66.7998046875 349.200195312 56.2001953125 c 1
 486.599609375 36 736.400390625 -0.099609375 779.900390625 177 c 0
 780.599609375 181.799804688 788.200195312 181.299804688 788.5 176.599609375 c 0
 808 -20.2998046875 551.200195312 -28.900390625 412.900390625 -4.7001953125 c 0
 198.700195312 1.7998046875 208.5 274.5 261.900390625 423.200195312 c 1
 240.400390625 421.299804688 218.799804688 421.700195312 198.299804688 425.700195312 c 0
356 671.700195312 m 1
 355.299804688 670.799804688 357.799804688 661.299804688 357.299804688 665.200195312 c 0
 357.099609375 667.299804688 356.599609375 669.599609375 356 671.700195312 c 1
290.099609375 199.700195312 m 0
 248.400390625 60.900390625 458.599609375 54.2001953125 477.599609375 170.599609375 c 0
 463.900390625 245.299804688 319.5 280 290.099609375 199.700195312 c 0
EndSplineSet
EndChar

StartChar: uniE160
Encoding: 57696 57696 71
Width: 1000
Flags: W
HStem: 3.2002 49.3994<480.041 549.3 617.8 751.256>
VStem: 346.3 82.2998<91.7349 160.216 189.2 349.982> 349.7 70.2002<228.003 436.6 522.1 727.566> 549.3 73.6006<52.7707 135.656> 555.5 47.7998<-19.8689 -1.78306>
LayerCount: 2
Fore
SplineSet
821.400390625 729.400390625 m 4x80
 940.299804688 705.299804688 876.700195312 527.200195312 768.700195312 577.099609375 c 4
 681.599609375 617 728.5 753.400390625 821.400390625 729.400390625 c 4x80
852.599609375 637.599609375 m 4
 874 704.5 771.5 735.700195312 753 670.799804688 c 4
 729.700195312 606.799804688 836.700195312 562.400390625 852.599609375 637.599609375 c 4
753.5 4.2998046875 m 1
 753.599609375 4.2998046875 l 1
 703.599609375 -6.5 653.299804688 -4.2998046875 603.299804688 -0.7001953125 c 0
 597.400390625 -23.7998046875 594.700195312 -47 603.299804688 -69.2998046875 c 0
 593.700195312 -100.799804688 555.700195312 -9.7001953125 555.5 3.2001953125 c 0
 509 5.2001953125 461.200195312 17.599609375 423.5 46.599609375 c 1
 387.5 -64.5 182.200195312 -44.099609375 140.799804688 54.5 c 0
 89.400390625 174.5 267.599609375 330.599609375 346.599609375 189.200195312 c 1
 347.299804688 271.299804688 348.400390625 354 349.700195312 436.599609375 c 1
 311.599609375 422.700195312 188 406.900390625 171.799804688 450.799804688 c 1
 231.799804688 461 293 465.099609375 350.700195312 494.200195312 c 1
 354.799804688 552.299804688 347.299804688 634.099609375 356.700195312 681.200195312 c 0
 357.299804688 698.700195312 334.599609375 718.799804688 322.900390625 734.599609375 c 0
 306.599609375 775.400390625 449.099609375 745.5 433 672.799804688 c 0
 414.799804688 622.700195312 421.5 574.400390625 421.299804688 522.099609375 c 1
 456.400390625 528.400390625 514.700195312 578.099609375 538.400390625 535.599609375 c 0
 542.400390625 523.299804688 536.5 510.099609375 525.200195312 504.599609375 c 0
 490.900390625 488 455.599609375 473.599609375 419.900390625 460.599609375 c 0xa8
 417 342.799804688 424.200195312 224.299804688 428.599609375 105.900390625 c 0
 465.200195312 80.099609375 503.799804688 56.5 549.299804688 52.599609375 c 1xd0
 550.299804688 97.2998046875 557.5 143 582.700195312 181.799804688 c 0
 633.200195312 244.799804688 781.799804688 276.900390625 831.700195312 198.400390625 c 0
 864.200195312 129.200195312 839.700195312 18.2998046875 753.5 4.2998046875 c 1
622.900390625 65.7998046875 m 2x90
 622.900390625 65.7001953125 l 2
 621.5 59.5 619.700195312 53.2001953125 617.799804688 46.7998046875 c 1
 688.200195312 50.099609375 794.299804688 42.7998046875 802 136 c 0
 803.200195312 152.5 801.700195312 175.599609375 788.400390625 186.700195312 c 0
 746 197.700195312 685.400390625 172.299804688 651.200195312 147.5 c 0
 635.400390625 126.400390625 631.400390625 91.7998046875 622.900390625 65.7998046875 c 2x90
343.700195312 66.7001953125 m 1
 343.599609375 66.7001953125 l 1
 346 81.5 346.299804688 107.700195312 346.299804688 132.900390625 c 0xc0
 283.700195312 228 222.5 214.200195312 210.700195312 106.299804688 c 0
 214.400390625 56.2998046875 308 37.7001953125 343.700195312 66.7001953125 c 1
EndSplineSet
EndChar

StartChar: uniE161
Encoding: 57697 57697 72
Width: 1000
Flags: W
HStem: 419.8 27<172.576 241.984>
VStem: 191 82.2002<6.46896 55.2002>
LayerCount: 2
Fore
SplineSet
821.400390625 729.400390625 m 4
 940.299804688 705.299804688 876.700195312 527.200195312 768.700195312 577.099609375 c 4
 681.599609375 617 728.5 753.400390625 821.400390625 729.400390625 c 4
852.599609375 637.599609375 m 4
 874 704.5 771.5 735.700195312 753 670.799804688 c 4
 729.700195312 606.799804688 836.700195312 562.400390625 852.599609375 637.599609375 c 4
833.299804688 262.700195312 m 1
 833.400390625 262.700195312 l 2
 842.700195312 232.700195312 802.700195312 213.099609375 784.599609375 238.299804688 c 0
 745.700195312 288.299804688 736.200195312 357.799804688 668.900390625 378.900390625 c 0
 662.400390625 382.099609375 663.200195312 392.200195312 669.900390625 394.400390625 c 0
 753.700195312 418.5 809.200195312 330.799804688 833.299804688 262.700195312 c 1
405.099609375 198.799804688 m 1
 405.200195312 198.799804688 l 1
 476 267.599609375 594 244.200195312 663.900390625 186.599609375 c 1
 665.700195312 327.799804688 442.700195312 367 343.599609375 288.099609375 c 0
 280.700195312 234.799804688 277.099609375 140 273.599609375 62.2998046875 c 1
 273.400390625 59.900390625 273.099609375 57.400390625 273.700195312 55.2001953125 c 1
 273.200195312 55.2001953125 l 1
 276.200195312 -36.7998046875 229.099609375 -14.5 191 27.2998046875 c 0
 180.400390625 155.599609375 229.700195312 296 269.599609375 419.799804688 c 1
 242.400390625 416.900390625 154.599609375 415.400390625 150.700195312 446.799804688 c 0
 195.099609375 458.799804688 245.099609375 452.200195312 288.799804688 474.900390625 c 0
 305.099609375 528.299804688 330.400390625 579.799804688 337.700195312 635.799804688 c 0
 339.099609375 642.5 340.900390625 658.700195312 341.5 662.5 c 0
 349.599609375 682.400390625 304.700195312 730.299804688 341.299804688 735.099609375 c 0
 381.299804688 734.700195312 423.099609375 693.099609375 415 649.700195312 c 0
 391.200195312 596.400390625 358.5 553.599609375 343.900390625 495.799804688 c 1
 386.599609375 503.5 491.599609375 579.400390625 517.299804688 531.599609375 c 0
 521.299804688 519.299804688 515.400390625 506.099609375 504.099609375 500.599609375 c 0
 445.299804688 472 384 449.900390625 321.700195312 430.400390625 c 1
 305.299804688 378 285.299804688 325.799804688 274.299804688 271.900390625 c 1
 410.299804688 459.799804688 821.200195312 408.5 728.599609375 126.299804688 c 0
 751.400390625 99.099609375 779.099609375 71.2001953125 797.200195312 40.5 c 0
 806.799804688 19 796.700195312 -6.5 774.700195312 -15.2001953125 c 0
 727.599609375 -31.400390625 710 26.2001953125 685.700195312 54.7001953125 c 1
 587.700195312 -88.7001953125 237.400390625 17.2001953125 405.099609375 198.799804688 c 1
562.099609375 46.599609375 m 0
 596.599609375 57.400390625 624.299804688 81 642.099609375 110.299804688 c 0
 463.900390625 332.599609375 238.799804688 -4.400390625 562.099609375 46.599609375 c 0
EndSplineSet
EndChar

StartChar: uniE162
Encoding: 57698 57698 73
Width: 1000
Flags: W
HStem: 419.6 27.1006<196.807 264.212>
VStem: 213.3 82.2002<6.2773 55>
LayerCount: 2
Fore
SplineSet
821.400390625 729.400390625 m 4
 940.299804688 705.299804688 876.700195312 527.200195312 768.700195312 577.099609375 c 4
 681.599609375 617 728.5 753.400390625 821.400390625 729.400390625 c 4
852.599609375 637.599609375 m 4
 874 704.5 771.5 735.700195312 753 670.799804688 c 4
 729.700195312 606.799804688 836.700195312 562.400390625 852.599609375 637.599609375 c 4
843.799804688 262.700195312 m 1
 843.900390625 262.700195312 l 2
 853.200195312 232.700195312 813.200195312 213.099609375 795.099609375 238.299804688 c 0
 756.200195312 288.299804688 746.700195312 357.799804688 679.400390625 378.900390625 c 0
 672.900390625 382.099609375 673.700195312 392.200195312 680.400390625 394.400390625 c 0
 764.200195312 418.5 819.700195312 330.799804688 843.799804688 262.700195312 c 1
517.099609375 10.7998046875 m 1
 517 10.7001953125 l 1
 653.599609375 4.900390625 739.700195312 192.200195312 635.900390625 284.5 c 0
 438.5 400.900390625 284.700195312 285 295.900390625 62.099609375 c 1
 295.700195312 59.7001953125 295.5 57.2001953125 296 55 c 1
 295.5 55 l 1
 298.5 -36.900390625 251.400390625 -14.7001953125 213.299804688 27.099609375 c 0
 202.599609375 155.599609375 252.299804688 295.700195312 291.900390625 419.599609375 c 1
 264.599609375 416.799804688 176.900390625 415.299804688 173 446.700195312 c 0
 217.400390625 458.700195312 267.299804688 452.200195312 311 474.799804688 c 0
 327.5 528.200195312 352.700195312 579.799804688 360 635.799804688 c 0
 361.400390625 642.5 363.200195312 658.700195312 363.799804688 662.5 c 0
 371.900390625 682.400390625 327 730.299804688 363.599609375 735.099609375 c 0
 403.599609375 734.799804688 445.400390625 693.099609375 437.299804688 649.700195312 c 0
 413.5 596.400390625 380.799804688 553.599609375 366.200195312 495.799804688 c 1
 408.900390625 503.5 513.900390625 579.400390625 539.599609375 531.599609375 c 0
 543.599609375 519.299804688 537.700195312 506.099609375 526.400390625 500.599609375 c 0
 467.599609375 472 406.299804688 449.900390625 344 430.400390625 c 1
 327.700195312 378.400390625 308 326.700195312 296.900390625 273.299804688 c 1
 382.400390625 380.400390625 554.599609375 398.5 674.599609375 342.599609375 c 0
 869.599609375 233.400390625 704.700195312 -68.099609375 517.099609375 10.7998046875 c 1
EndSplineSet
EndChar

StartChar: uniE163
Encoding: 57699 57699 74
Width: 1000
Flags: W
VStem: 347.2 81.5<93.471 149.185 191.2 352.38> 349 71.7998<220.662 432 518 723.532>
LayerCount: 2
Fore
SplineSet
821.400390625 729.400390625 m 4x00
 940.299804688 705.299804688 876.700195312 527.200195312 768.700195312 577.099609375 c 4
 681.599609375 617 728.5 753.400390625 821.400390625 729.400390625 c 4x00
852.599609375 637.599609375 m 4
 874 704.5 771.5 735.700195312 753 670.799804688 c 4
 729.700195312 606.799804688 836.700195312 562.400390625 852.599609375 637.599609375 c 4
644.700195312 370.400390625 m 2
 644.700195312 370.299804688 l 2
 679.299804688 361.599609375 714 353.700195312 745.200195312 336.5 c 0
 772.400390625 321.099609375 756.200195312 279.099609375 726 285.5 c 0
 663.5 295.799804688 609.299804688 340.400390625 545.599609375 310.099609375 c 0
 500.299804688 327.599609375 621 388.200195312 644.700195312 370.400390625 c 2
822.799804688 309.200195312 m 1
 822.900390625 309 l 2
 949.400390625 31.7998046875 647.400390625 -131.5 423.900390625 40.099609375 c 1
 375 -80.2001953125 154.400390625 -19.7998046875 153.700195312 103.200195312 c 0
 136.799804688 209.099609375 280 292.200195312 345.200195312 191.200195312 c 1
 342.599609375 271 346.099609375 351.599609375 349 432 c 1
 311 418.400390625 188 403 172.200195312 446.599609375 c 1
 232.099609375 456.799804688 293.200195312 460.900390625 350.799804688 489.900390625 c 1
 349.400390625 552.299804688 356.200195312 615.299804688 355.400390625 676.599609375 c 0
 355 694.099609375 338 709 323.299804688 730.5 c 0
 309.799804688 771.799804688 441.799804688 742.200195312 433.400390625 684 c 0
 416.900390625 628.400390625 422 577.299804688 421.799804688 518 c 1
 456.799804688 524.299804688 515.099609375 574 538.799804688 531.5 c 0
 542.799804688 519.200195312 536.900390625 506 525.599609375 500.5 c 0
 491.5 484 456.400390625 469.700195312 420.799804688 456.700195312 c 0x40
 422.299804688 339.5 427 222.599609375 428.700195312 105.299804688 c 1x80
 612 -28.900390625 809.900390625 95.5 822.799804688 309.200195312 c 1
344.700195312 62.599609375 m 0
 343.700195312 74.7001953125 348 100.400390625 347.200195312 119 c 0x80
 306.200195312 178 260.599609375 243.900390625 212.599609375 149.599609375 c 0
 133 48.900390625 287.599609375 7.400390625 344.700195312 62.599609375 c 0
353.5 678.400390625 m 0
 352.700195312 679.299804688 356.099609375 674.799804688 355.099609375 677.400390625 c 0
 354.5 677.900390625 353.799804688 678.200195312 353.5 678.400390625 c 0
EndSplineSet
EndChar

StartChar: uniE164
Encoding: 57700 57700 75
Width: 1000
Flags: W
HStem: 419.8 27<211.676 281.085>
VStem: 230.1 79<20.4794 92.7002>
LayerCount: 2
Fore
SplineSet
821.400390625 729.400390625 m 4
 940.299804688 705.299804688 876.700195312 527.200195312 768.700195312 577.099609375 c 4
 681.599609375 617 728.5 753.400390625 821.400390625 729.400390625 c 4
852.599609375 637.599609375 m 4
 874 704.5 771.5 735.700195312 753 670.799804688 c 4
 729.700195312 606.799804688 836.700195312 562.400390625 852.599609375 637.599609375 c 4
640.700195312 312.900390625 m 2
 640.599609375 312.900390625 l 2
 620 336.299804688 593.299804688 337.700195312 561.799804688 340.900390625 c 0
 528.200195312 375.400390625 661.299804688 383.099609375 676.599609375 357.700195312 c 0
 705.099609375 336.299804688 734 315.400390625 756 287.400390625 c 0
 775.099609375 262.599609375 743.700195312 230.200195312 718.400390625 247.900390625 c 0
 692 267.700195312 663.700195312 289.799804688 640.700195312 312.900390625 c 2
542 134.700195312 m 0
 485.599609375 70.400390625 384.400390625 73.7998046875 309.099609375 92.7001953125 c 1
 310 86.099609375 310.200195312 79.7001953125 311.200195312 73.900390625 c 0
 322.599609375 -32.2001953125 276.099609375 -23.2001953125 230.099609375 27.2998046875 c 1
 216.900390625 155.700195312 270.299804688 296.099609375 308.700195312 419.799804688 c 1
 281.5 416.900390625 193.700195312 415.400390625 189.799804688 446.799804688 c 0
 234.200195312 458.799804688 284.200195312 452.200195312 327.900390625 474.900390625 c 0
 350.700195312 556.099609375 403.599609375 635.799804688 365.900390625 720.5 c 0
 372 768.099609375 471.099609375 698.5 454.599609375 652.5 c 0
 432.900390625 597.700195312 397.099609375 554.700195312 382.900390625 495.799804688 c 1
 425.599609375 503.5 530.700195312 579.400390625 556.400390625 531.599609375 c 0
 560.400390625 519.299804688 554.5 506.099609375 543.200195312 500.599609375 c 0
 484.400390625 472 423.099609375 449.900390625 360.799804688 430.400390625 c 0
 353.400390625 408 346.400390625 385.5 339 363.099609375 c 1
 471 385.799804688 663.700195312 276.599609375 542 134.700195312 c 0
305.200195312 165.799804688 m 1
 305.299804688 165.799804688 l 2
 360.700195312 135.5 540.5 118.799804688 539.5 214.900390625 c 0
 517 284.900390625 430.700195312 344.200195312 356.299804688 321.700195312 c 0
 295.900390625 294.799804688 308.900390625 220.099609375 305.200195312 165.799804688 c 1
EndSplineSet
EndChar

StartChar: uniE165
Encoding: 57701 57701 76
Width: 1000
Flags: W
LayerCount: 2
Fore
SplineSet
821.400390625 729.400390625 m 4
 940.299804688 705.299804688 876.700195312 527.200195312 768.700195312 577.099609375 c 4
 681.599609375 617 728.5 753.400390625 821.400390625 729.400390625 c 4
852.599609375 637.599609375 m 4
 874 704.5 771.5 735.700195312 753 670.799804688 c 4
 729.700195312 606.799804688 836.700195312 562.400390625 852.599609375 637.599609375 c 4
198.400390625 425.700195312 m 1
 198.5 425.700195312 l 1
 59.099609375 461.700195312 259.700195312 454.200195312 292 480.099609375 c 0
 312.700195312 542.5 339.599609375 603.700195312 356.700195312 666.200195312 c 1
 356.900390625 665.5 357.099609375 664.599609375 357.400390625 663.900390625 c 1
 356.799804688 665.200195312 357.099609375 675.799804688 356.200195312 669.799804688 c 1
 352.5 684.700195312 342.700195312 697.799804688 319.299804688 715.900390625 c 0
 289.099609375 765.900390625 429 749.400390625 435 681.5 c 0
 442.799804688 621.200195312 369.900390625 605.099609375 358.200195312 505.5 c 1
 399.299804688 512.900390625 491.799804688 582.400390625 517.599609375 535.700195312 c 0
 521.599609375 523.400390625 515.700195312 510.200195312 504.400390625 504.700195312 c 0
 451.400390625 479 396.200195312 458.5 340.299804688 440.400390625 c 1
 310.299804688 325 283.599609375 218.5 312.799804688 105.700195312 c 0
 336.400390625 57.099609375 399.400390625 51.5 447.400390625 43.5 c 0
 514.099609375 33.900390625 574.299804688 64.7998046875 612.799804688 117.099609375 c 0
 654.299804688 155.099609375 671.5 233.099609375 660.599609375 275.299804688 c 0
 670.400390625 293.200195312 721.700195312 278 734.299804688 270.200195312 c 0
 758.099609375 258.299804688 756.900390625 222.400390625 764.299804688 199 c 1
 764.099609375 199 l 1
 778.900390625 162.299804688 780.900390625 -100 705.599609375 3.7001953125 c 0
 708 51.7001953125 717.5 100.400390625 711.400390625 149.200195312 c 1
 640.5 57 534.400390625 -9.7998046875 415.599609375 -8.2998046875 c 0
 176 -24.099609375 198.900390625 273.5 271.400390625 424.099609375 c 1
 246.900390625 421.099609375 221.900390625 421.099609375 198.400390625 425.700195312 c 1
356.299804688 669.799804688 m 1
 356.700195312 668.599609375 357 667.400390625 356.700195312 666.200195312 c 1
 356.299804688 667.599609375 356.299804688 669 356.299804688 669.799804688 c 1
607.700195312 371 m 2
 607.599609375 371 l 2
 574 405.5 707.099609375 413.200195312 722.400390625 387.799804688 c 0
 750.900390625 366.400390625 779.799804688 345.5 801.799804688 317.5 c 0
 820.900390625 292.700195312 789.5 260.299804688 764.200195312 278 c 0
 710.700195312 311.900390625 678.200195312 374 607.700195312 371 c 2
EndSplineSet
EndChar

StartChar: uniE166
Encoding: 57702 57702 77
Width: 1000
LayerCount: 2
Fore
SplineSet
192 -8.7001953125 m 1
 192 -8.5 l 1
 154 -30.7998046875 119.400390625 22.900390625 144.400390625 54.599609375 c 0
 161.299804688 74.7998046875 179.099609375 69.400390625 194.5 95.2998046875 c 0
 304.400390625 262 412.799804688 442.099609375 454.099609375 640.299804688 c 0
 463.5 672.200195312 453.400390625 694 443.200195312 724.900390625 c 0
 453.400390625 773.700195312 550.200195312 698.700195312 531.5 654.200195312 c 0
 467.299804688 540 427.799804688 414.700195312 393.200195312 287.5 c 1
 521.200195312 476.799804688 865.200195312 385.200195312 792 138.299804688 c 0
 815.299804688 105.299804688 841.299804688 75.599609375 859 40.7001953125 c 0
 872.099609375 2.5 826.200195312 -29.900390625 794.700195312 -5.400390625 c 0
 774.200195312 13.2001953125 764.900390625 38.400390625 750.099609375 61.099609375 c 1
 690.400390625 -44.400390625 487 -25.7998046875 457.5 93.099609375 c 0
 440.599609375 231.200195312 630.799804688 289.5 723.099609375 207.099609375 c 1
 713.799804688 284.200195312 647.799804688 318.299804688 563.700195312 329.900390625 c 0
 418.799804688 354.700195312 381.5 177 389.900390625 66.5 c 1
 389.799804688 65.099609375 389.700195312 63.7001953125 390.200195312 62.400390625 c 1
 389.700195312 62.400390625 l 1
 392.900390625 -31.7001953125 347.400390625 -12.2001953125 307.400390625 31.400390625 c 0
 296.099609375 44.900390625 301.599609375 60.2001953125 305.799804688 77.900390625 c 0
 312.5 124.200195312 315.599609375 170.900390625 325.200195312 216.700195312 c 1
 290.599609375 139.599609375 276.599609375 32.7998046875 192 -8.7001953125 c 1
696.400390625 101.799804688 m 1
 696.299804688 101.799804688 l 1
 701.200195312 108.900390625 705.400390625 116.5 709.099609375 124.5 c 0
 662.799804688 212.900390625 493.200195312 216.599609375 494.599609375 98.599609375 c 0
 517.200195312 19.599609375 665.5 24.2001953125 696.400390625 101.799804688 c 1
EndSplineSet
EndChar

StartChar: uniE167
Encoding: 57703 57703 78
Width: 1000
VStem: 328.2 84.0996<32.0345 217.517>
LayerCount: 2
Fore
SplineSet
184.700195312 -12.2001953125 m 0
 142.900390625 4 153.700195312 63.7998046875 193.599609375 72.599609375 c 0
 322.5 234.900390625 428.700195312 436.200195312 476.5 640 c 0
 477.900390625 646.599609375 479.700195312 663 480.299804688 666.700195312 c 0
 488.400390625 686.599609375 443.5 734.5 480.099609375 739.299804688 c 0
 520.099609375 738.900390625 561.900390625 697.299804688 553.799804688 653.900390625 c 0
 545.900390625 618.299804688 517.5 602.299804688 508.599609375 568.299804688 c 0
 471.900390625 473.599609375 437.799804688 375.900390625 413.200195312 277.200195312 c 1
 573.099609375 512.400390625 951.299804688 291.599609375 744.700195312 56 c 0
 697 9.2001953125 615.799804688 -12.7001953125 555.900390625 13.7998046875 c 1
 596.200195312 16.5 636 29.7001953125 663.400390625 55.400390625 c 0
 887.700195312 323.200195312 397.200195312 509.5 412.299804688 66.400390625 c 1
 415.099609375 -27 375.099609375 -17.599609375 329.799804688 31.400390625 c 0
 318.400390625 44.900390625 324 60.2001953125 328.200195312 77.900390625 c 0
 333.700195312 126.5 338.099609375 175.200195312 349.400390625 222.599609375 c 1
 310.5 143.900390625 294.299804688 -6.400390625 184.700195312 -12.2001953125 c 0
EndSplineSet
EndChar

StartChar: uniE168
Encoding: 57704 57704 79
Width: 1000
VStem: 430.6 1.40039<66.238 66.7002> 433.6 80.9004<107.265 165.808 204.8 368.494>
LayerCount: 2
Fore
SplineSet
808.599609375 310.799804688 m 1
 808.5 311 l 1
 879.900390625 236.5 844 62.2001953125 743.799804688 8.2001953125 c 0
 702.700195312 -18.099609375 636.700195312 -39.400390625 590.700195312 -7.900390625 c 0
 560 15.400390625 539.5 28.599609375 512.5 52.7001953125 c 1
 478.599609375 -65 282.400390625 -27.5 247.400390625 71.400390625 c 1
 228 33.5 191.299804688 -18.5 143.299804688 -12 c 0
 116.099609375 -1.2998046875 108.700195312 31 124.700195312 54.5 c 0
 194.299804688 96.2001953125 227 178.200195312 268.700195312 248.5 c 0
 335.099609375 350.900390625 384.200195312 463.400390625 425.900390625 578.200195312 c 0
 447.700195312 633.299804688 456.599609375 687.799804688 409.700195312 734.799804688 c 0
 396 776.900390625 534.099609375 746.099609375 519.5 682.299804688 c 0
 488.200195312 499.599609375 519.200195312 308.5 514.5 122.900390625 c 1
 554.599609375 97.7001953125 605.5 35.900390625 652.400390625 56.099609375 c 0
 745.299804688 108.400390625 796 202.299804688 808.599609375 310.799804688 c 1
431.900390625 66.7001953125 m 2
 432 66.7001953125 l 2
 432.799804688 68.2001953125 431.099609375 67 430.599609375 66.2001953125 c 1
 432.099609375 86.2001953125 434.200195312 115.700195312 433.599609375 137.900390625 c 0
 358 253 300.299804688 194.700195312 276.299804688 93.400390625 c 0
 289.299804688 31.5 394.099609375 30.099609375 431.900390625 66.7001953125 c 2
430.700195312 301.200195312 m 0
 432.900390625 375.200195312 436.5 449.200195312 437.900390625 522.900390625 c 1
 403.799804688 424.099609375 360.599609375 328.200195312 313.400390625 234.799804688 c 1
 354.599609375 255.200195312 402.099609375 236 431.700195312 204.799804688 c 1
 430.599609375 236.900390625 429.5 269.099609375 430.700195312 301.200195312 c 0
439.599609375 682.700195312 m 1
 440.700195312 681.900390625 441.200195312 682.400390625 441.700195312 680.599609375 c 1
 441.200195312 680.700195312 439.599609375 682.700195312 439.599609375 682.700195312 c 1
EndSplineSet
EndChar

StartChar: uniE169
Encoding: 57705 57705 80
Width: 1000
VStem: 312.8 84.9004<14.4228 96.3909>
LayerCount: 2
Fore
SplineSet
192 -9.2001953125 m 1
 191.900390625 -9.400390625 l 2
 153.900390625 -31.7998046875 119.400390625 22 144.299804688 53.7001953125 c 0
 161.200195312 73.900390625 179 68.5 194.400390625 94.400390625 c 0
 306.700195312 269.200195312 425.799804688 459.099609375 466.799804688 665.400390625 c 0
 469.799804688 685.700195312 459 698.400390625 452.400390625 724.5 c 0
 458.599609375 772.200195312 557.599609375 702.299804688 541.099609375 656.5 c 0
 491.700195312 564.599609375 454.900390625 468.900390625 425.5 367.200195312 c 1
 774.900390625 395.5 719.200195312 10.7998046875 395.599609375 96.7001953125 c 1
 396.5 90.099609375 396.700195312 83.7001953125 397.700195312 77.900390625 c 0
 409.099609375 -28.2001953125 362.599609375 -19.2998046875 316.599609375 31.2998046875 c 0
 308.099609375 43.599609375 308.099609375 51.099609375 312.799804688 68.2001953125 c 0
 319.200195312 129.700195312 328 193.700195312 342.400390625 254 c 1
 294.099609375 168 289.400390625 41.099609375 192 -9.2001953125 c 1
395 243 m 0
 392.799804688 218.799804688 391.799804688 194.400390625 391.799804688 169.900390625 c 0
 447.200195312 139.599609375 627 122.900390625 626 219 c 0
 602.5 323.5 397.700195312 393 395 243 c 0
EndSplineSet
EndChar

StartChar: uniE16A
Encoding: 57706 57706 81
Width: 1000
HStem: -15.5996 61.3994<776.199 878.75>
VStem: 412.3 0.5<666.165 669.349> 720.1 54.8008<57.5 146.714>
LayerCount: 2
Fore
SplineSet
412.299804688 669.400390625 m 1
 412.599609375 668.299804688 412.900390625 667.200195312 412.799804688 666.099609375 c 1
 412.400390625 667.5 412.299804688 668.5 412.299804688 669.400390625 c 1
856.799804688 45.7998046875 m 0
 894.400390625 41.099609375 930 -0.099609375 878.299804688 -15.599609375 c 0
 840.799804688 -9.099609375 804.299804688 3.7998046875 765.099609375 1.5 c 0
 665.5 -254.799804688 445.900390625 -4.7998046875 720.099609375 53 c 0
 721.799804688 84.2001953125 722.799804688 116.5 718 148.200195312 c 1
 578.099609375 -46.400390625 262.599609375 -95.400390625 277.299804688 219.299804688 c 1
 241.5 141.099609375 228.299804688 32.099609375 142.299804688 -10.400390625 c 0
 104.299804688 -32.7001953125 69.7001953125 21 94.7001953125 52.7001953125 c 0
 164.299804688 94.400390625 197 176.400390625 238.700195312 246.700195312 c 0
 323 373.799804688 363.200195312 523.099609375 412.799804688 666.099609375 c 1
 413.900390625 658.599609375 412.700195312 678.099609375 412.299804688 669.400390625 c 1
 414.5 696.099609375 351.400390625 715.400390625 376.5 738.099609375 c 0
 472.299804688 772.700195312 537.200195312 657.400390625 447.299804688 599.099609375 c 1
 403.5 475.5 247.799804688 48.2001953125 476.799804688 48.2998046875 c 0
 570.400390625 26 646.5 133.5 670.700195312 212.599609375 c 0
 675.900390625 265 645.700195312 288.099609375 699.400390625 282.200195312 c 0
 741.799804688 279.700195312 762.200195312 259.700195312 766.599609375 219.5 c 0
 781.200195312 161.799804688 779.099609375 112.900390625 774.900390625 57.5 c 1
 802.599609375 57.2001953125 830.400390625 53.2001953125 856.799804688 45.7998046875 c 0
688.599609375 -48.7001953125 m 0
 700.200195312 -34.7001953125 707.400390625 -19.099609375 712.099609375 -2.099609375 c 1
 580.400390625 -0.900390625 600.099609375 -145.900390625 688.599609375 -48.7001953125 c 0
EndSplineSet
EndChar

StartChar: uniE16B
Encoding: 57707 57707 82
Width: 1000
LayerCount: 2
Fore
SplineSet
798.799804688 199 m 1
 798.700195312 199 l 1
 798.5 199 l 1
 813.200195312 162.200195312 815.700195312 -99.2998046875 740.099609375 3.599609375 c 0
 742.400390625 51.400390625 752 100 745.900390625 148.700195312 c 1
 676.099609375 59.7001953125 576.700195312 -4.099609375 461.599609375 -9.099609375 c 1
 464.299804688 -9.400390625 l 1
 332 -13.400390625 264.099609375 114 286.700195312 241.900390625 c 1
 243.400390625 158.799804688 235.5 38.599609375 142.299804688 -8.7001953125 c 0
 104.299804688 -31 69.7001953125 22.7001953125 94.7001953125 54.400390625 c 0
 164.299804688 96.099609375 197 178.099609375 238.700195312 248.400390625 c 0
 322.700195312 375.599609375 374.900390625 521.599609375 420.400390625 666 c 1
 421.599609375 662 420.700195312 665.5 420.400390625 666.700195312 c 0
 421.200195312 672.5 419.700195312 673.099609375 419.900390625 669.099609375 c 1
 422.299804688 695.599609375 358.200195312 717 384.099609375 738.099609375 c 0
 480.900390625 772.799804688 544.5 656.700195312 453.599609375 597.200195312 c 1
 412.400390625 489.200195312 379.099609375 371.5 368.299804688 256.299804688 c 0
 355.099609375 147.900390625 361.299804688 62.2001953125 486.599609375 43.2001953125 c 1
 314.200195312 226.799804688 573.700195312 370.200195312 683.200195312 171.900390625 c 1
 704.799804688 196.299804688 694.900390625 265 695.099609375 275.299804688 c 0
 705.099609375 293.299804688 756 277.900390625 768.799804688 270.200195312 c 0
 792.5 258.200195312 791.400390625 222.400390625 798.799804688 199 c 1
634.299804688 104.200195312 m 0
 686.599609375 187 548.5 283.799804688 480.900390625 225.599609375 c 0
 424.599609375 138 564.5 -1.2001953125 634.299804688 104.200195312 c 0
420 669.099609375 m 1
 420.200195312 668.099609375 420.599609375 667.099609375 420.400390625 666 c 1
 420.200195312 667 420 668.099609375 420 669.099609375 c 1
EndSplineSet
EndChar

StartChar: uniE16C
Encoding: 57708 57708 83
Width: 1000
VStem: 427.5 0.5<666.266 669.944>
LayerCount: 2
Fore
SplineSet
427.5 670 m 1
 427.700195312 668.799804688 428.200195312 667.5 428 666.200195312 c 1
 427.599609375 667.599609375 427.5 669 427.5 670 c 1
795 219.5 m 1
 794.900390625 219.5 l 1
 814.599609375 181.900390625 818.900390625 -104.599609375 740.900390625 3.599609375 c 0
 743.200195312 51.5 752.799804688 100.099609375 746.700195312 148.799804688 c 1
 604.700195312 -54.5 259.900390625 -90.2001953125 293.299804688 234.700195312 c 1
 252.700195312 153.299804688 243.099609375 36.900390625 152.299804688 -8.7001953125 c 0
 114.299804688 -31 79.7001953125 22.7001953125 104.700195312 54.400390625 c 0
 174.299804688 96.099609375 207 178.099609375 248.700195312 248.400390625 c 0
 332.799804688 374.099609375 382.099609375 523.5 428 666.200195312 c 1
 428.200195312 665.5 428.400390625 664.700195312 428.700195312 664 c 1
 427.900390625 665.599609375 428.599609375 674.799804688 427.5 670 c 1
 423.599609375 686.099609375 413.700195312 697.700195312 390.700195312 715.900390625 c 0
 359.5 769.900390625 520 747.400390625 507.200195312 663.099609375 c 0
 504.599609375 631.599609375 475.5 615.599609375 461.5 597.599609375 c 0
 442.400390625 557.599609375 431.900390625 514.799804688 420.5 471.799804688 c 0
 395.099609375 362.400390625 296.799804688 76.5 467.5 52.2998046875 c 0
 512.599609375 41.2001953125 562.099609375 33.900390625 599.200195312 69.5 c 0
 661.599609375 111.299804688 715.5 208.299804688 696 275.299804688 c 0
 705.799804688 293.200195312 757.099609375 278 769.700195312 270.200195312 c 0
 788.099609375 261.700195312 790.099609375 238.599609375 795 219.5 c 1
EndSplineSet
EndChar

